<svg xmlns="http://www.w3.org/2000/svg" fill="none" viewBox="0 0 1024 1024" height="1024" width="1024">
<g clip-path="url(#clip0_2_5682)">
<rect fill="white" height="1024" width="1024"></rect>
<rect fill="white" height="1024" width="1024"></rect>
<path fill="#372720" d="M886.547 253.911C882.462 253.29 878.638 251.297 875.076 247.93C890.012 204.627 895.747 162.957 892.283 122.922C888.329 89.1287 877.903 62.7871 861.007 43.8969C795.267 28.0625 740.998 48.309 678.102 72.4283C676.566 73.0165 675.079 72.8857 673.641 72.036C572.212 11.2476 344.109 -14.3914 260.574 85.8605L258.858 86.9879C255.786 86.3997 254.625 86.6774 255.377 87.8212C216.845 76.3499 87.9637 44.9263 59.0892 77.5265C39.8232 105.126 39.333 150.571 41.539 183.465L49.2356 220.674L61.3443 274.06C61.7038 275.759 61.0175 276.641 59.2853 276.707C58.7297 276.707 58.1578 276.707 57.5695 276.707C57.0869 276.698 56.6113 276.823 56.196 277.069C55.7806 277.315 55.442 277.671 55.218 278.099C54.9941 278.527 54.8936 279.008 54.928 279.489C54.9623 279.971 55.1301 280.433 55.4125 280.825L60.3638 287.737C61.6057 289.502 62.766 289.437 63.8445 287.541C79.3684 259.402 97.9154 233.223 119.485 209.006L169.391 160.425C169.911 159.929 170.307 159.318 170.549 158.642C170.792 157.965 170.873 157.24 170.788 156.523C170.703 155.807 170.452 155.118 170.057 154.51C169.661 153.903 169.131 153.394 168.508 153.022L98.7488 111.892L86.444 96.4003C125.532 108.721 162.315 124.719 196.795 144.394C198.658 145.44 198.609 146.388 196.648 147.237C189.196 150.407 184.228 153.136 181.745 155.424C117.23 214.497 72.8647 267.588 42.2744 349.212C36.1302 350.257 33.0907 353.46 33.1561 358.82C33.1888 360.356 32.813 361.778 32.0286 363.085C24.7242 375.145 11.2428 428.874 14.9196 441.669C12.5991 445.624 11.9782 450.052 13.0567 454.954C11.7167 455.608 11.1285 456.948 11.2919 458.974C11.3899 460.216 12.0762 460.788 13.3508 460.69C16.4229 460.461 19.8382 462.259 23.5966 466.082C-4.59156 502.654 10.2134 550.108 30.5089 586.09C32.3064 596.255 37.993 605.978 47.5688 615.259C58.7461 631.241 74.2537 645.327 94.0916 657.517L127.574 682.421C128.555 683.14 128.44 683.565 127.231 683.695C126.643 683.761 126.087 683.663 125.564 683.401C117.688 679.283 109.763 674.724 101.788 669.724C87.5716 661.39 57.7166 645.801 47.1767 628.152C14.5764 582.953 -4.59156 550.892 0.948037 492.555C1.76509 483.763 2.54945 473.207 3.30114 460.886C6.53665 405.784 23.4496 351.45 54.0399 297.885C54.8569 296.447 54.9713 294.96 54.383 293.423C31.5874 235.037 17.3217 128.363 50.8534 74.7322C76.2473 34.0432 205.913 64.4375 243.759 77.5756C246.207 78.433 248.861 78.5064 251.348 77.7857C253.836 77.0649 256.032 75.5861 257.632 73.5557C331.804 -20.5684 586.233 -0.713918 673.739 62.6727C674.784 63.436 676.026 63.8907 677.324 63.986C678.623 64.0812 679.928 63.8132 681.092 63.2119C727.403 38.5044 777.455 26.9021 831.25 28.4055C858.441 29.1898 877.315 42.377 887.871 67.967C912.53 127.677 908.608 193.025 886.547 253.911Z"></path>
<path fill="#FEFEFE" d="M861.006 43.896L845.27 56.7891C805.512 77.8199 765.706 95.4191 729.723 125.617C728.415 126.696 728.301 127.888 729.38 129.196C732.615 133.02 736.537 135.438 741.145 136.451C738.841 142.236 739.576 146.452 745.165 149.982C782.57 173.807 800.218 209.937 822.572 241.262C842.525 269.107 856.888 292.589 875.321 317.395C875.803 318.051 876.032 318.86 875.97 319.677C875.907 320.494 875.555 321.266 874.978 321.856L869.389 327.396C867.984 328.801 866.562 328.817 865.124 327.445C834.828 298.276 796.002 263.911 770.412 243.223C708.104 192.877 614.568 151.894 531.425 160.424C493.841 164.247 455.766 169.542 417.202 176.307C413.345 176.993 410.649 175.539 409.113 171.944L404.995 162.532C404.145 160.571 402.691 159.835 400.632 160.326C366.61 168.022 334.353 260.676 300.086 228.075C297.373 212.061 299.203 197.125 305.576 183.268C305.67 183.057 305.713 182.827 305.701 182.596C305.69 182.366 305.624 182.141 305.51 181.941C305.395 181.74 305.235 181.57 305.042 181.442C304.849 181.315 304.629 181.236 304.4 181.209C303.321 181.079 302.684 181.324 302.488 181.945C298.566 193.024 296.36 204.61 295.87 216.702C278.663 214.104 271.799 220.967 258.22 226.212C184.686 254.45 96.2484 308.522 64.9717 382.498C61.6872 390.194 62.3245 400.685 52.814 408.823C52.3565 409.215 52.0787 409.101 51.9806 408.48L51.6865 406.175C51.425 404.345 50.8041 404.215 49.8236 405.783C46.6861 410.751 42.8787 411.503 38.4013 408.038C37.1267 407.025 36.4567 405.718 36.3913 404.117C35.9665 393.201 33.6951 389.279 29.5771 392.351L42.2741 349.211C72.8644 267.588 117.23 214.496 181.744 155.423C184.228 153.135 189.196 150.407 196.647 147.236C198.608 146.387 198.657 145.439 196.794 144.393C162.315 124.719 125.531 108.721 86.4438 96.3994C83.0448 92.8044 78.6818 90.2391 73.3546 88.7031C71.6225 88.2128 70.7564 87.0689 70.7564 85.2714C70.7237 80.5652 66.8346 77.9832 59.0889 77.5257C87.9635 44.9254 216.845 76.349 255.377 87.8204C246.716 103.9 240.033 121.418 235.326 140.373C235.294 140.569 235.375 140.667 235.572 140.667C236.062 140.667 236.536 140.667 236.993 140.667C237.516 140.667 237.794 140.929 237.827 141.452C237.859 143.118 238.186 144.475 238.807 145.52C233.807 153.364 231.65 160.799 232.336 167.826C232.63 170.8 233.578 171.012 235.179 168.463C261.292 127.055 297.112 97.0043 342.638 78.3102C343.749 77.8527 343.749 77.4442 342.638 77.0847C341.657 76.7578 341.036 76.9539 340.775 77.6729C303.942 90.2555 271.636 109.799 243.856 136.304C240.359 133.003 241.797 127.676 248.17 120.323C256.668 117.381 263.923 112.152 269.937 104.636C270.163 104.377 270.446 104.161 270.77 103.998L313.273 82.8203C313.66 82.6679 313.976 82.3763 314.159 82.0028C314.342 81.6293 314.379 81.201 314.262 80.8018C314.145 80.4026 313.884 80.0613 313.528 79.8452C313.173 79.6291 312.75 79.5536 312.341 79.6336C309.171 79.9605 306.328 81.1372 303.811 83.1635C302.667 84.085 301.254 84.602 299.792 84.6341C291.196 84.8955 283.009 86.6765 275.231 89.9774C273.989 90.5003 272.715 90.5167 271.407 90.0265L260.573 85.8597C344.108 -14.3923 572.212 11.2467 673.641 72.0352C675.079 72.8849 676.566 73.0157 678.102 72.4274C740.998 48.3081 795.267 28.0616 861.006 43.896ZM629.814 71.7901C631.121 71.0057 631.693 69.829 631.53 68.2603C631.457 67.4919 631.176 66.7578 630.719 66.1362C630.261 65.5146 629.644 65.0289 628.932 64.7308C611.381 57.4264 566.427 76.006 549.711 86.1047C548.983 86.5375 548.42 87.1993 548.109 87.9865C547.799 88.7736 547.758 89.6418 547.993 90.4547C548.229 91.2675 548.727 91.979 549.41 92.4782C550.094 92.9774 550.924 93.236 551.77 93.2131C576.771 92.6575 601.413 87.3631 625.696 77.3297C626.677 76.9375 627.412 75.908 627.902 74.2412C628.229 73.1954 628.866 72.3784 629.814 71.7901ZM305.233 146.354C285.232 154.148 270.819 174.248 272.584 195.769C272.626 196.037 272.76 196.282 272.963 196.463C273.166 196.643 273.425 196.748 273.696 196.76C273.967 196.772 274.234 196.689 274.451 196.526C274.668 196.364 274.823 196.131 274.888 195.867C278.646 175.343 288.958 159.182 305.821 147.383C305.958 147.305 306.058 147.176 306.099 147.025C306.141 146.873 306.12 146.711 306.042 146.575C305.964 146.438 305.835 146.338 305.683 146.297C305.532 146.255 305.37 146.276 305.233 146.354Z"></path>
<path fill="#E9B6A0" d="M861.007 43.8965C877.903 62.7867 888.329 89.1283 892.283 122.921C883.655 134.752 871.089 141.158 854.585 142.138C852.329 113.852 846.79 91.4978 819.778 78.8989L845.27 56.7895L861.007 43.8965Z"></path>
<path fill="#412D27" d="M845.27 56.7903L819.778 78.8997L755.019 131.256C754.425 131.735 753.954 132.349 753.644 133.046C753.335 133.744 753.196 134.505 753.239 135.266C753.282 136.028 753.506 136.769 753.892 137.427C754.278 138.085 754.816 138.642 755.46 139.051C786.998 158.954 817 183.155 845.466 211.654L875.076 247.931C878.638 251.297 882.462 253.29 886.547 253.911C911.516 290.646 929.017 331.139 939.051 375.39C939.378 376.828 939.214 378.217 938.56 379.557C936.894 382.989 934.197 384.1 930.472 382.891C927.236 381.845 926.615 382.695 928.609 385.44C958.611 426.962 965.229 474.024 959.885 524.126C959.722 525.695 960.082 527.133 960.964 528.44C1042.69 650.066 994.349 791.987 879.782 869.443C837.459 897.811 791.181 916.342 740.949 925.036C739.315 925.33 737.991 926.13 736.978 927.438C714.231 956.508 684.671 979.108 645.894 979.108C601.773 977.588 553.73 972.294 537.161 925.82C536.899 925.102 536.42 924.482 535.789 924.044C535.158 923.606 534.404 923.37 533.631 923.369L423.525 923.859C421.565 923.859 420.355 924.807 419.898 926.702L417.643 936.262C417.355 937.478 416.726 938.585 415.829 939.448C400.191 954.351 384.258 957.636 361.168 962.587C281.506 979.647 230.865 910.329 196.99 846.305L187.284 818.803C186.717 817.258 185.598 815.981 184.146 815.224C126.593 784.83 90.5126 746.053 45.9017 702.668C45.482 702.243 45.228 701.682 45.1856 701.087C45.1432 700.492 45.3151 699.901 45.6704 699.421C46.0257 698.942 46.5408 698.605 47.1227 698.472C47.7046 698.339 48.3148 698.419 48.8431 698.697L66.4914 708.305C112.328 752.279 166.351 802.086 232.091 816.548L342.589 853.658C374.993 868.561 410.24 880.523 420.388 911.897C420.802 913.135 421.595 914.21 422.652 914.967C423.708 915.725 424.975 916.126 426.271 916.113L533.729 914.888C534.297 914.879 534.843 914.661 535.267 914.273C535.69 913.886 535.963 913.355 536.033 912.78C540.641 874.101 548.436 853.462 583.536 833.804C584.484 833.248 584.942 833.526 584.909 834.637C584.876 835.16 584.582 835.601 584.027 835.961C568.797 846.158 557.129 859.573 549.024 876.209C548.887 876.499 548.86 876.829 548.949 877.138C549.037 877.447 549.234 877.713 549.504 877.887C549.774 878.06 550.098 878.13 550.415 878.083C550.733 878.036 551.022 877.875 551.23 877.63C561.264 865.407 573.487 858.462 587.899 856.796C599.534 855.456 599.681 856.224 588.341 859.1C562.097 865.799 547.701 883.105 545.151 911.015C543.141 932.781 554.074 945.87 571.281 956.95C571.513 957.092 571.793 957.147 572.067 957.105C572.34 957.062 572.589 956.925 572.765 956.719C572.941 956.512 573.031 956.252 573.02 955.987C573.008 955.722 572.895 955.471 572.702 955.283C566.77 948.763 560.741 929.153 570.643 923.467C571.493 922.944 572.473 922.633 573.585 922.535C575.251 922.405 575.807 923.124 575.251 924.692C572.049 933.32 571.771 942.145 574.418 951.165C574.81 952.603 575.644 953.73 576.918 954.547C597.263 967.588 615.793 956.018 618.931 933.811C619.127 932.471 619.846 932.078 621.088 932.634C622.199 933.124 622.738 933.843 622.706 934.791C621.823 950.511 614.846 960.708 601.773 965.381C597.72 966.819 597.835 967.489 602.116 967.391C621.088 966.999 647.364 964.793 648.835 940.723C648.966 938.795 649.587 938.615 650.698 940.184C656.826 949.008 648.394 958.714 642.609 965.087C641.302 966.558 641.629 967.277 643.589 967.244C708.545 965.921 753.793 886.945 768.696 832.725C773.762 814.293 778.582 795.713 783.158 776.986C783.615 775.156 783.076 774.797 781.54 775.908L721.536 820.224C721.176 820.486 720.833 820.453 720.506 820.126C719.983 819.603 719.885 819.228 720.212 818.999C757.911 790.958 866.006 708.845 831.837 655.557L814.729 624.623C792.276 585.944 778.55 534.127 797.816 492.114C824.386 458.288 866.154 447.013 905.813 468.142C924.736 480.561 939.949 497.098 951.453 517.753C951.582 518.003 951.796 518.198 952.056 518.304C952.316 518.41 952.605 518.419 952.872 518.331C953.138 518.242 953.364 518.061 953.508 517.82C953.653 517.579 953.706 517.295 953.66 517.018L948.61 479.319C948.218 438.27 935.08 404.575 909.196 378.234L877.723 338.133C877.684 338.07 877.666 337.995 877.672 337.921C877.679 337.847 877.709 337.777 877.759 337.722C877.809 337.666 877.875 337.629 877.948 337.614C878.021 337.6 878.097 337.61 878.164 337.643C895.584 348.754 911.108 361.762 924.736 376.665C924.971 376.943 925.294 377.128 925.649 377.188C926.005 377.249 926.372 377.181 926.689 376.997C927.005 376.813 927.252 376.523 927.387 376.177C927.523 375.831 927.539 375.449 927.432 375.096C896.875 271.004 834.779 191.456 741.145 136.453C736.537 135.439 732.615 133.021 729.38 129.197C728.301 127.89 728.415 126.697 729.723 125.618C765.706 95.4203 805.512 77.8211 845.27 56.7903ZM774.13 103.444C773.471 102.492 770.95 102.889 767.121 104.545C763.291 106.201 758.468 108.982 753.711 112.276C751.356 113.907 749.088 115.614 747.037 117.301C744.985 118.989 743.191 120.622 741.756 122.108C740.322 123.595 739.274 124.905 738.674 125.964C738.075 127.023 737.934 127.811 738.26 128.282C738.919 129.233 741.44 128.837 745.27 127.181C749.099 125.525 753.922 122.744 758.679 119.45C761.034 117.819 763.302 116.111 765.354 114.424C767.405 112.737 769.199 111.104 770.634 109.617C772.069 108.131 773.116 106.821 773.716 105.762C774.316 104.702 774.456 103.915 774.13 103.444ZM801.737 530.793C801.476 566.384 810.807 597.366 829.73 623.74C833.455 634.297 837.475 644.02 841.789 652.909C863.653 698.059 821.837 737.033 793.943 766.348C792.799 767.558 792.194 769.012 792.129 770.711C790.658 822.349 775.935 869.623 747.959 912.535C746.946 914.071 747.306 914.528 749.038 913.907L790.119 899.004C825.514 887.043 854.225 871.061 876.252 851.06C977.877 779.633 1027.1 672.616 966.258 554.079C965.245 552.151 964.428 552.232 963.807 554.324C960.18 566.416 955.424 574.979 949.542 580.012C940.064 588.052 930.586 596.043 921.108 603.984C920.389 604.605 920.177 604.458 920.471 603.543L921.451 600.553C940.211 585.552 952.842 567.135 959.346 545.304C959.804 543.768 959.591 542.314 958.709 540.941C945.718 520.891 929.932 490.594 904.342 486.918C871.301 482.113 842.475 514.959 830.759 543.098C830.759 542.804 830.105 543.081 828.798 543.931C838.259 508.684 865.075 479.074 903.754 478.731C904.365 478.732 904.955 478.883 905.47 479.172L911.647 482.799C911.874 482.925 912.14 482.961 912.392 482.899C912.644 482.837 912.864 482.681 913.006 482.464C913.149 482.247 913.204 481.985 913.161 481.729C913.118 481.473 912.98 481.242 912.774 481.084C867.771 448.091 801.884 469.809 801.737 530.793ZM303.125 927.193L326.117 953.714C328.012 955.609 330.464 956.835 333.47 957.391C338.013 958.24 342.654 957.881 347.393 956.312C348.929 955.822 349.484 954.792 349.06 953.224L341.951 927.438C349.011 934.235 353.7 942.21 356.021 951.361C356.478 953.028 357.557 953.73 359.256 953.469L378.277 950.625C381.055 950.364 381.398 950.07 379.307 949.743C387.412 948.959 393.605 946.475 397.886 942.292C405.926 938.631 409.783 934.138 409.456 928.81C416.613 904.201 401.906 889.2 380.876 880.228C345.579 857.776 296.801 850.668 235.964 835.079C219.361 830.83 205.52 824.767 194.441 816.891C194.114 816.662 193.951 816.76 193.951 817.185C193.951 817.643 193.951 818.1 193.951 818.558C193.918 819.244 194.18 819.783 194.735 820.175L206.599 828.902C208.005 829.893 209.096 831.291 209.736 832.922C220.57 860.718 274.692 955.724 309.302 953.175C311.23 953.011 311.868 952.015 311.214 950.184L303.125 927.193Z"></path>
<path fill="#FDFAEE" d="M627.903 74.2411C627.412 75.9079 626.677 76.9374 625.697 77.3296C601.414 87.3629 576.772 92.6574 551.77 93.2129C550.924 93.2358 550.094 92.9773 549.411 92.4781C548.728 91.9789 548.229 91.2674 547.994 90.4545C547.758 89.6416 547.799 88.7735 548.11 87.9863C548.421 87.1992 548.984 86.5374 549.711 86.1046C566.428 76.0058 611.382 57.4262 628.932 64.7306C629.644 65.0288 630.262 65.5144 630.719 66.136C631.177 66.7576 631.457 67.4918 631.53 68.2601C631.694 69.8289 631.122 71.0056 629.815 71.7899C628.867 72.3782 628.229 73.1953 627.903 74.2411Z"></path>
<path fill="#FCD9C8" d="M59.0888 77.5269C66.8344 77.9844 70.7236 80.5664 70.7563 85.2726C70.7563 87.0701 71.6224 88.214 73.3545 88.7042C78.6817 90.2403 83.0447 92.8056 86.4436 96.4006L98.7484 111.892C79.0412 108.117 75.9037 126.893 77.6195 141.845H73.1584C71.1975 141.845 70.4131 140.881 70.8053 138.953C73.6159 126.043 69.5634 116.86 58.6476 111.402C58.0012 111.086 57.2925 110.918 56.5738 110.91C55.8552 110.902 55.1449 111.054 54.4955 111.355C53.8461 111.656 53.2742 112.098 52.8219 112.65C52.3696 113.201 52.0485 113.846 51.8824 114.539C46.6206 135.946 45.1336 157.728 47.4214 179.887C47.7482 183.155 45.7873 184.348 41.5386 183.465C39.3326 150.571 39.8228 105.127 59.0888 77.5269Z"></path>
<path fill="#412D27" d="M238.807 145.521C242.468 142.71 244.151 139.638 243.857 136.305C271.636 109.8 303.942 90.2559 340.775 77.6733C341.037 76.9543 341.657 76.7583 342.638 77.0851C343.749 77.4446 343.749 77.8531 342.638 78.3107C297.112 97.0047 261.293 127.056 235.18 168.464C233.578 171.013 232.63 170.8 232.336 167.826C231.65 160.8 233.807 153.365 238.807 145.521Z"></path>
<path fill="#CEC3B9" d="M248.171 120.323C249.576 112.055 252.714 104.391 257.583 97.3316C257.985 96.7307 258.254 96.0488 258.372 95.3305C258.49 94.6122 258.455 93.874 258.27 93.1648C257.518 90.5829 257.714 88.5239 258.858 86.9879L260.574 85.8604L271.408 90.0273C272.715 90.5175 273.99 90.5011 275.232 89.9782C283.01 86.6773 291.197 84.8963 299.792 84.6349C301.254 84.6028 302.668 84.0858 303.812 83.1642C306.328 81.1379 309.172 79.9612 312.342 79.6344C312.75 79.5544 313.173 79.6299 313.529 79.846C313.884 80.0621 314.146 80.4033 314.262 80.8025C314.379 81.2017 314.342 81.6301 314.159 82.0036C313.976 82.3771 313.66 82.6686 313.273 82.821L270.77 103.999C270.446 104.161 270.163 104.378 269.937 104.636C263.924 112.153 256.668 117.382 248.171 120.323Z"></path>
<path fill="#9B6364" d="M819.778 78.8984C846.79 91.4973 852.329 113.852 854.584 142.138L845.466 211.652C817 183.154 786.998 158.953 755.46 139.049C754.816 138.64 754.278 138.084 753.892 137.426C753.506 136.768 753.282 136.027 753.239 135.265C753.196 134.503 753.335 133.743 753.644 133.045C753.954 132.348 754.425 131.734 755.019 131.255L819.778 78.8984Z"></path>
<path fill="#BBA99B" d="M255.377 87.8205C254.625 86.6766 255.786 86.3989 258.858 86.9872C257.714 88.5233 257.518 90.5823 258.269 93.1641C258.455 93.8734 258.49 94.6116 258.372 95.3298C258.253 96.0481 257.985 96.73 257.583 97.331C252.714 104.39 249.576 112.054 248.171 120.323C241.798 127.676 240.36 133.003 243.857 136.304C244.151 139.638 242.468 142.71 238.807 145.521C238.186 144.475 237.86 143.118 237.827 141.452C237.794 140.929 237.516 140.667 236.993 140.667C236.536 140.667 236.062 140.667 235.572 140.667C235.376 140.667 235.294 140.569 235.327 140.373C240.033 121.418 246.716 103.9 255.377 87.8205Z"></path>
<path fill="#4E423D" d="M758.679 119.45C768.584 112.591 775.502 105.425 774.13 103.444C772.759 101.463 763.617 105.417 753.711 112.276C743.806 119.134 736.888 126.301 738.26 128.282C739.632 130.263 748.774 126.309 758.679 119.45Z"></path>
<path fill="#A8615D" d="M98.7486 111.891L168.508 153.021C169.131 153.392 169.661 153.902 170.057 154.509C170.452 155.117 170.702 155.806 170.788 156.522C170.873 157.239 170.792 157.964 170.549 158.641C170.307 159.317 169.91 159.928 169.391 160.423L119.485 209.005C115.433 207.73 111.151 209.364 106.641 213.907C105.236 215.28 104.174 215.067 103.455 213.27L81.3945 158.413L77.6197 141.843C75.9039 126.891 79.0414 108.116 98.7486 111.891Z"></path>
<path fill="#D0988B" d="M77.6199 141.845L81.3947 158.415C68.4526 156.454 56.344 176.308 49.6768 185.819C49.1756 186.533 48.8479 187.352 48.7202 188.212C48.5925 189.072 48.6683 189.948 48.9415 190.77C52.6019 202.143 52.6999 212.111 49.2357 220.674L41.539 183.465C45.7877 184.348 47.7486 183.155 47.4218 179.887C45.1341 157.728 46.6211 135.946 51.8829 114.539C52.049 113.847 52.3701 113.201 52.8223 112.65C53.2746 112.098 53.8466 111.656 54.496 111.355C55.1453 111.054 55.8556 110.902 56.5742 110.91C57.2929 110.918 58.0016 111.086 58.648 111.402C69.5638 116.86 73.6164 126.043 70.8057 138.953C70.4135 140.881 71.1979 141.845 73.1588 141.845H77.6199Z"></path>
<path fill="#C28780" d="M892.283 122.921C895.747 162.956 890.012 204.626 875.076 247.929L845.466 211.652L854.585 142.138C871.089 141.157 883.655 134.752 892.283 122.921Z"></path>
<path fill="#FDFAEE" d="M741.145 136.452C834.779 191.456 896.875 271.004 927.432 375.096C927.539 375.449 927.523 375.831 927.387 376.177C927.252 376.523 927.005 376.813 926.689 376.997C926.372 377.181 926.005 377.249 925.649 377.188C925.294 377.128 924.971 376.943 924.736 376.665C911.108 361.762 895.584 348.754 878.164 337.642C878.097 337.61 878.021 337.6 877.948 337.614C877.875 337.629 877.809 337.666 877.759 337.721C877.709 337.777 877.679 337.847 877.672 337.921C877.666 337.995 877.684 338.07 877.723 338.133L909.196 378.234L922.334 433.041C923.282 447.323 919.801 456.017 911.892 459.121L877.38 430.786C876.984 430.48 876.491 430.324 875.991 430.347C875.491 430.371 875.015 430.572 874.65 430.914C874.284 431.256 874.052 431.717 873.995 432.215C873.939 432.712 874.061 433.214 874.34 433.629C883.132 446.114 894.178 456.311 907.48 464.22C907.349 465.331 906.794 466.638 905.813 468.141C866.154 447.013 824.386 458.288 797.816 492.114C791.181 495.447 787.243 493.748 786.001 487.015C785.802 485.947 785.27 484.969 784.482 484.221C783.693 483.473 782.688 482.995 781.611 482.853C780.533 482.712 779.439 482.915 778.484 483.434C777.529 483.952 776.762 484.76 776.294 485.741L764.137 511.723C761.947 511.952 761.016 512.475 761.343 513.292L757.715 513.341C755.427 513.373 754.741 512.344 755.656 510.252L756.832 507.556C762.388 503.536 765.657 498.503 766.637 492.457C777.389 424.25 755.427 372.694 700.75 337.79C668.46 324.129 639.047 321.154 612.509 328.867L603.636 332.789C598.407 322.135 604.633 315.5 622.313 312.886C622.528 312.854 622.736 312.772 622.922 312.645C623.109 312.518 623.269 312.349 623.392 312.15L624.912 309.552C625.663 308.343 626.725 307.624 628.098 307.395L663.787 302.15L665.699 301.12C667.79 300.009 667.66 299.29 665.307 298.963L663.15 298.669C662.747 298.622 662.364 298.469 662.039 298.226C661.714 297.983 661.459 297.658 661.3 297.285C661.141 296.912 661.083 296.504 661.133 296.101C661.182 295.699 661.336 295.316 661.581 294.992C662.038 294.371 662.741 293.734 663.689 293.081C686.076 296.055 708.038 302.052 729.576 311.072C729.713 311.133 729.867 311.146 730.014 311.111C730.16 311.076 730.291 310.993 730.386 310.876C730.481 310.759 730.534 310.614 730.538 310.463C730.543 310.313 730.497 310.165 730.409 310.042C730.148 309.618 729.674 309.225 728.987 308.866C699.214 293.44 667.186 286.871 632.902 289.159C586.657 292.263 552.995 315.68 531.915 359.409C530.673 359.539 529.791 360.406 529.268 362.007C528.843 363.445 529.366 364.066 530.837 363.87L532.7 363.625C534.595 363.363 535.723 364.164 536.082 366.027L541.033 391.568C535.249 395.391 539.546 395.931 553.926 393.186C544.645 427.861 548.616 458.451 565.839 484.956C592.458 525.155 643.736 537.264 688.2 523.586C682.318 543.555 684.197 560.811 693.838 575.355C694.688 576.662 695.178 578.1 695.309 579.669C696.534 593.738 723.154 610.063 732.272 615.799C742.273 622.073 753.009 620.701 764.627 622.956C766.196 623.25 767.732 623.169 769.235 622.711C783.975 618.397 799.139 619.034 814.729 624.623L831.837 655.556C830.334 657.256 828.112 658.057 825.17 657.958C823.307 657.926 822.866 658.694 823.847 660.262C825.383 662.746 825.677 665.067 824.729 667.224C789.776 745.562 700.946 788.899 622.755 811.939C560.348 830.323 485.49 836.255 418.476 835.961C390.173 835.83 364.878 841.729 342.589 853.658L232.091 816.548C214.475 802.952 195.879 791.807 176.303 783.114C175.42 782.722 174.832 782.068 174.538 781.153C174.113 779.944 174.227 778.865 174.881 777.917C175.633 776.839 175.682 775.711 175.028 774.535C173.1 771.136 170.453 769.796 167.086 770.515C165.971 770.733 164.821 770.606 163.783 770.15C162.746 769.694 161.868 768.93 161.263 767.956C160.657 766.982 160.351 765.842 160.384 764.682C160.418 763.523 160.788 762.396 161.449 761.446C161.514 761.315 163.148 760.759 166.351 759.779C167.756 762.361 169.701 763.684 172.185 763.75C172.457 763.757 172.723 763.677 172.947 763.522C173.17 763.366 173.337 763.144 173.425 762.887C173.512 762.629 173.515 762.35 173.433 762.091C173.351 761.832 173.189 761.606 172.969 761.446L120.613 724.189C119.207 711.214 113.063 701.001 102.18 693.549C100.867 692.653 99.8315 691.414 99.1896 689.97C95.7907 682.061 96.6567 675.312 101.788 669.724C109.762 674.724 117.688 679.283 125.564 683.401C126.087 683.663 126.642 683.761 127.231 683.696C128.44 683.565 128.554 683.14 127.574 682.421L94.0912 657.517C87.7509 645.882 80.7406 635.179 73.0604 625.407C64.6611 614.655 58.2718 605.128 53.8924 596.827C41.9308 574.031 26.6357 552.069 20.6058 526.626C26.1291 513.128 26.4886 500.301 21.6843 488.143C28.6456 478.959 30.3777 469.776 26.8808 460.592C39.7248 440.95 52.4381 421.374 65.0206 401.863C65.1513 401.634 65.2331 401.421 65.2657 401.225C65.2984 400.997 65.2821 400.768 65.2167 400.539C65.0206 399.46 64.6121 399.428 63.9911 400.441C54.546 415.932 41.7837 428.106 25.7042 436.963C24.8361 437.413 24.109 438.073 23.5962 438.875L13.0563 454.954C11.9778 450.052 12.5988 445.624 14.9192 441.669L18.3998 437.012C19.3476 435.737 20.0012 434.332 20.3607 432.796L29.577 392.352C33.695 389.28 35.9664 393.202 36.3912 404.118C36.4566 405.719 37.1266 407.026 38.4012 408.039C42.8786 411.504 46.686 410.752 49.8235 405.784C50.804 404.216 51.4249 404.346 51.6864 406.176L51.9805 408.481C52.0786 409.102 52.3564 409.216 52.8139 408.824C62.3244 400.686 61.6871 390.195 64.9716 382.499C96.2482 308.523 184.686 254.451 258.22 226.213C271.799 220.968 278.663 214.105 295.87 216.703L300.086 228.076C334.353 260.677 366.61 168.023 400.632 160.327C402.691 159.836 404.145 160.572 404.995 162.533L409.113 171.945C410.649 175.54 413.345 176.994 417.201 176.308C455.766 169.543 493.841 164.248 531.425 160.425C614.568 151.895 708.104 192.878 770.412 243.224C796.002 263.912 834.828 298.277 865.124 327.446C866.562 328.818 867.984 328.802 869.389 327.397L874.978 321.857C875.555 321.268 875.907 320.495 875.969 319.678C876.032 318.861 875.802 318.052 875.321 317.396C856.888 292.59 842.524 269.108 822.572 241.263C800.218 209.938 782.569 173.808 745.165 149.983C739.576 146.453 738.841 142.237 741.145 136.452ZM215.521 308.768C219.966 315.37 230.947 317.069 248.464 313.866C286.604 315.076 319.107 329.685 345.971 357.693C346.755 358.51 347.344 359.474 347.736 360.585C349.566 365.52 350.694 366.076 351.119 362.252L364.012 363.723C366.136 363.984 366.479 363.314 365.041 361.713L352.393 347.594C314.188 299.16 264.805 286.315 204.246 309.062C193.101 313.278 193.363 314.111 205.03 311.562C206.207 311.301 209.704 310.369 215.521 308.768ZM159.586 462.112C139.585 460.412 125.302 461.507 116.74 465.396C105.497 470.429 95.0553 470.691 85.4142 466.181C83.8625 465.392 82.069 465.222 80.3968 465.705C78.7245 466.189 77.2986 467.29 76.4076 468.785C75.5166 470.281 75.227 472.059 75.5977 473.76C75.9683 475.461 76.9714 476.957 78.4039 477.946L80.4628 479.466C81.7701 480.414 81.9662 481.557 81.0511 482.897C73.0114 494.516 60.3144 495.349 53.5983 505.007C43.9898 518.831 47.4214 543.245 51.2942 559.275C58.4025 588.346 76.443 606.19 105.268 612.22C107.033 612.579 108.569 613.38 109.877 614.622C113.145 617.727 116.936 619.851 121.25 620.995C121.289 620.999 121.33 620.994 121.367 620.981C121.404 620.967 121.435 620.945 121.456 620.918C121.478 620.892 121.488 620.861 121.486 620.831C121.485 620.801 121.47 620.773 121.446 620.75L120.76 619.426C120.699 619.339 120.667 619.235 120.67 619.129C120.674 619.023 120.711 618.921 120.778 618.838C120.844 618.755 120.935 618.696 121.038 618.669C121.141 618.643 121.25 618.65 121.348 618.691C147.281 625.897 167.871 623.446 192.823 616.093C231.355 604.719 252.239 583.541 253.906 541.284C253.94 540.459 253.804 539.636 253.507 538.866C253.21 538.096 252.757 537.395 252.178 536.807C251.599 536.219 250.906 535.755 250.14 535.446C249.375 535.137 248.554 534.988 247.729 535.009C235.604 535.27 229.819 531.92 230.375 524.959C237.369 526.92 243.644 527.394 249.2 526.381C251.52 525.989 251.586 525.335 249.396 524.42L231.944 517.115C231.355 512.442 232.205 510.154 234.493 510.252C274.201 532.852 313.469 516.086 339.353 482.701L372.738 494.32C374.437 494.908 375.842 494.5 376.954 493.094C380.712 488.323 385.549 486.068 391.464 486.329C396.824 516.233 412.397 534.976 438.183 542.558C453.903 547.199 468.823 545.925 482.941 538.735C502.403 528.881 542.161 484.613 501.276 470.642C488.007 466.099 475.49 463.877 463.724 463.975L473.235 447.16C473.652 446.415 474.259 445.796 474.991 445.365C475.724 444.934 476.556 444.708 477.402 444.709C482.827 444.709 487.598 442.829 491.716 439.071C492.762 438.123 492.615 437.404 491.275 436.914L463.626 427.158C463.496 427.132 463.382 427.056 463.308 426.945C463.235 426.835 463.208 426.7 463.234 426.57C463.26 426.44 463.337 426.326 463.447 426.252C463.557 426.179 463.692 426.152 463.822 426.178C465.358 426.178 467.581 426.652 470.489 427.6C470.863 427.73 471.27 427.727 471.642 427.591C472.014 427.455 472.327 427.195 472.529 426.855C472.731 426.514 472.809 426.114 472.75 425.723C472.691 425.332 472.499 424.973 472.205 424.707C466.486 419.38 459.982 416.259 452.694 415.344C451.354 415.181 450.455 414.445 449.998 413.138C448.037 407.582 443.069 403.954 435.095 402.255C415.78 398.071 400.141 401.421 388.18 412.304C387.265 413.154 386.301 413.203 385.288 412.451C381.006 409.314 376.757 409.2 372.542 412.108C372.165 412.338 371.884 412.697 371.753 413.119C371.622 413.541 371.65 413.996 371.83 414.398C372.01 414.801 372.332 415.125 372.733 415.308C373.135 415.491 373.59 415.521 374.012 415.393C379.405 414.085 383.882 415.262 387.445 418.923C387.773 419.275 388.008 419.704 388.128 420.171C388.249 420.638 388.251 421.127 388.134 421.595C388.017 422.062 387.785 422.494 387.459 422.849C387.133 423.204 386.724 423.472 386.268 423.629L359.354 432.649C361.168 376.174 319.548 321.857 259.74 332.446C197.432 343.525 158.801 400.539 159.586 462.112ZM493.824 436.375L503.776 441.179C503.945 441.302 504.156 441.354 504.363 441.322C504.57 441.289 504.755 441.176 504.879 441.007C505.003 440.838 505.054 440.627 505.022 440.42C504.989 440.214 504.876 440.028 504.707 439.904C501.472 436.799 497.959 435.198 494.167 435.1C494.018 435.102 493.874 435.153 493.756 435.245C493.638 435.336 493.554 435.464 493.515 435.608C493.476 435.752 493.485 435.905 493.541 436.043C493.597 436.182 493.696 436.298 493.824 436.375ZM434.654 600.7L453.086 589.571C454.59 588.656 456.011 588.771 457.351 589.915C469.117 600.209 488.628 621.436 504.021 622.956C506.047 623.152 506.358 622.531 504.953 621.093L474.411 590.012L457.989 551.334C457.568 550.344 456.845 549.512 455.924 548.958C455.002 548.403 453.929 548.154 452.857 548.247C451.786 548.339 450.771 548.768 449.958 549.472C449.145 550.177 448.576 551.12 448.331 552.167C441.729 579.783 426.777 601.174 403.475 616.338C403.209 616.507 403.02 616.775 402.951 617.083C402.882 617.391 402.938 617.714 403.107 617.98C403.276 618.247 403.544 618.435 403.852 618.504C404.16 618.573 404.483 618.517 404.75 618.348L434.654 600.7Z"></path>
<path fill="#412D27" d="M272.584 195.769C270.819 174.248 285.232 154.149 305.233 146.354C305.37 146.276 305.531 146.256 305.683 146.297C305.835 146.338 305.964 146.438 306.042 146.575C306.12 146.712 306.14 146.873 306.099 147.025C306.058 147.177 305.958 147.306 305.821 147.384C288.957 159.182 278.646 175.343 274.888 195.868C274.823 196.131 274.668 196.364 274.451 196.527C274.234 196.689 273.967 196.772 273.696 196.76C273.424 196.749 273.166 196.644 272.963 196.463C272.76 196.283 272.626 196.037 272.584 195.769Z"></path>
<path fill="#C28780" d="M81.3945 158.414L103.455 213.27C104.174 215.068 105.236 215.28 106.641 213.908C111.151 209.365 115.433 207.731 119.485 209.005C97.9152 233.223 79.3682 259.401 63.8442 287.54C62.7657 289.436 61.6055 289.501 60.3636 287.736L55.4123 280.824C55.1299 280.433 54.9621 279.97 54.9278 279.489C54.8934 279.007 54.9938 278.526 55.2178 278.098C55.4418 277.671 55.7804 277.314 56.1957 277.068C56.6111 276.822 57.0867 276.697 57.5693 276.706C58.1576 276.706 58.7295 276.706 59.2851 276.706C61.0172 276.641 61.7036 275.758 61.3441 274.059L49.2354 220.673C52.6997 212.11 52.6016 202.142 48.9413 190.769C48.6681 189.947 48.5923 189.071 48.72 188.211C48.8477 187.351 49.1753 186.531 49.6766 185.818C56.3437 176.307 68.4524 156.453 81.3945 158.414Z"></path>
<path fill="#BDA194" d="M300.086 228.076L295.87 216.703C296.36 204.611 298.566 193.025 302.488 181.946C302.684 181.325 303.322 181.08 304.4 181.21C304.629 181.237 304.849 181.316 305.042 181.443C305.235 181.571 305.395 181.741 305.51 181.942C305.624 182.142 305.69 182.367 305.702 182.598C305.713 182.828 305.67 183.058 305.577 183.269C299.204 197.126 297.373 212.062 300.086 228.076Z"></path>
<path fill="#2E1E1B" d="M663.689 293.081C617.999 289.551 579.467 296.905 551.72 334.456L531.915 359.409C552.995 315.68 586.657 292.264 632.902 289.159C667.186 286.871 699.214 293.44 728.987 308.866C729.674 309.226 730.147 309.618 730.409 310.043C730.497 310.165 730.543 310.313 730.538 310.463C730.534 310.614 730.481 310.759 730.386 310.876C730.291 310.993 730.16 311.076 730.014 311.111C729.867 311.147 729.713 311.133 729.576 311.072C708.038 302.052 686.076 296.055 663.689 293.081Z"></path>
<path fill="#B4AAA6" d="M663.689 293.079C662.742 293.733 662.039 294.37 661.581 294.991C661.337 295.315 661.182 295.697 661.133 296.1C661.084 296.503 661.142 296.911 661.301 297.284C661.46 297.657 661.715 297.981 662.039 298.224C662.364 298.467 662.747 298.62 663.15 298.668L665.307 298.962C667.66 299.289 667.791 300.008 665.699 301.119L663.787 302.149C662.382 300.645 659.996 300.024 656.63 300.286C647.185 297.017 639.75 297.491 634.325 301.707C602.688 307.917 575.088 324.045 551.525 350.093C551.329 350.322 551.067 350.387 550.74 350.289C550.283 350.126 549.825 349.979 549.368 349.848C549.28 349.822 549.2 349.774 549.136 349.709C549.071 349.644 549.025 349.563 549 349.475C548.975 349.386 548.974 349.293 548.995 349.204C549.017 349.115 549.061 349.033 549.123 348.965C556.378 341.056 557.244 336.22 551.721 334.455C579.468 296.903 618 289.55 663.689 293.079Z"></path>
<path fill="#4E423D" d="M352.393 347.594C312.75 305.696 267.126 292.754 215.521 308.768C209.704 310.369 206.207 311.301 205.03 311.562C193.363 314.111 193.101 313.278 204.246 309.062C264.806 286.315 314.188 299.16 352.393 347.594Z"></path>
<path fill="#4E423D" d="M656.63 300.286L634.324 301.708C639.749 297.492 647.184 297.018 656.63 300.286Z"></path>
<path fill="#E1DBD1" d="M656.63 300.286C659.996 300.025 662.382 300.646 663.787 302.149L628.098 307.395C626.726 307.623 625.664 308.342 624.912 309.552L623.392 312.15C623.269 312.348 623.109 312.517 622.923 312.644C622.736 312.771 622.528 312.853 622.314 312.885C604.633 315.5 598.407 322.134 603.636 332.788C584.484 341.514 569.516 354.996 558.731 373.232C551.116 376.174 545.217 382.285 541.034 391.567L536.082 366.026C535.723 364.163 534.595 363.362 532.7 363.624L530.837 363.869C529.366 364.065 528.843 363.444 529.268 362.006C529.791 360.405 530.673 359.539 531.915 359.408L551.721 334.455C557.244 336.22 556.378 341.057 549.122 348.966C549.06 349.033 549.017 349.116 548.995 349.205C548.974 349.294 548.975 349.387 549 349.475C549.024 349.563 549.071 349.644 549.135 349.709C549.2 349.775 549.28 349.822 549.368 349.848C549.825 349.979 550.283 350.126 550.74 350.29C551.067 350.388 551.328 350.322 551.525 350.093C575.088 324.046 602.688 307.917 634.324 301.708L656.63 300.286Z"></path>
<path fill="#CEC3B9" d="M352.393 347.594L365.041 361.712C366.479 363.314 366.136 363.984 364.012 363.722L351.119 362.252C350.759 361.108 350.416 359.784 350.089 358.281C349.795 356.875 349.223 355.682 348.374 354.702C321.15 322.902 286.409 307.231 244.151 307.689C243.489 307.691 242.859 307.936 242.386 308.375C238.497 311.872 240.523 313.703 248.465 313.866C230.947 317.069 219.966 315.369 215.521 308.767C267.126 292.753 312.75 305.696 352.393 347.594Z"></path>
<path fill="#715337" d="M351.119 362.251C350.694 366.075 349.566 365.519 347.736 360.584C347.344 359.473 346.756 358.509 345.971 357.692C319.107 329.683 286.604 315.074 248.465 313.865C240.523 313.702 238.496 311.872 242.386 308.375C242.858 307.935 243.488 307.69 244.15 307.688C286.408 307.231 321.149 322.901 348.373 354.701C349.223 355.681 349.795 356.875 350.089 358.28C350.416 359.783 350.759 361.107 351.119 362.251Z"></path>
<path fill="#170F0A" d="M700.75 337.789C698.822 338.377 697.744 339.635 697.515 341.563C697.319 343.132 696.485 343.606 695.015 342.985C669.784 331.841 643.377 328.425 615.794 332.739C614.486 332.935 613.522 332.821 612.901 332.396C611.79 331.71 611.659 330.533 612.509 328.867C639.047 321.154 668.461 324.128 700.75 337.789Z"></path>
<path fill="#2E1E1B" d="M612.509 328.867C611.659 330.534 611.79 331.711 612.901 332.397C613.522 332.822 614.486 332.936 615.793 332.74C643.377 328.426 669.784 331.842 695.014 342.986C696.485 343.607 697.319 343.133 697.515 341.564C697.743 339.636 698.822 338.378 700.75 337.79C755.427 372.694 777.389 424.25 766.637 492.457C765.657 498.503 762.388 503.536 756.832 507.556C744.577 482.996 748.204 453.091 742.224 427.403C735.654 398.333 709.133 345.78 674.131 346.761C648.443 339.897 624.258 343.362 601.577 357.153C599.975 358.134 598.26 358.542 596.429 358.379C589.86 357.889 584.68 360.52 580.889 366.272C580.643 366.689 580.25 366.995 579.789 367.128C579.329 367.26 578.833 367.211 578.401 366.989C577.969 366.767 577.633 366.388 577.458 365.928C577.283 365.469 577.283 364.961 577.457 364.507L579.173 359.997C580.317 357.023 579.565 356.402 576.918 358.134C571.787 361.533 568.274 365.324 566.378 369.507C553.142 398.692 549.923 428.041 556.721 457.553L566.77 482.456C566.672 484.45 566.362 485.283 565.839 484.956C548.616 458.451 544.645 427.861 553.926 393.186L558.731 373.233C569.516 354.997 584.484 341.515 603.636 332.789L612.509 328.867Z"></path>
<path fill="#2E1E1B" d="M359.354 432.649C355.955 450.362 349.288 467.047 339.353 482.701C313.469 516.086 274.201 532.852 234.493 510.252C208.641 493.813 197.301 469.449 200.471 437.159C202.432 415 211.191 396.584 226.747 381.91C227.401 381.877 227.924 381.926 228.316 382.057C229.558 382.384 229.754 383.021 228.904 383.969C211.714 402.761 204.507 424.576 207.285 449.415C203.657 484.074 228.414 508.879 259.348 515.35C305.625 525.057 342.539 488.29 351.315 444.561C360.237 408.088 332.245 375.782 302.292 359.752C279.741 347.823 257.746 350.405 236.307 367.497L225.522 374.115C201.925 391.11 187.741 413.775 182.97 442.11C182.185 491.476 182.725 501.722 231.944 517.115L249.396 524.42C251.586 525.335 251.52 525.988 249.2 526.381C243.644 527.394 237.369 526.92 230.375 524.959C190.372 521.135 162.037 503.879 159.586 462.112C158.801 400.539 197.432 343.525 259.74 332.446C319.548 321.857 361.168 376.174 359.354 432.649Z"></path>
<path fill="#836B44" d="M674.131 346.761C672.693 346.695 672.774 347.79 674.376 350.045C672.905 349.849 671.533 350.176 670.258 351.026C669.081 351.81 667.79 352.072 666.385 351.81C611.283 342.3 562.015 381.224 589.909 439.316L556.721 457.553C549.923 428.041 553.142 398.692 566.378 369.507C568.274 365.324 571.787 361.533 576.918 358.134C579.565 356.402 580.317 357.023 579.173 359.997L577.457 364.507C577.283 364.961 577.283 365.469 577.458 365.928C577.633 366.388 577.969 366.767 578.401 366.989C578.833 367.211 579.329 367.26 579.789 367.128C580.25 366.995 580.643 366.689 580.889 366.272C584.68 360.52 589.86 357.889 596.429 358.379C598.26 358.542 599.975 358.134 601.577 357.153C624.258 343.362 648.443 339.897 674.131 346.761Z"></path>
<path fill="#AAA1A1" d="M674.131 346.76C709.133 345.779 735.655 398.332 742.224 427.402C740.099 427.043 739.07 427.778 739.135 429.609C732.828 404.411 720.311 382.122 701.584 362.741C700.407 361.532 698.985 361.042 697.319 361.271L694.917 361.614C693.315 359.947 692.024 357.823 691.044 355.241C690.455 353.705 689.344 352.855 687.71 352.692C685.455 352.463 683.118 353.263 680.7 355.094C680.438 352.479 678.331 350.796 674.376 350.044C672.775 347.789 672.693 346.694 674.131 346.76Z"></path>
<path fill="#4E423D" d="M42.2745 349.211L29.5775 392.352L20.3612 432.796C20.0017 434.332 19.348 435.737 18.4003 437.012L14.9196 441.669C11.2429 428.874 24.7242 375.145 32.0287 363.085C32.813 361.778 33.1889 360.356 33.1562 358.82C33.0908 353.46 36.1302 350.257 42.2745 349.211Z"></path>
<path fill="#2E1E1B" d="M674.376 350.045C678.331 350.796 680.439 352.479 680.7 355.094L661.777 367.35C660.307 368.297 659.653 369.637 659.816 371.37C660.732 382.351 661.973 390.423 663.542 395.587C670.847 419.902 696.535 410.98 705.016 391.518C707.042 391.812 707.924 392.825 707.663 394.557C701.192 410.882 699.623 431.129 692.417 444.316C669.327 486.524 613.196 479.367 589.91 439.315C562.016 381.223 611.284 342.299 666.386 351.809C667.791 352.071 669.082 351.809 670.258 351.025C671.533 350.175 672.906 349.849 674.376 350.045Z"></path>
<path fill="#4E423D" d="M302.292 359.751C286.441 360.307 271.865 363.265 258.564 368.624C257.093 369.213 255.606 369.278 254.102 368.82C248.841 367.186 242.909 366.745 236.307 367.497C257.746 350.404 279.741 347.822 302.292 359.751Z"></path>
<path fill="#FEFEFE" d="M694.917 361.614C702.221 367.791 714.477 382.841 705.015 391.518C696.535 410.98 670.846 419.902 663.542 395.587C661.973 390.423 660.731 382.351 659.816 371.37C659.653 369.638 660.307 368.298 661.777 367.35L680.7 355.094C683.119 353.264 685.455 352.463 687.71 352.692C689.344 352.855 690.456 353.705 691.044 355.241C692.024 357.823 693.315 359.947 694.917 361.614Z"></path>
<path fill="#836B44" d="M302.292 359.751C332.245 375.781 360.237 408.088 351.315 444.561C351.348 434.56 346.347 430.213 336.314 431.521C334.876 431.717 333.896 431.145 333.373 429.805C331.216 424.379 329.157 418.922 327.196 413.431C325.791 409.444 324.14 408.561 322.245 410.784C318.453 389.9 305.152 375.373 282.34 367.203C280.804 366.68 279.251 366.663 277.683 367.153C242.517 378.396 228.513 401.976 235.67 437.894C228.186 441.358 220.064 443.074 211.306 443.041C209.606 443.041 208.413 443.809 207.727 445.345C207.237 446.358 207.09 447.714 207.286 449.414C204.508 424.576 211.714 402.76 228.905 383.968C229.755 383.021 229.558 382.383 228.317 382.056C227.924 381.926 227.401 381.877 226.748 381.909L228.268 378.821C228.987 377.416 228.692 376.272 227.385 375.389L225.522 374.115L236.307 367.497C242.909 366.745 248.841 367.186 254.103 368.82C255.606 369.278 257.093 369.212 258.564 368.624C271.865 363.264 286.441 360.307 302.292 359.751Z"></path>
<path fill="#4C3626" d="M694.917 361.614L697.319 361.27C698.985 361.042 700.407 361.532 701.584 362.741C720.31 382.121 732.828 404.411 739.135 429.608C741.832 445.59 748.45 466.719 738.89 480.984C725.817 500.365 708.921 514.565 688.2 523.585C643.737 537.263 592.459 525.154 565.839 484.955C566.362 485.282 566.673 484.449 566.771 482.455C580.17 503.862 599.305 517.065 624.176 522.066C672.578 531.838 709.542 516.412 735.066 475.788C735.891 474.456 736.221 472.877 735.998 471.327C734.086 458.14 735.949 446.766 730.409 434.217C724.363 420.49 719.706 406.273 716.438 391.567C716.045 389.802 714.951 389.083 713.153 389.41C710.898 389.802 709.068 391.517 707.663 394.557C707.924 392.825 707.042 391.812 705.015 391.517C714.477 382.84 702.221 367.791 694.917 361.614Z"></path>
<path fill="#2E1E1B" d="M322.244 410.784C328.568 471.425 262.583 501.918 235.67 437.894C228.512 401.976 242.517 378.396 277.682 367.154C279.251 366.664 280.804 366.68 282.34 367.203C305.152 375.373 318.453 389.9 322.244 410.784ZM263.809 413.922C264.798 414.932 265.994 415.717 267.315 416.222C268.636 416.727 270.05 416.94 271.461 416.847C272.872 416.754 274.246 416.356 275.49 415.682C276.733 415.008 277.815 414.073 278.663 412.941L296.899 388.675C298.207 386.976 298.239 385.227 296.997 383.43C277.633 355.29 239.346 389.018 263.809 413.922Z"></path>
<path fill="#FDFBF5" d="M263.809 413.921C239.346 389.018 277.633 355.29 296.997 383.429C298.239 385.227 298.206 386.975 296.899 388.675L278.663 412.941C277.815 414.073 276.732 415.008 275.489 415.682C274.246 416.356 272.872 416.753 271.461 416.846C270.05 416.94 268.636 416.726 267.315 416.221C265.994 415.717 264.798 414.932 263.809 413.921Z"></path>
<path fill="#CEC3B9" d="M558.731 373.232L553.927 393.185C539.547 395.93 535.249 395.391 541.034 391.567C545.217 382.285 551.116 376.174 558.731 373.232Z"></path>
<path fill="#BDA194" d="M225.522 374.116L227.385 375.39C228.692 376.273 228.986 377.417 228.267 378.822L226.748 381.911C211.191 396.585 202.432 415.001 200.471 437.159C197.399 437.519 194.425 442.225 191.549 451.278C191.462 451.589 191.265 451.858 190.994 452.034C190.722 452.21 190.396 452.28 190.076 452.232C189.757 452.183 189.466 452.02 189.259 451.772C189.051 451.524 188.942 451.209 188.951 450.886C188.951 450.428 188.951 449.971 188.951 449.513C188.936 447.71 188.738 446.035 188.385 444.731C188.033 443.426 187.544 442.56 186.99 442.258C186.402 441.898 185.062 441.849 182.97 442.111C187.742 413.775 201.926 391.11 225.522 374.116Z"></path>
<path fill="#CEC3B9" d="M909.196 378.233C935.08 404.574 948.218 438.269 948.611 479.318C940.081 480.593 934.966 477.096 933.266 468.827C930.129 453.434 926.485 441.505 922.334 433.04L909.196 378.233Z"></path>
<path fill="#9E9149" d="M566.771 482.456L556.721 457.552L589.91 439.315C613.195 479.367 669.327 486.525 692.416 444.316C699.623 431.129 701.192 410.882 707.663 394.557C709.068 391.518 710.898 389.802 713.153 389.41C714.951 389.083 716.046 389.802 716.438 391.567C719.706 406.274 724.363 420.491 730.409 434.217C735.949 446.767 734.086 458.14 735.998 471.328C736.221 472.878 735.891 474.457 735.066 475.788C709.542 516.412 672.579 531.838 624.177 522.066C599.306 517.066 580.17 503.862 566.771 482.456Z"></path>
<path fill="#715337" d="M26.8813 460.591C23.7111 462.846 22.6163 464.677 23.5967 466.082C19.8383 462.258 16.4231 460.461 13.3509 460.69C12.0764 460.788 11.39 460.215 11.292 458.974C11.1286 456.947 11.7168 455.607 13.0568 454.954L23.5967 438.874C24.1095 438.072 24.8366 437.413 25.7047 436.962C41.7843 428.106 54.5466 415.931 63.9916 400.44C64.6126 399.427 65.0211 399.46 65.2172 400.538C65.2826 400.767 65.2989 400.996 65.2662 401.225C65.2336 401.421 65.1518 401.633 65.0211 401.862C52.4386 421.373 39.7253 440.95 26.8813 460.591Z"></path>
<path fill="#FDFBF5" d="M463.725 463.975C431.892 460.87 407.806 468.321 391.465 486.329C385.549 486.068 380.712 488.323 376.954 493.094C375.843 494.499 374.437 494.908 372.738 494.32L339.353 482.701C349.289 467.047 355.956 450.362 359.355 432.649L386.268 423.628C386.724 423.472 387.134 423.204 387.459 422.849C387.785 422.494 388.017 422.062 388.134 421.595C388.251 421.127 388.249 420.638 388.129 420.171C388.008 419.704 387.773 419.275 387.445 418.922C383.883 415.262 379.405 414.085 374.013 415.393C373.59 415.521 373.135 415.491 372.734 415.308C372.332 415.125 372.011 414.801 371.83 414.398C371.65 413.995 371.623 413.54 371.754 413.119C371.885 412.697 372.165 412.338 372.542 412.108C376.758 409.199 381.007 409.314 385.288 412.451C386.301 413.203 387.265 413.154 388.18 412.304C400.142 401.421 415.78 398.071 435.095 402.255C443.07 403.954 448.037 407.582 449.998 413.138C450.456 414.445 451.354 415.18 452.694 415.344C459.983 416.259 466.486 419.38 472.206 424.707C472.499 424.973 472.692 425.332 472.751 425.723C472.81 426.114 472.732 426.514 472.53 426.855C472.328 427.195 472.014 427.455 471.643 427.591C471.271 427.727 470.864 427.73 470.49 427.6C467.581 426.652 465.359 426.178 463.823 426.178C463.693 426.152 463.558 426.178 463.447 426.252C463.337 426.325 463.26 426.44 463.234 426.57C463.208 426.7 463.235 426.835 463.309 426.945C463.382 427.056 463.497 427.132 463.627 427.158L491.275 436.914C492.615 437.404 492.763 438.123 491.717 439.071C487.599 442.829 482.827 444.709 477.402 444.709C476.556 444.708 475.724 444.934 474.992 445.365C474.259 445.796 473.653 446.415 473.235 447.16L463.725 463.975Z"></path>
<path fill="#9E9149" d="M351.315 444.561C342.54 488.29 305.625 525.057 259.348 515.35C228.414 508.879 203.658 484.074 207.285 449.414C207.089 447.715 207.236 446.359 207.727 445.346C208.413 443.81 209.606 443.041 211.305 443.041C220.064 443.074 228.186 441.358 235.67 437.894C262.583 501.918 328.568 471.426 322.244 410.784C324.14 408.562 325.79 409.445 327.196 413.432C329.156 418.922 331.215 424.38 333.372 429.805C333.895 431.145 334.876 431.717 336.314 431.521C346.347 430.214 351.347 434.561 351.315 444.561Z"></path>
<path fill="#FCECDC" d="M742.224 427.403C748.205 453.091 744.577 482.995 756.833 507.556L755.656 510.252C754.741 512.344 755.428 513.373 757.715 513.34L761.343 513.291C760.395 514.37 758.336 514.746 755.166 514.419C754.313 514.34 753.516 513.962 752.914 513.352C752.313 512.742 751.947 511.939 751.882 511.085C751.489 506.738 749.659 503.666 746.391 501.869C744.953 501.084 743.548 501.15 742.175 502.065L715.458 519.958C713.954 520.971 713.366 522.36 713.693 524.125C714.118 526.446 713.497 528.276 711.83 529.616C710.588 530.596 709.853 531.871 709.624 533.44C702.27 580.306 757.421 600.552 795.169 599.228C796.999 599.163 797.522 598.297 796.738 596.63C784.874 571.204 779.547 544.421 780.756 516.282C780.821 514.876 780.2 513.912 778.893 513.389C773.501 511.265 768.582 510.709 764.137 511.723L776.295 485.74C776.763 484.76 777.529 483.952 778.484 483.433C779.439 482.914 780.534 482.711 781.611 482.853C782.689 482.994 783.694 483.473 784.482 484.221C785.271 484.968 785.803 485.947 786.002 487.015C787.243 493.748 791.182 495.447 797.816 492.113C778.55 534.126 792.276 585.943 814.729 624.622C799.14 619.034 783.975 618.396 769.236 622.711C767.732 623.168 766.196 623.25 764.628 622.956C753.009 620.701 742.273 622.073 732.272 615.798C723.154 610.062 696.535 593.738 695.309 579.668C695.178 578.099 694.688 576.661 693.838 575.354C684.197 560.811 682.318 543.555 688.201 523.586C708.921 514.566 725.818 500.365 738.89 480.985C748.45 466.719 741.832 445.591 739.136 429.609C739.07 427.779 740.1 427.043 742.224 427.403Z"></path>
<path fill="#CEC3B9" d="M911.892 459.121C913.755 459.415 913.984 460.445 912.578 462.21C911.238 463.909 909.539 464.579 907.48 464.219C894.178 456.31 883.132 446.114 874.34 433.629C874.061 433.213 873.939 432.712 873.995 432.214C874.052 431.717 874.284 431.256 874.65 430.913C875.015 430.571 875.491 430.37 875.991 430.347C876.492 430.324 876.984 430.479 877.38 430.786L911.892 459.121Z"></path>
<path fill="#E1DBD1" d="M922.334 433.041C926.484 441.506 930.129 453.435 933.266 468.828C934.965 477.096 940.08 480.594 948.61 479.319L953.66 517.018C953.707 517.294 953.653 517.579 953.508 517.82C953.364 518.061 953.138 518.242 952.872 518.331C952.605 518.419 952.316 518.41 952.056 518.304C951.796 518.198 951.582 518.002 951.454 517.753C939.949 497.098 924.736 480.561 905.813 468.142C906.794 466.638 907.349 465.331 907.48 464.22C909.539 464.579 911.238 463.909 912.578 462.21C913.984 460.445 913.755 459.416 911.892 459.122C919.801 456.017 923.282 447.323 922.334 433.041Z"></path>
<path fill="#AAA1A1" d="M493.824 436.374C493.696 436.298 493.597 436.181 493.541 436.043C493.485 435.905 493.476 435.752 493.515 435.608C493.554 435.464 493.638 435.336 493.756 435.244C493.874 435.153 494.018 435.102 494.168 435.1C497.959 435.198 501.472 436.799 504.707 439.904C504.876 440.028 504.989 440.213 505.022 440.42C505.054 440.627 505.003 440.838 504.879 441.007C504.756 441.176 504.57 441.289 504.363 441.321C504.156 441.354 503.945 441.302 503.776 441.179L493.824 436.374Z"></path>
<path fill="#E1DBD1" d="M200.471 437.158C197.301 469.448 208.642 493.813 234.493 510.252C232.206 510.154 231.356 512.441 231.944 517.115C182.725 501.722 182.186 491.476 182.97 442.11C185.062 441.848 186.402 441.898 186.99 442.257C187.544 442.559 188.033 443.426 188.386 444.73C188.738 446.034 188.936 447.71 188.951 449.512C188.951 449.97 188.951 450.428 188.951 450.885C188.942 451.208 189.051 451.523 189.259 451.771C189.466 452.019 189.757 452.183 190.077 452.231C190.396 452.279 190.722 452.209 190.994 452.033C191.265 451.857 191.463 451.588 191.549 451.277C194.425 442.224 197.399 437.518 200.471 437.158Z"></path>
<path fill="#CEC3B9" d="M26.8813 460.592C30.3782 469.775 28.6461 478.959 21.6849 488.142C14.3968 499.581 14.0373 512.409 20.6063 526.625C26.6362 552.068 41.9313 574.031 53.8929 596.826C58.2723 605.127 64.6616 614.654 73.0609 625.407C80.7411 635.179 87.7514 645.882 94.0917 657.517C74.2538 645.326 58.7462 631.24 47.569 615.259C48.7782 605.748 43.0915 596.025 30.509 586.09C10.2135 550.107 -4.59144 502.653 23.5967 466.082C22.6163 464.677 23.7111 462.847 26.8813 460.592Z"></path>
<path fill="#FCECDC" d="M159.586 462.111C162.037 503.879 190.372 521.135 230.375 524.959C229.819 531.92 235.604 535.27 247.729 535.008C248.554 534.987 249.375 535.136 250.14 535.445C250.906 535.755 251.599 536.218 252.178 536.806C252.758 537.394 253.21 538.095 253.507 538.865C253.804 539.635 253.94 540.458 253.906 541.283C252.239 583.541 231.355 604.719 192.823 616.092C167.871 623.446 147.281 625.897 121.348 618.69C121.25 618.65 121.141 618.642 121.038 618.669C120.935 618.695 120.844 618.754 120.778 618.837C120.711 618.92 120.674 619.022 120.67 619.128C120.667 619.235 120.699 619.339 120.76 619.426L121.446 620.749C121.471 620.772 121.485 620.8 121.487 620.83C121.488 620.861 121.478 620.891 121.457 620.918C121.435 620.945 121.404 620.966 121.367 620.98C121.33 620.994 121.289 620.999 121.25 620.994C116.936 619.85 113.145 617.726 109.877 614.621C108.569 613.38 107.033 612.579 105.269 612.219C76.443 606.19 58.4026 588.345 51.2942 559.275C47.4214 543.244 43.9898 518.831 53.5983 505.006C60.3145 495.349 73.0114 494.515 81.0512 482.897C81.9662 481.557 81.7701 480.413 80.4629 479.465L78.4039 477.945C76.9715 476.956 75.9684 475.46 75.5977 473.759C75.2271 472.058 75.5166 470.28 76.4076 468.785C77.2986 467.289 78.7246 466.188 80.3968 465.705C82.069 465.221 83.8625 465.391 85.4142 466.18C95.0554 470.69 105.497 470.429 116.74 465.396C125.303 461.506 139.585 460.412 159.586 462.111ZM112.377 579.913C150.075 603.052 205.471 598.297 228.365 556.725C228.986 555.614 229.313 554.421 229.346 553.147L229.836 535.744C229.834 535.395 229.714 535.05 229.493 534.763C227.564 532.443 226.143 532.279 225.228 534.273C224.476 535.907 223.692 535.923 222.875 534.322C218.315 525.204 211.452 527.704 204.442 525.204C195.879 522.164 187.529 518.536 179.391 514.32C166.988 507.898 161.596 494.908 151.987 484.515C150.745 483.175 149.307 482.929 147.673 483.779C139.013 488.387 133.931 495.594 132.427 505.398C132.166 507.196 131.104 508.046 129.241 507.947C118.848 507.327 108.733 508.765 98.8955 512.262C97.5124 512.757 96.2561 513.552 95.2167 514.59C94.1772 515.628 93.3805 516.883 92.8838 518.266C92.387 519.648 92.2025 521.124 92.3435 522.586C92.4844 524.048 92.9474 525.461 93.6991 526.723C103.504 543.244 75.2664 559.912 95.1697 570.354C102.294 574.08 108.03 577.266 112.377 579.913Z"></path>
<path fill="#D57784" d="M463.725 463.974C475.49 463.876 488.007 466.098 501.276 470.641C542.161 484.613 502.404 528.881 482.942 538.734C468.823 545.924 453.904 547.199 438.184 542.558C412.398 534.976 396.825 516.233 391.465 486.329C407.806 468.321 431.892 460.869 463.725 463.974ZM505.247 488.241C505.182 488.731 505.116 489.286 505.051 489.907C504.983 490.399 505.072 490.899 505.305 491.337C505.539 491.774 505.904 492.127 506.35 492.345C506.796 492.562 507.299 492.633 507.788 492.547C508.276 492.462 508.726 492.224 509.071 491.868C512.404 488.371 513.385 485.299 512.012 482.652C511.293 481.279 509.627 480.07 507.012 479.024C472.941 465.592 430.879 462.602 399.014 484.466C398.441 484.88 398.025 485.476 397.833 486.157C397.641 486.838 397.684 487.564 397.957 488.217C398.23 488.87 398.715 489.412 399.334 489.754C399.953 490.096 400.67 490.22 401.367 490.103C416.303 487.326 430.994 487.995 445.439 492.113C446.256 492.342 446.844 492.048 447.204 491.231C447.335 490.871 447.465 490.479 447.596 490.054C447.988 488.584 448.92 487.685 450.39 487.358C468.333 483.371 486.39 483.355 504.561 487.309C505.051 487.407 505.28 487.718 505.247 488.241Z"></path>
<path fill="#FEFEFE" d="M828.798 543.93L829.092 549.421C829.19 550.892 828.504 551.561 827.033 551.431L817.131 550.646C816.614 550.604 816.111 550.458 815.653 550.215C815.195 549.973 814.79 549.64 814.465 549.236C814.139 548.833 813.899 548.367 813.759 547.868C813.619 547.369 813.582 546.846 813.65 546.332C815.938 529.991 811.967 524.811 801.738 530.792C801.885 469.808 867.772 448.09 912.775 481.083C912.98 481.241 913.118 481.472 913.161 481.728C913.204 481.984 913.149 482.246 913.006 482.463C912.864 482.68 912.644 482.836 912.392 482.898C912.14 482.96 911.874 482.924 911.647 482.799L905.47 479.171C904.956 478.882 904.365 478.731 903.754 478.73C865.075 479.073 838.26 508.683 828.798 543.93Z"></path>
<path fill="#FBA2B7" d="M504.561 487.31C486.389 483.355 468.333 483.371 450.39 487.358C448.92 487.685 447.988 488.584 447.596 490.055C447.465 490.48 447.335 490.872 447.204 491.231C446.844 492.048 446.256 492.342 445.439 492.114C430.994 487.996 416.303 487.326 401.367 490.104C400.669 490.22 399.953 490.097 399.334 489.754C398.715 489.412 398.229 488.87 397.957 488.217C397.684 487.564 397.641 486.839 397.832 486.158C398.024 485.477 398.441 484.881 399.014 484.466C430.879 462.602 472.941 465.592 507.012 479.025C509.626 480.07 511.293 481.28 512.012 482.652C513.385 485.3 512.404 488.372 509.071 491.869C508.725 492.225 508.276 492.462 507.788 492.548C507.299 492.633 506.796 492.562 506.35 492.345C505.904 492.128 505.539 491.775 505.305 491.337C505.072 490.899 504.983 490.399 505.051 489.908C505.116 489.287 505.182 488.731 505.247 488.241C505.28 487.718 505.051 487.408 504.561 487.31Z"></path>
<path fill="#FCD9C8" d="M228.365 556.726C205.472 598.297 150.076 603.052 112.377 579.913C108.03 577.266 102.295 574.08 95.17 570.354C75.2667 559.912 103.504 543.244 93.6993 526.724C92.9476 525.461 92.4847 524.049 92.3437 522.586C92.2028 521.124 92.3873 519.649 92.884 518.266C93.3808 516.884 94.1775 515.628 95.2169 514.59C96.2563 513.552 97.5127 512.757 98.8958 512.262C108.733 508.765 118.848 507.327 129.241 507.948C131.104 508.046 132.166 507.196 132.427 505.399C133.931 495.594 139.013 488.388 147.674 483.779C149.308 482.93 150.746 483.175 151.988 484.515C161.596 494.908 166.989 507.899 179.391 514.321C187.529 518.537 195.879 522.165 204.442 525.204C211.452 527.704 218.316 525.204 222.875 534.322C223.692 535.924 224.476 535.907 225.228 534.273C226.143 532.279 227.565 532.443 229.493 534.763C229.714 535.05 229.835 535.395 229.836 535.744L229.346 553.147C229.313 554.422 228.986 555.614 228.365 556.726Z"></path>
<path fill="#FEFEFE" d="M921.452 600.551L870.713 565.99C869.52 565.184 868.53 564.11 867.821 562.852C863.311 555.107 856.807 549.731 848.31 546.724C846.904 546.201 845.515 546.266 844.143 546.92C838.325 549.731 833.864 548.456 830.759 543.096C842.476 514.957 871.301 482.112 904.343 486.916C929.933 490.593 945.718 520.889 958.709 540.939C959.592 542.312 959.804 543.766 959.347 545.302C952.843 567.134 940.211 585.55 921.452 600.551Z"></path>
<path fill="#FBF1E1" d="M21.6845 488.142C26.4888 500.3 26.1293 513.127 20.606 526.625C14.0369 512.408 14.3964 499.581 21.6845 488.142Z"></path>
<path fill="#FCD9C8" d="M761.343 513.292C761.016 512.475 761.947 511.952 764.137 511.723C768.582 510.71 773.5 511.265 778.893 513.39C780.2 513.913 780.821 514.877 780.756 516.282C779.546 544.421 784.874 571.204 796.737 596.631C797.521 598.297 796.999 599.163 795.168 599.229C757.421 600.552 702.27 580.306 709.623 533.44C709.852 531.871 710.587 530.597 711.829 529.616C713.496 528.276 714.117 526.446 713.692 524.126C713.365 522.361 713.954 520.972 715.457 519.959L742.175 502.065C743.547 501.15 744.953 501.085 746.391 501.869C749.659 503.667 751.489 506.739 751.881 511.086C751.947 511.94 752.313 512.743 752.914 513.353C753.515 513.963 754.313 514.341 755.166 514.419C758.336 514.746 760.395 514.37 761.343 513.292Z"></path>
<path fill="#FDFAEE" d="M828.798 543.931C830.105 543.082 830.759 542.804 830.759 543.098C833.864 548.458 838.325 549.732 844.142 546.922C845.515 546.268 846.904 546.203 848.309 546.726C856.807 549.732 863.31 555.108 867.821 562.854C868.529 564.111 869.52 565.186 870.713 565.992L921.452 600.553L920.471 603.543C920.177 604.458 920.389 604.605 921.108 603.984C930.586 596.043 940.064 588.052 949.542 580.012C955.424 574.979 960.18 566.416 963.807 554.324C964.428 552.232 965.245 552.151 966.259 554.079C1027.1 672.616 977.877 779.633 876.252 851.06C906.712 818.77 920.569 783.915 917.824 746.494C917.562 742.834 914.327 736.117 908.117 726.345C907.17 724.809 906.794 723.159 906.99 721.394L908.559 706.344C908.61 705.978 908.548 705.604 908.381 705.274C908.215 704.944 907.951 704.672 907.625 704.496C907.3 704.32 906.928 704.248 906.561 704.289C906.193 704.33 905.847 704.483 905.568 704.726L895.273 713.207C893.508 714.678 892.021 714.433 890.812 712.472L871.938 681.686C863.506 655.05 849.437 635.735 829.73 623.74C810.807 597.366 801.476 566.384 801.738 530.793C811.967 524.812 815.938 529.992 813.65 546.333C813.582 546.847 813.619 547.37 813.759 547.869C813.899 548.368 814.139 548.834 814.465 549.237C814.79 549.641 815.195 549.974 815.653 550.216C816.111 550.459 816.614 550.605 817.131 550.647L827.033 551.432C828.504 551.562 829.19 550.892 829.092 549.422L828.798 543.931Z"></path>
<path fill="#2E1E1B" d="M474.411 590.012C466.829 582.691 460.734 573.099 456.126 561.235C455.935 560.757 455.605 560.348 455.177 560.062C454.75 559.775 454.246 559.625 453.731 559.63C453.217 559.635 452.716 559.796 452.295 560.091C451.873 560.387 451.551 560.803 451.37 561.284L443.723 581.776C443.207 583.192 442.348 584.456 441.223 585.453C436.843 589.309 434.654 594.391 434.654 600.699L404.75 618.347C404.483 618.516 404.16 618.572 403.852 618.503C403.544 618.434 403.276 618.246 403.107 617.979C402.938 617.713 402.882 617.39 402.951 617.082C403.02 616.774 403.208 616.506 403.475 616.337C426.777 601.173 441.729 579.782 448.331 552.166C448.576 551.119 449.145 550.176 449.958 549.472C450.771 548.768 451.786 548.339 452.857 548.246C453.929 548.154 455.002 548.402 455.924 548.957C456.845 549.511 457.568 550.343 457.989 551.333L474.411 590.012Z"></path>
<path fill="#4E423D" d="M474.411 590.011L504.953 621.092C506.358 622.53 506.047 623.151 504.021 622.955C488.628 621.435 469.117 600.208 457.351 589.914C456.011 588.77 454.59 588.655 453.086 589.57L434.654 600.699C434.654 594.391 436.843 589.309 441.223 585.452C442.348 584.456 443.207 583.192 443.723 581.776L451.371 561.284C451.551 560.802 451.873 560.386 452.295 560.091C452.716 559.796 453.217 559.635 453.731 559.63C454.246 559.624 454.75 559.775 455.177 560.062C455.605 560.348 455.935 560.757 456.126 561.235C460.734 573.099 466.829 582.691 474.411 590.011Z"></path>
<path fill="#BDA194" d="M30.5089 586.09C43.0914 596.025 48.7781 605.748 47.5689 615.258C37.993 605.977 32.3064 596.254 30.5089 586.09Z"></path>
<path fill="#412D27" d="M43.3035 628.642L55.4122 647.565C51.523 653.971 53.7781 661.128 62.1774 669.037C62.5959 669.456 63.1162 669.775 63.6971 669.968C68.6974 671.668 73.2239 674.691 77.2764 679.038L120.613 724.188L172.969 761.445C173.189 761.606 173.352 761.832 173.434 762.091C173.516 762.35 173.513 762.629 173.425 762.886C173.337 763.143 173.17 763.366 172.947 763.521C172.724 763.677 172.457 763.756 172.185 763.749C169.701 763.684 167.756 762.36 166.351 759.779C130.401 746.248 98.6341 727.979 71.0505 704.971L30.6556 631.584C30.3194 630.963 30.1483 630.267 30.1587 629.561C30.169 628.855 30.3606 628.164 30.715 627.554C31.0694 626.944 31.5746 626.435 32.1823 626.076C32.79 625.717 33.4797 625.52 34.1853 625.505C36.9632 625.472 40.0027 626.518 43.3035 628.642Z"></path>
<path fill="#BDB3B0" d="M871.939 681.685C865.419 692.421 866.644 704.824 862.869 715.021C858 728.224 852.509 741.183 846.398 753.896C844.469 757.916 842.509 759.713 840.515 759.289C839.551 759.084 838.555 759.084 837.59 759.288C836.626 759.492 835.715 759.895 834.916 760.472C834.117 761.049 833.448 761.788 832.951 762.639C832.455 763.491 832.143 764.437 832.034 765.416C828.112 801.791 824.533 859.688 790.168 879.101C788.763 879.918 787.995 881.127 787.864 882.728C787.243 889.33 787.995 894.755 790.119 899.004L749.038 913.907C747.306 914.528 746.947 914.07 747.96 912.534C775.935 869.623 790.659 822.348 792.129 770.711C792.195 769.012 792.799 767.557 793.943 766.348C821.837 737.032 863.654 698.059 841.79 652.909C837.476 644.019 833.456 634.296 829.73 623.74C849.437 635.734 863.507 655.049 871.939 681.685Z"></path>
<path fill="#CEC3B9" d="M43.3038 628.642L47.1766 628.152C57.7165 645.8 87.5715 661.389 101.788 669.723C96.6571 675.312 95.791 682.06 99.1899 689.969C99.8318 691.413 100.867 692.653 102.18 693.548C113.063 701 119.208 711.213 120.613 724.188L77.2767 679.037L55.4125 647.565L43.3038 628.642Z"></path>
<path fill="#715337" d="M55.4125 647.564L77.2767 679.037C73.2242 674.69 68.6977 671.667 63.6974 669.968C63.1165 669.774 62.5962 669.455 62.1777 669.037C53.7784 661.127 51.5233 653.97 55.4125 647.564Z"></path>
<path fill="#CEC3B9" d="M831.837 655.556C866.006 708.844 757.911 790.957 720.212 818.998C719.885 819.227 719.983 819.603 720.506 820.126C720.833 820.452 721.176 820.485 721.536 820.224L781.54 775.907C783.076 774.796 783.615 775.155 783.158 776.986C778.582 795.712 773.762 814.292 768.696 832.725C753.793 886.944 708.545 965.92 643.589 967.244C641.628 967.276 641.302 966.557 642.609 965.087C648.394 958.714 656.826 949.007 650.698 940.183C649.586 938.614 648.966 938.794 648.835 940.722C647.364 964.793 621.088 966.999 602.116 967.391C597.835 967.489 597.72 966.819 601.773 965.381C614.846 960.707 621.823 950.51 622.706 934.79C622.738 933.843 622.199 933.124 621.088 932.633C619.846 932.078 619.127 932.47 618.931 933.81C615.793 956.017 597.263 967.587 576.918 954.547C575.644 953.73 574.81 952.602 574.418 951.164C571.771 942.144 572.049 933.32 575.251 924.692C575.807 923.123 575.251 922.404 573.585 922.535C572.473 922.633 571.493 922.943 570.643 923.466C560.741 929.153 566.77 948.762 572.702 955.282C572.895 955.471 573.008 955.722 573.02 955.987C573.031 956.251 572.94 956.512 572.765 956.718C572.589 956.924 572.34 957.062 572.067 957.104C571.793 957.147 571.513 957.091 571.281 956.949C554.073 945.87 543.141 932.781 545.151 911.014C547.7 883.104 562.097 865.799 588.34 859.099C599.681 856.223 599.534 855.455 587.899 856.795C573.487 858.462 561.264 865.407 551.23 877.63C551.022 877.875 550.733 878.035 550.415 878.082C550.098 878.13 549.774 878.06 549.504 877.886C549.234 877.712 549.037 877.446 548.948 877.137C548.86 876.829 548.887 876.498 549.024 876.208C557.129 859.573 568.797 846.157 584.027 835.96C584.582 835.601 584.876 835.159 584.909 834.637C584.942 833.525 584.484 833.248 583.536 833.803C548.436 853.461 540.641 874.1 536.033 912.779C535.962 913.355 535.69 913.885 535.267 914.273C534.843 914.66 534.297 914.878 533.729 914.887L426.271 916.113C424.975 916.125 423.708 915.724 422.651 914.967C421.595 914.209 420.802 913.135 420.388 911.897C410.24 880.522 374.993 868.56 342.589 853.657C364.878 841.729 390.173 835.83 418.476 835.96C485.49 836.254 560.348 830.323 622.755 811.939C700.946 788.898 789.776 745.562 824.729 667.223C825.677 665.066 825.383 662.746 823.847 660.262C822.866 658.693 823.307 657.925 825.17 657.958C828.112 658.056 830.334 657.255 831.837 655.556ZM540.494 869.541L541.818 868.266C541.999 868.091 542.112 867.857 542.139 867.607C542.165 867.356 542.104 867.104 541.964 866.894C541.824 866.685 541.615 866.53 541.374 866.459C541.132 866.387 540.873 866.402 540.641 866.501C514.463 877.434 467.793 874.345 439.213 873.365C439.035 873.358 438.858 873.389 438.692 873.455C438.525 873.521 438.374 873.621 438.246 873.749C438.117 873.877 438.016 874.031 437.946 874.201C437.876 874.37 437.84 874.553 437.84 874.737C437.84 875.195 437.84 875.669 437.84 876.159C437.873 877.728 438.69 878.512 440.291 878.512C471.829 878.61 503.269 877.221 534.611 874.345C537.03 874.116 538.697 872.973 539.612 870.914C539.84 870.391 540.135 869.933 540.494 869.541Z"></path>
<path fill="#CEC3B9" d="M871.939 681.684L890.812 712.471C892.022 714.432 893.509 714.677 895.274 713.206L905.568 704.725C905.847 704.482 906.193 704.329 906.561 704.288C906.929 704.247 907.3 704.319 907.626 704.495C907.951 704.671 908.215 704.942 908.382 705.273C908.549 705.603 908.61 705.977 908.559 706.343L906.99 721.393C906.794 723.158 907.17 724.808 908.118 726.344C914.327 736.116 917.563 742.832 917.824 746.493C920.569 783.914 906.712 818.769 876.253 851.059C854.225 871.06 825.514 887.042 790.119 899.003C787.995 894.754 787.243 889.329 787.864 882.727C787.995 881.126 788.763 879.917 790.168 879.1C824.533 859.687 828.112 801.791 832.034 765.416C832.143 764.436 832.455 763.49 832.951 762.638C833.448 761.787 834.117 761.049 834.916 760.471C835.715 759.894 836.626 759.491 837.59 759.287C838.554 759.083 839.551 759.083 840.515 759.288C842.509 759.713 844.469 757.915 846.398 753.895C852.509 741.182 858 728.223 862.869 715.02C866.644 704.823 865.419 692.42 871.939 681.684Z"></path>
<path fill="#CEC3B9" d="M71.0507 704.97C98.6343 727.978 130.401 746.247 166.351 759.778C163.148 760.758 161.514 761.314 161.449 761.445C160.788 762.395 160.418 763.521 160.385 764.681C160.351 765.841 160.657 766.981 161.263 767.955C161.868 768.929 162.746 769.693 163.784 770.149C164.821 770.605 165.971 770.732 167.087 770.514C170.453 769.795 173.1 771.135 175.028 774.534C175.682 775.71 175.633 776.838 174.881 777.916C174.228 778.864 174.113 779.943 174.538 781.152C174.832 782.067 175.421 782.721 176.303 783.113C195.879 791.806 214.475 802.951 232.091 816.546C166.351 802.085 112.328 752.277 66.4915 708.304C68.3217 708.173 69.8414 707.062 71.0507 704.97Z"></path>
<path fill="#FBF1E1" d="M380.875 880.228C367.574 878.921 352.557 874.754 335.823 867.727C330.692 865.603 327.506 866.649 326.264 870.865L293.713 863.56C293.326 863.475 292.926 863.473 292.539 863.557C292.152 863.641 291.788 863.807 291.471 864.044C291.155 864.282 290.893 864.585 290.705 864.933C290.516 865.281 290.405 865.665 290.379 866.06C289.791 874.427 285.428 880.114 277.29 883.12C276.895 883.267 276.539 883.502 276.249 883.809C275.959 884.115 275.742 884.485 275.615 884.891C275.487 885.296 275.453 885.727 275.514 886.15C275.575 886.574 275.729 886.979 275.966 887.336L303.125 927.192L311.214 950.184C311.867 952.014 311.23 953.011 309.302 953.174C274.692 955.723 220.57 860.717 209.736 832.921C209.096 831.29 208.005 829.892 206.599 828.901L194.735 820.175C194.18 819.783 193.918 819.244 193.951 818.557C193.951 818.1 193.951 817.642 193.951 817.184C193.951 816.76 194.114 816.662 194.441 816.89C205.52 824.767 219.361 830.829 235.964 835.078C296.801 850.667 345.579 857.775 380.875 880.228Z"></path>
<path fill="#BDB3B0" d="M196.991 846.304C230.866 910.328 281.506 979.646 361.169 962.586C384.258 957.635 400.191 954.35 415.829 939.447C416.726 938.584 417.356 937.477 417.643 936.261L419.898 926.701C420.356 924.806 421.565 923.858 423.526 923.858L533.631 923.368C534.404 923.369 535.158 923.605 535.789 924.043C536.42 924.481 536.899 925.101 537.161 925.819C553.731 972.293 601.773 977.587 645.894 979.107C654.767 987.49 668.689 981.754 673.003 989.745C673.755 991.118 674.67 992.359 675.749 993.471L691.73 1010.09C544.596 1019.01 397.919 1016.41 251.7 1002.29C214.492 998.667 -0.865918 972.587 4.42856 919.005C8.69356 875.865 162.577 850.226 196.991 846.304Z"></path>
<path fill="#FDFBF5" d="M326.264 870.865C357.868 876.126 385.01 889.787 407.691 911.848C409.064 913.188 409.293 914.707 408.378 916.407C407.005 918.956 404.783 920.492 401.711 921.015C399.488 921.44 399.145 922.469 400.681 924.103C401.498 924.953 402.43 925.264 403.475 925.035C403.809 924.971 404.153 924.99 404.478 925.092C404.802 925.193 405.096 925.373 405.334 925.616C405.572 925.858 405.746 926.156 405.841 926.482C405.936 926.809 405.948 927.154 405.877 927.486C405.714 928.303 405.305 929.169 404.652 930.084C399.031 930.869 396.776 934.938 397.887 942.291C393.605 946.474 387.412 948.958 379.307 949.742C376.022 939.006 377.885 928.123 364.698 922.388C357.672 916.145 349.076 912.354 338.912 911.014C337.441 910.851 336.788 911.504 336.951 912.975C337.539 918.564 339.206 923.384 341.952 927.437L349.06 953.223C349.485 954.792 348.929 955.821 347.393 956.312C342.654 957.88 338.013 958.24 333.471 957.39C335.53 953.435 335.464 950.2 333.274 947.683C332.098 946.343 331.363 946.54 331.068 948.272C330.447 951.769 328.797 953.582 326.117 953.713L303.125 927.192L275.967 887.336C275.73 886.979 275.575 886.574 275.514 886.15C275.453 885.727 275.488 885.296 275.615 884.89C275.742 884.485 275.959 884.115 276.249 883.809C276.539 883.502 276.895 883.267 277.29 883.12C285.428 880.114 289.791 874.427 290.379 866.06C290.405 865.665 290.516 865.281 290.705 864.933C290.893 864.585 291.155 864.282 291.472 864.044C291.788 863.807 292.152 863.64 292.539 863.557C292.926 863.473 293.327 863.475 293.713 863.56L326.264 870.865Z"></path>
<path fill="#BDA194" d="M539.612 870.914C538.697 872.973 537.03 874.116 534.612 874.345C503.27 877.221 471.83 878.61 440.291 878.512C438.69 878.512 437.873 877.728 437.84 876.159C437.84 875.669 437.84 875.195 437.84 874.738C437.84 874.553 437.876 874.371 437.946 874.201C438.016 874.031 438.118 873.877 438.246 873.749C438.374 873.621 438.526 873.521 438.692 873.455C438.858 873.389 439.035 873.358 439.213 873.365C467.793 874.346 514.463 877.434 540.641 866.502C540.873 866.402 541.132 866.387 541.374 866.459C541.615 866.531 541.824 866.685 541.964 866.895C542.104 867.104 542.166 867.356 542.139 867.607C542.112 867.858 541.999 868.091 541.818 868.266L540.494 869.541C540.135 869.933 539.841 870.391 539.612 870.914Z"></path>
<path fill="#BDB3B0" d="M380.876 880.228C401.907 889.199 416.613 904.2 409.456 928.81C408.083 929.725 406.482 930.15 404.652 930.085C405.305 929.17 405.714 928.303 405.877 927.486C405.948 927.154 405.936 926.809 405.841 926.483C405.746 926.156 405.572 925.859 405.334 925.616C405.096 925.373 404.802 925.193 404.478 925.092C404.153 924.991 403.809 924.971 403.475 925.035C402.429 925.264 401.498 924.953 400.681 924.104C399.145 922.47 399.488 921.44 401.71 921.015C404.783 920.492 407.005 918.956 408.378 916.407C409.293 914.708 409.064 913.188 407.691 911.848C385.01 889.788 357.868 876.127 326.264 870.865C327.506 866.649 330.692 865.603 335.824 867.727C352.557 874.754 367.574 878.921 380.876 880.228Z"></path>
<path fill="#D9C6B9" d="M691.73 1010.09L675.748 993.471C674.67 992.359 673.755 991.118 673.003 989.745C668.689 981.754 654.767 987.49 645.893 979.107C684.671 979.107 714.231 956.507 736.978 927.437C737.991 926.129 739.315 925.329 740.949 925.035C791.181 916.341 837.459 897.81 879.782 869.442C918.216 871.142 955.114 879.786 990.476 895.376C1064.89 928.123 997.143 961.066 962.435 971.95C876.154 999.059 780.657 1008.37 691.73 1010.09Z"></path>
<path fill="#FBF1E1" d="M364.698 922.388C369.699 932.535 367.493 946.36 378.278 950.625L359.257 953.468C357.557 953.729 356.479 953.027 356.021 951.36C353.701 942.209 349.011 934.235 341.952 927.437C339.206 923.384 337.54 918.564 336.951 912.975C336.788 911.504 337.442 910.851 338.912 911.014C349.076 912.354 357.672 916.145 364.698 922.388Z"></path>
<path fill="#715337" d="M364.698 922.387C377.885 928.123 376.022 939.006 379.307 949.742C381.398 950.069 381.055 950.363 378.277 950.624C367.492 946.359 369.698 932.535 364.698 922.387Z"></path>
<path fill="#AAA1A1" d="M409.456 928.81C409.783 934.137 405.927 938.63 397.887 942.291C396.776 934.937 399.031 930.869 404.652 930.084C406.482 930.15 408.084 929.725 409.456 928.81Z"></path>
<path fill="#B4AAA6" d="M333.47 957.39C330.464 956.834 328.012 955.609 326.117 953.713C328.797 953.582 330.447 951.769 331.068 948.272C331.362 946.539 332.098 946.343 333.274 947.683C335.464 950.2 335.529 953.435 333.47 957.39Z"></path>
</g>
<defs>
<clipPath id="clip0_2_5682">
<rect fill="white" height="1024" width="1024"></rect>
</clipPath>
</defs>
</svg>
