<?xml version="1.0" standalone="no"?><!DOCTYPE svg PUBLIC "-//W3C//DTD SVG 1.1//EN" "http://www.w3.org/Graphics/SVG/1.1/DTD/svg11.dtd"><svg height="1233" node-id="1" sillyvg="true" template-height="1233" template-width="1601" version="1.1" viewBox="0 0 1601 1233" width="1601" xmlns="http://www.w3.org/2000/svg" xmlns:xlink="http://www.w3.org/1999/xlink"><defs node-id="57"></defs><g node-id="59"><path d="M 1400.30 468.06 L 1376.68 466.49 L 1362.18 465.70 L 1345.09 464.94 L 1327.24 464.37 L 1307.52 464.02 L 1287.30 463.98 L 1265.92 464.32 L 1244.30 465.12 L 1222.26 466.46 L 1207.55 467.68 L 1192.97 469.21 L 1178.52 471.04 L 1164.12 473.23 L 1150.16 475.77 L 1136.64 478.66 L 1123.24 482.03 L 1110.57 485.79 L 1098.62 489.93 L 1089.73 493.47 L 1081.42 497.24 L 1073.65 501.24 L 1066.40 505.46 L 1059.32 510.17 L 1052.92 515.14 L 1047.14 520.36 L 1041.95 525.85 L 1038.14 530.58 L 1034.77 535.52 L 1031.84 540.67 L 1029.34 546.06 L 1027.25 551.70 L 1025.68 557.41 L 1024.57 563.43 L 1023.95 569.78 L 1023.84 576.50 L 1024.26 583.63 L 1024.68 586.30 L 1025.36 588.48 L 1026.27 590.26 L 1027.39 591.70 L 1027.87 592.10 L 1028.44 592.31 L 1029.05 592.33 L 1029.65 592.15 L 1030.15 591.78 L 1030.50 591.28 L 1030.67 590.70 L 1030.64 590.07 L 1029.77 582.81 L 1029.47 575.99 L 1029.72 569.56 L 1030.48 563.49 L 1031.73 557.74 L 1033.52 552.02 L 1035.74 546.56 L 1038.41 541.35 L 1041.53 536.37 L 1045.12 531.60 L 1050.07 526.07 L 1055.63 520.80 L 1061.85 515.79 L 1068.76 511.03 L 1075.87 506.79 L 1083.52 502.77 L 1091.74 498.98 L 1100.56 495.42 L 1112.43 491.28 L 1125.05 487.52 L 1138.45 484.16 L 1151.97 481.29 L 1165.94 478.77 L 1180.38 476.62 L 1194.87 474.84 L 1209.49 473.36 L 1224.26 472.19 L 1246.36 470.95 L 1268.02 470.26 L 1289.43 470.03 L 1309.61 470.20 L 1329.26 470.69 L 1346.94 471.40 L 1363.80 472.31 L 1377.94 473.25 L 1400.55 475.13 L 1401.81 475.05 L 1402.76 474.51 L 1403.49 473.44 L 1403.82 472.25 L 1403.68 471.44 L 1415.55 470.24 L 1428.79 469.22 L 1442.38 468.57 L 1456.68 468.40 L 1466.27 468.62 L 1475.89 469.18 L 1485.52 470.08 L 1495.10 471.38 L 1504.42 473.13 L 1513.50 475.32 L 1520.23 477.33 L 1526.68 479.64 L 1532.86 482.27 L 1538.79 485.20 L 1544.53 488.53 L 1549.89 492.24 L 1554.91 496.32 L 1559.59 500.80 L 1563.83 505.64 L 1567.65 510.96 L 1571.06 516.80 L 1574.05 523.19 L 1579.35 536.96 L 1584.05 550.85 L 1588.16 564.88 L 1591.68 579.05 L 1594.62 593.36 L 1596.95 607.70 L 1598.69 622.07 L 1599.83 636.48 L 1600.38 650.94 L 1600.32 665.32 L 1599.66 679.63 L 1598.39 693.89 L 1596.51 708.09 L 1594.02 722.12 L 1590.93 735.98 L 1587.22 749.69 L 1583.80 760.54 L 1579.99 771.22 L 1575.79 781.73 L 1571.18 792.09 L 1566.18 802.30 L 1560.79 812.29 L 1554.99 822.06 L 1548.79 831.61 L 1542.17 840.96 L 1535.14 850.11 L 1527.77 858.91 L 1519.97 867.45 L 1511.75 875.73 L 1503.09 883.76 L 1493.97 891.53 L 1481.81 901.05 L 1469.00 910.31 L 1455.53 919.31 L 1441.37 928.05 L 1426.49 936.51 L 1410.87 944.70 L 1394.47 952.61 L 1377.27 960.23 L 1370.83 962.61 L 1362.98 963.91 L 1355.36 965.72 L 1347.94 968.03 L 1340.72 970.84 L 1333.67 974.16 L 1326.78 978.00 L 1320.77 978.25 L 1288.68 985.06 L 1263.72 989.79 L 1244.75 992.83 L 1230.72 994.53 L 1220.66 995.21 L 1194.43 996.28 L 1179.44 997.36 L 1171.92 998.34 L 1165.92 997.02 L 1117.80 988.51 L 1098.81 988.16 L 1079.70 987.27 L 1060.47 985.87 L 1041.29 983.90 L 1022.37 981.35 L 1003.68 978.23 L 989.70 975.46 L 976.07 972.33 L 962.77 968.86 L 949.80 965.05 L 936.88 960.77 L 924.49 956.12 L 912.61 951.12 L 901.22 945.76 L 892.19 941.05 L 883.60 936.10 L 875.44 930.91 L 867.69 925.48 L 860.33 919.81 L 853.19 913.71 L 846.56 907.35 L 840.41 900.72 L 834.73 893.82 L 829.51 886.64 L 824.76 879.13 L 820.56 871.30 L 816.89 863.13 L 813.74 854.60 L 811.13 845.68 L 809.47 838.28 L 808.22 830.58 L 807.40 822.57 L 807.00 814.21 L 807.07 805.49 L 807.60 796.38 L 808.54 787.74 L 809.99 778.70 L 811.95 769.26 L 814.46 759.37 L 817.56 749.02 L 821.28 738.19 L 826.01 726.08 L 831.64 713.29 L 838.23 699.80 L 845.85 685.56 L 854.57 670.54 L 855.00 669.48 L 855.07 668.43 L 854.79 667.33 L 854.16 666.38 L 853.33 665.73 L 852.26 665.34 L 851.23 665.50 L 849.83 666.44 L 847.85 668.67 L 845.18 672.63 L 841.82 678.58 L 838.49 685.16 L 834.82 693.01 L 827.50 709.92 L 820.53 727.23 L 814.54 742.89 L 810.19 754.84 L 808.15 761.01 L 805.49 772.31 L 803.47 783.03 L 802.05 793.19 L 801.19 802.84 L 800.86 812.00 L 801.03 821.48 L 801.70 830.50 L 802.83 839.08 L 804.41 847.26 L 806.43 855.06 L 808.97 862.87 L 811.89 870.33 L 815.20 877.48 L 818.90 884.32 L 822.98 890.87 L 827.44 897.21 L 832.23 903.29 L 837.35 909.13 L 842.81 914.73 L 848.62 920.10 L 856.19 926.40 L 864.18 932.38 L 872.60 938.05 L 881.49 943.40 L 890.55 948.34 L 899.93 952.99 L 909.64 957.36 L 919.69 961.45 L 933.24 966.39 L 947.13 970.87 L 961.36 974.90 L 975.71 978.48 L 990.12 981.66 L 1004.60 984.44 L 1019.15 986.87 L 1033.47 988.96 L 1047.56 990.71 L 1068.55 992.85 L 1088.33 994.39 L 1079.30 1023.40 L 1070.89 1052.53 L 1063.10 1081.78 L 1055.92 1111.15 L 1049.36 1140.67 L 1043.42 1170.32 L 1038.09 1200.12 L 1037.54 1201.87 L 1036.52 1203.25 L 1034.96 1204.31 L 1033.27 1205.43 L 1032.10 1206.88 L 1031.38 1208.72 L 1031.14 1211.07 L 1024.01 1179.10 L 1023.51 1177.65 L 1022.78 1176.39 L 1021.80 1175.30 L 1020.62 1174.42 L 1019.29 1173.81 L 1017.80 1173.45 L 1016.27 1173.42 L 1014.84 1173.68 L 1013.47 1174.23 L 1012.25 1175.04 L 1011.22 1176.07 L 1010.37 1177.35 L 995.79 1205.75 L 995.29 1206.29 L 994.58 1206.48 L 993.88 1206.25 L 993.41 1205.69 L 981.96 1176.60 L 981.07 1175.08 L 979.80 1173.96 L 978.24 1173.28 L 976.49 1173.12 L 974.78 1173.53 L 973.34 1174.42 L 972.24 1175.72 L 971.58 1177.35 L 962.57 1214.45 L 958.38 1210.63 L 957.02 1209.16 L 955.98 1207.52 L 955.25 1205.69 L 928.15 1114.34 L 934.20 1113.48 L 944.43 1111.92 L 956.49 1109.83 L 962.56 1108.60 L 968.00 1107.33 L 973.04 1105.90 L 976.59 1104.57 L 978.67 1103.44 L 979.62 1102.51 L 979.90 1101.70 L 979.60 1100.31 L 978.99 1099.53 L 978.07 1099.16 L 976.65 1099.26 L 959.75 1102.80 L 941.86 1105.94 L 929.79 1107.70 L 917.50 1109.16 L 905.00 1110.30 L 892.47 1111.06 L 879.93 1111.39 L 867.38 1111.30 L 854.85 1110.71 L 842.51 1109.58 L 830.34 1107.92 L 821.26 1106.27 L 812.38 1104.25 L 803.70 1101.87 L 795.20 1099.13 L 794.26 1099.01 L 793.51 1099.29 L 792.88 1100.01 L 791.88 1101.70 L 791.39 1102.92 L 791.46 1103.79 L 792.00 1104.49 L 793.19 1105.08 L 828.04 1115.90 L 826.52 1130.35 L 824.48 1144.65 L 821.91 1158.83 L 818.81 1172.88 L 815.18 1186.81 L 811.03 1200.65 L 806.33 1214.39 L 798.14 1179.10 L 797.64 1177.68 L 796.92 1176.44 L 795.95 1175.37 L 794.79 1174.51 L 793.50 1173.90 L 792.04 1173.55 L 790.53 1173.50 L 789.12 1173.74 L 787.78 1174.27 L 786.56 1175.05 L 785.54 1176.04 L 784.68 1177.28 L 770.67 1202.87 L 770.21 1203.48 L 769.62 1203.91 L 768.93 1204.18 L 768.18 1204.25 L 767.44 1204.10 L 766.78 1203.77 L 766.24 1203.27 L 765.85 1202.62 L 755.21 1176.66 L 754.29 1175.14 L 752.98 1174.02 L 751.40 1173.36 L 749.63 1173.21 L 747.90 1173.62 L 746.44 1174.53 L 745.32 1175.83 L 744.64 1177.47 L 735.75 1214.45 L 707.04 1123.54 L 706.36 1122.06 L 705.41 1121.07 L 704.17 1120.48 L 702.53 1120.28 L 544.92 1123.22 L 544.08 1120.93 L 542.99 1119.27 L 541.65 1118.10 L 540.02 1117.36 L 538.02 1117.04 L 535.53 1117.22 L 519.07 1119.79 L 502.60 1121.86 L 486.13 1123.44 L 469.65 1124.52 L 453.15 1125.11 L 436.62 1125.21 L 420.06 1124.81 L 403.45 1123.91 L 401.14 1123.94 L 398.82 1124.29 L 394.75 1125.29 L 308.72 1124.54 L 306.16 1124.84 L 303.86 1125.74 L 301.85 1127.17 L 300.25 1129.04 L 299.14 1131.26 L 298.58 1133.80 L 297.32 1145.83 L 295.56 1157.66 L 293.29 1169.30 L 290.53 1180.76 L 287.27 1192.06 L 283.52 1203.20 L 279.25 1214.20 L 271.12 1194.68 L 270.31 1193.28 L 269.21 1192.16 L 267.85 1191.36 L 266.30 1190.92 L 264.69 1190.89 L 263.17 1191.26 L 261.78 1192.01 L 260.61 1193.11 L 244.09 1213.07 L 243.26 1213.65 L 242.28 1213.77 L 241.37 1213.40 L 240.77 1212.63 L 228.26 1183.29 L 227.38 1181.74 L 226.35 1180.72 L 225.14 1180.11 L 223.70 1179.89 L 221.94 1180.10 L 220.02 1180.79 L 218.34 1181.80 L 216.86 1183.14 L 214.99 1185.57 L 213.40 1188.51 L 212.10 1191.68 L 210.96 1194.99 L 208.96 1201.36 L 207.89 1204.21 L 206.80 1206.38 L 201.74 1192.35 L 196.97 1178.29 L 192.48 1164.18 L 186.08 1142.92 L 179.91 1121.63 L 173.76 1100.33 L 167.45 1079.08 L 160.76 1057.92 L 153.49 1036.88 L 145.10 1012.89 L 137.35 988.79 L 130.22 964.57 L 123.72 940.23 L 117.84 915.75 L 112.58 891.14 L 107.93 866.38 L 103.91 841.47 L 100.50 816.39 L 97.70 791.15 L 95.53 765.72 L 93.98 740.11 L 93.73 738.67 L 93.39 738.30 L 92.91 738.46 L 91.98 739.61 L 86.83 748.38 L 82.04 757.40 L 77.61 766.68 L 73.53 776.22 L 69.84 785.91 L 66.47 795.76 L 63.42 805.78 L 60.71 815.98 L 57.60 829.69 L 55.02 843.53 L 52.97 857.49 L 51.43 871.52 L 50.37 885.48 L 49.79 899.36 L 49.65 913.26 L 49.93 926.87 L 50.62 940.21 L 45.93 942.27 L 34.73 942.02 L 30.29 940.21 L 25.38 926.80 L 21.14 913.39 L 17.53 899.95 L 14.56 886.47 L 12.63 875.55 L 11.12 864.68 L 10.03 853.86 L 9.36 843.08 L 9.11 832.32 L 9.28 821.52 L 9.88 810.83 L 10.91 800.23 L 12.37 789.71 L 14.26 779.27 L 16.60 768.92 L 19.37 758.70 L 22.60 748.63 L 26.26 738.68 L 30.39 728.85 L 34.93 719.25 L 39.94 709.83 L 45.42 700.58 L 51.37 691.49 L 57.82 682.57 L 64.62 674.03 L 71.91 665.70 L 79.71 657.58 L 88.04 649.66 L 96.92 641.94 L 98.34 640.47 L 99.31 638.76 L 99.87 636.75 L 103.03 617.64 L 106.64 599.19 L 110.69 581.38 L 115.15 564.20 L 120.03 547.61 L 125.30 531.61 L 131.24 515.41 L 137.56 499.76 L 144.28 484.64 L 151.37 470.04 L 158.84 455.94 L 166.69 442.32 L 175.11 428.82 L 183.90 415.76 L 193.05 403.13 L 202.56 390.93 L 212.44 379.14 L 222.69 367.75 L 233.35 356.69 L 244.36 346.00 L 255.72 335.66 L 267.45 325.67 L 279.54 316.03 L 292.00 306.74 L 304.67 297.88 L 317.68 289.32 L 331.04 281.07 L 344.76 273.12 L 358.84 265.48 L 373.29 258.14 L 390.71 249.90 L 408.60 242.04 L 426.98 234.57 L 445.86 227.48 L 465.26 220.80 L 484.61 214.66 L 504.40 208.86 L 524.65 203.41 L 545.37 198.31 L 566.57 193.57 L 586.35 189.51 L 606.31 185.83 L 626.45 182.53 L 646.77 179.60 L 667.13 177.13 L 687.54 175.17 L 708.00 173.71 L 728.53 172.75 L 749.07 172.36 L 769.56 172.60 L 789.99 173.46 L 810.38 174.94 L 826.66 176.61 L 842.84 178.76 L 858.93 181.39 L 874.93 184.49 L 890.86 188.07 L 882.46 203.65 L 874.19 219.79 L 866.08 236.49 L 858.35 253.37 L 850.97 270.63 L 843.93 288.28 L 837.37 306.11 L 831.33 324.16 L 825.83 342.44 L 822.08 356.27 L 818.74 370.13 L 815.78 384.03 L 813.21 397.98 L 811.06 412.01 L 809.39 426.01 L 808.21 439.97 L 807.50 453.90 L 807.30 467.87 L 807.68 481.74 L 808.62 495.51 L 810.12 509.21 L 811.75 520.12 L 813.81 530.94 L 816.28 541.67 L 819.18 552.33 L 822.50 562.92 L 826.23 573.33 L 830.45 583.63 L 835.15 593.85 L 840.35 603.98 L 846.06 614.04 L 846.63 614.84 L 847.32 615.48 L 848.49 616.18 L 849.31 616.30 L 849.93 616.02 L 850.44 615.29 L 850.83 613.79 L 850.73 612.33 L 850.13 610.85 L 844.63 600.85 L 839.62 590.76 L 835.10 580.58 L 831.06 570.30 L 827.50 559.91 L 824.35 549.35 L 821.61 538.71 L 819.30 527.99 L 817.39 517.17 L 815.89 506.26 L 814.56 492.57 L 813.79 478.80 L 813.57 464.93 L 813.90 450.96 L 814.75 437.03 L 816.06 423.08 L 817.85 409.09 L 820.11 395.07 L 822.78 381.13 L 825.83 367.25 L 829.26 353.43 L 833.08 339.64 L 838.68 321.42 L 844.79 303.46 L 851.41 285.74 L 858.50 268.21 L 865.92 251.11 L 873.66 234.42 L 881.80 217.92 L 890.05 202.04 L 898.43 186.75 L 900.86 186.24 L 902.35 185.49 L 903.19 184.56 L 903.94 182.90 L 904.33 181.33 L 904.39 179.82 L 904.13 178.35 L 903.56 177.16 L 902.69 176.18 L 887.60 163.46 L 873.06 150.38 L 859.05 136.94 L 845.57 123.14 L 832.61 108.98 L 826.73 102.27 L 821.45 95.85 L 818.20 91.45 L 815.47 87.13 L 813.22 82.86 L 811.85 79.52 L 810.88 76.15 L 810.29 72.72 L 810.08 69.21 L 810.30 65.76 L 811.02 62.12 L 812.28 58.25 L 814.15 54.11 L 815.85 51.51 L 817.79 49.54 L 819.98 48.10 L 822.48 47.16 L 825.12 46.70 L 828.06 46.61 L 831.35 46.95 L 835.05 47.78 L 839.77 49.34 L 844.99 51.54 L 850.76 54.47 L 856.36 57.70 L 862.27 61.44 L 868.52 65.73 L 877.73 72.53 L 887.21 80.05 L 896.56 87.89 L 905.74 95.94 L 914.68 104.09 L 923.00 111.91 L 937.90 126.45 L 949.33 138.07 L 956.19 145.27 L 957.29 146.17 L 958.45 146.68 L 959.71 146.84 L 961.13 146.65 L 977.99 142.52 L 994.81 138.97 L 1011.62 136.00 L 1028.42 133.60 L 1045.21 131.77 L 1062.00 130.50 L 1078.81 129.79 L 1095.65 129.64 L 1112.51 130.05 L 1129.42 131.02 L 1146.38 132.57 L 1163.39 134.68 L 1180.48 137.37 L 1197.64 140.64 L 1198.84 140.76 L 1200.02 140.62 L 1201.15 140.23 L 1202.18 139.61 L 1203.06 138.78 L 1203.73 137.80 L 1204.19 136.70 L 1204.40 135.51 L 1205.54 122.18 L 1207.75 103.99 L 1209.26 93.80 L 1211.13 82.85 L 1213.28 71.80 L 1215.78 60.70 L 1218.65 49.76 L 1221.84 39.46 L 1224.25 32.74 L 1226.77 26.62 L 1229.40 21.06 L 1232.40 15.69 L 1235.46 11.17 L 1238.59 7.43 L 1241.26 4.89 L 1243.95 2.92 L 1246.70 1.47 L 1249.51 0.49 L 1252.21 0.13 L 1254.88 0.36 L 1257.43 1.17 L 1259.79 2.53 L 1261.79 4.38 L 1263.31 6.58 L 1264.32 9.06 L 1264.78 11.75 L 1265.50 29.71 L 1265.70 47.62 L 1265.38 65.50 L 1264.54 83.34 L 1263.18 101.16 L 1261.30 118.96 L 1258.89 136.74 L 1255.95 154.53 L 1255.89 156.20 L 1256.30 157.52 L 1257.16 158.59 L 1258.58 159.47 L 1268.85 164.39 L 1278.65 169.57 L 1288.01 175.01 L 1296.93 180.71 L 1305.43 186.66 L 1313.53 192.88 L 1323.03 200.89 L 1331.95 209.22 L 1340.32 217.85 L 1348.14 226.81 L 1355.44 236.10 L 1362.30 245.78 L 1368.65 255.72 L 1374.50 265.93 L 1379.84 276.41 L 1384.70 287.18 L 1389.05 298.15 L 1392.92 309.33 L 1396.31 320.71 L 1399.23 332.33 L 1401.67 344.18 L 1403.61 356.06 L 1405.09 368.09 L 1406.11 380.27 L 1406.66 392.61 L 1406.74 405.12 L 1406.37 417.55 L 1405.54 430.06 L 1404.25 442.64 L 1402.51 455.30 L 1400.30 468.06 Z M 1238.93 58.74 L 1239.41 57.81 L 1240.15 57.15 L 1241.07 56.80 L 1242.11 56.80 L 1243.08 57.19 L 1243.80 57.87 L 1244.23 58.77 L 1244.32 59.80 L 1239.62 140.20 L 1239.69 141.67 L 1240.01 142.38 L 1240.51 142.66 L 1241.28 142.58 L 1242.56 141.89 L 1243.46 140.93 L 1244.39 139.13 L 1245.34 136.10 L 1246.32 131.21 L 1247.18 124.59 L 1247.79 117.51 L 1248.25 109.47 L 1248.73 92.85 L 1248.78 76.83 L 1248.56 63.52 L 1248.26 55.05 L 1247.87 53.21 L 1246.98 51.62 L 1245.66 50.37 L 1243.97 49.54 L 1242.12 49.25 L 1240.32 49.53 L 1238.68 50.32 L 1237.31 51.60 L 1234.75 55.46 L 1232.34 60.07 L 1230.09 65.51 L 1228.21 71.09 L 1226.49 77.14 L 1224.93 83.69 L 1222.96 93.62 L 1221.31 103.81 L 1218.74 123.55 L 1216.72 140.58 L 1216.76 141.22 L 1216.99 141.81 L 1217.37 142.31 L 1217.90 142.68 L 1218.52 142.87 L 1219.15 142.88 L 1219.75 142.69 L 1220.29 142.33 L 1222.60 140.01 L 1223.35 139.07 L 1223.83 138.02 L 1224.04 136.82 L 1225.12 123.51 L 1226.76 110.33 L 1228.96 97.27 L 1231.72 84.33 L 1235.04 71.49 L 1238.93 58.74 Z M 857.83 92.46 L 857.32 91.48 L 857.19 90.43 L 857.43 89.39 L 858.04 88.47 L 858.94 87.82 L 859.96 87.54 L 861.01 87.62 L 862.02 88.08 L 868.46 93.02 L 878.91 101.20 L 891.89 111.40 L 905.91 122.42 L 919.50 133.03 L 931.18 142.02 L 939.46 148.17 L 942.30 150.07 L 942.86 150.28 L 944.05 149.15 L 944.44 148.10 L 944.20 147.01 L 943.17 145.71 L 927.50 131.79 L 911.45 118.38 L 895.01 105.48 L 878.18 93.09 L 860.96 81.20 L 859.31 80.29 L 857.57 79.73 L 855.70 79.51 L 852.88 79.64 L 850.93 80.22 L 849.61 81.13 L 848.76 82.39 L 848.35 84.09 L 848.47 86.41 L 849.32 89.58 L 850.72 92.76 L 852.70 95.72 L 863.03 108.22 L 873.77 120.30 L 884.95 131.97 L 896.55 143.24 L 908.59 154.12 L 921.08 164.60 L 922.22 165.26 L 923.13 165.32 L 923.95 164.91 L 924.78 163.85 L 924.51 163.32 L 922.35 160.70 L 915.45 153.15 L 905.46 142.57 L 893.76 130.34 L 881.76 117.84 L 870.85 106.44 L 862.40 97.52 L 857.83 92.46 Z M 1174.30 163.67 L 1174.99 159.35 L 1174.96 158.93 L 1174.77 158.56 L 1174.45 158.29 L 1174.05 158.16 L 1135.76 152.47 L 1135.07 152.53 L 1134.40 152.98 L 1133.90 153.71 L 1133.63 154.66 L 1133.44 156.22 L 1133.44 157.18 L 1133.69 158.02 L 1134.19 158.64 L 1134.82 158.91 L 1173.11 164.54 L 1173.88 164.34 L 1174.30 163.67 L 1174.30 163.67 Z M 989.53 166.73 L 1027.33 160.10 L 1028.10 159.79 L 1028.41 159.29 L 1028.33 158.47 L 1027.76 156.97 L 1027.21 156.06 L 1026.44 155.53 L 1025.39 155.34 L 1020.68 155.57 L 1013.28 156.26 L 1004.72 157.46 L 1000.41 158.26 L 996.51 159.18 L 992.87 160.31 L 990.19 161.47 L 988.63 162.46 L 987.72 163.41 L 987.28 164.35 L 987.20 165.67 L 987.53 166.39 L 988.24 166.76 L 989.53 166.73 Z M 1092.71 166.92 L 1096.42 168.35 L 1100.25 169.35 L 1104.22 169.92 L 1108.35 170.05 L 1111.50 169.78 L 1112.77 169.37 L 1113.12 168.95 L 1112.96 168.43 L 1111.95 167.58 L 1109.17 166.17 L 1103.27 163.86 L 1097.34 162.08 L 1091.34 160.83 L 1085.27 160.08 L 1079.10 159.83 L 1072.81 160.11 L 1066.37 160.91 L 1063.08 161.61 L 1061.83 162.17 L 1061.55 162.60 L 1061.80 163.05 L 1063.01 163.71 L 1066.24 164.67 L 1071.24 165.64 L 1076.28 166.18 L 1081.38 166.30 L 1086.58 165.98 L 1088.68 165.92 L 1090.72 166.23 L 1092.71 166.92 Z M 1023.95 182.19 L 1063.05 188.63 L 1063.62 188.50 L 1063.93 188.00 L 1063.93 188.00 L 1063.82 186.90 L 1063.18 185.70 L 1061.82 184.34 L 1059.20 182.64 L 1055.31 180.90 L 1050.96 179.53 L 1045.78 178.43 L 1043.59 178.06 L 1038.35 177.43 L 1033.79 177.32 L 1029.56 177.71 L 1026.53 178.47 L 1024.79 179.31 L 1023.79 180.24 L 1023.32 181.25 L 1023.32 181.25 L 1023.42 181.86 L 1023.95 182.19 Z M 1161.04 193.64 L 1161.79 188.32 L 1161.76 187.80 L 1161.54 187.33 L 1161.15 186.98 L 1160.66 186.82 L 1159.66 186.69 L 1144.35 184.78 L 1131.37 183.54 L 1126.07 183.21 L 1122.77 183.15 L 1120.23 183.38 L 1119.87 183.69 L 1119.43 186.88 L 1119.86 187.30 L 1122.44 188.22 L 1130.81 190.13 L 1143.28 192.35 L 1158.60 194.64 L 1159.53 194.76 L 1160.05 194.74 L 1160.52 194.51 L 1160.87 194.13 L 1161.04 193.64 L 1161.04 193.64 Z M 1071.81 206.65 L 1074.26 205.93 L 1076.94 205.49 L 1079.91 205.36 L 1084.41 205.64 L 1089.16 206.36 L 1093.89 207.40 L 1098.44 208.61 L 1106.60 211.09 L 1107.36 211.12 L 1108.04 210.72 L 1109.17 209.65 L 1110.15 208.37 L 1110.44 207.42 L 1110.25 206.63 L 1109.56 205.91 L 1108.10 205.21 L 1101.08 203.10 L 1094.03 201.55 L 1086.93 200.56 L 1079.76 200.11 L 1072.50 200.21 L 1071.48 200.42 L 1070.70 200.95 L 1070.12 201.83 L 1069.18 203.96 L 1068.63 205.72 L 1068.70 206.62 L 1069.13 207.06 L 1070.03 207.15 L 1071.81 206.65 Z M 400.20 340.30 L 402.99 333.98 L 405.98 328.58 L 409.13 324.01 L 411.82 320.82 L 414.74 317.90 L 417.93 315.23 L 421.38 312.81 L 426.24 309.99 L 431.87 307.33 L 438.36 304.82 L 439.02 304.42 L 439.36 303.69 L 439.80 302.07 L 439.93 300.68 L 439.60 299.96 L 438.88 299.63 L 437.49 299.75 L 431.10 301.55 L 425.25 303.80 L 419.90 306.48 L 414.99 309.59 L 410.50 313.13 L 406.41 317.12 L 402.68 321.59 L 399.32 326.57 L 396.32 332.10 L 395.84 333.50 L 395.73 334.92 L 396.00 336.42 L 397.19 340.17 L 397.87 341.75 L 398.40 342.30 L 398.87 342.32 L 399.43 341.82 L 400.20 340.30 Z M 1236.06 406.12 L 1234.86 404.80 L 1233.40 402.68 L 1231.61 399.50 L 1229.15 394.43 L 1226.37 387.99 L 1220.81 373.79 L 1215.42 359.10 L 1210.71 346.11 L 1207.15 337.04 L 1205.19 333.05 L 1204.18 331.70 L 1203.68 331.51 L 1203.34 331.92 L 1203.13 333.59 L 1203.40 338.05 L 1204.06 342.76 L 1205.10 347.80 L 1206.54 353.17 L 1209.16 361.16 L 1212.38 369.45 L 1215.97 377.67 L 1219.81 385.73 L 1223.83 393.60 L 1227.74 400.85 L 1235.06 413.63 L 1236.96 416.34 L 1238.73 418.06 L 1240.39 419.02 L 1242.00 419.38 L 1243.65 419.22 L 1245.41 418.46 L 1247.36 416.97 L 1249.57 414.50 L 1251.18 412.05 L 1252.77 408.86 L 1254.34 404.80 L 1256.24 398.41 L 1257.96 390.84 L 1259.35 382.95 L 1260.48 374.59 L 1261.34 366.18 L 1261.93 358.04 L 1262.27 350.09 L 1262.35 343.15 L 1262.17 336.67 L 1261.77 331.91 L 1260.70 324.57 L 1260.04 322.18 L 1259.66 321.79 L 1259.30 322.20 L 1258.76 324.61 L 1258.08 331.98 L 1256.67 349.07 L 1254.74 366.03 L 1252.32 382.88 L 1249.38 399.61 L 1248.31 403.80 L 1247.07 406.55 L 1245.75 408.25 L 1244.35 409.18 L 1242.81 409.52 L 1241.01 409.24 L 1238.81 408.21 L 1236.06 406.12 Z M 321.05 379.59 L 323.11 374.53 L 325.20 370.15 L 327.31 366.37 L 329.71 362.78 L 332.27 359.61 L 335.02 356.82 L 338.02 354.32 L 341.38 352.02 L 345.14 349.91 L 349.05 348.10 L 353.53 346.33 L 358.65 344.61 L 359.79 344.09 L 360.39 343.41 L 360.59 342.52 L 360.34 341.30 L 359.63 340.23 L 358.49 339.55 L 356.74 339.27 L 354.89 339.38 L 352.61 339.85 L 349.82 340.75 L 345.70 342.55 L 341.04 345.12 L 336.46 348.17 L 331.87 351.76 L 327.59 355.75 L 323.78 360.04 L 321.53 363.11 L 319.68 366.21 L 318.22 369.34 L 317.17 372.60 L 316.66 375.82 L 316.67 379.03 L 317.19 382.29 L 317.73 383.61 L 318.23 383.95 L 318.80 383.75 L 319.68 382.61 L 321.05 379.59 Z M 401.32 379.53 L 403.13 374.35 L 405.08 369.88 L 407.16 366.06 L 409.58 362.46 L 412.23 359.28 L 415.10 356.50 L 418.25 354.01 L 421.74 351.72 L 425.61 349.64 L 431.79 346.92 L 439.11 344.30 L 440.43 343.69 L 441.15 342.98 L 441.46 342.17 L 441.38 341.17 L 440.80 339.86 L 440.08 339.18 L 438.85 338.80 L 436.85 338.81 L 433.68 339.47 L 429.42 340.97 L 425.02 343.01 L 420.13 345.75 L 415.33 348.92 L 410.63 352.57 L 406.27 356.59 L 402.54 360.85 L 400.39 363.90 L 398.72 366.95 L 397.49 370.01 L 396.76 373.18 L 396.64 376.31 L 397.13 379.47 L 397.96 381.87 L 398.61 382.86 L 399.15 383.11 L 399.69 382.88 L 400.39 381.91 L 401.32 379.53 Z M 1070.06 432.65 L 1067.30 429.41 L 1064.51 425.55 L 1061.69 420.98 L 1057.86 413.78 L 1054.12 405.69 L 1050.66 397.33 L 1047.41 388.80 L 1041.63 372.30 L 1036.84 358.19 L 1036.35 357.26 L 1035.77 356.83 L 1035.06 356.76 L 1034.08 357.13 L 1032.39 358.19 L 1031.48 358.98 L 1031.12 359.92 L 1031.27 361.13 L 1036.46 376.38 L 1039.45 384.70 L 1042.78 393.44 L 1046.37 402.14 L 1050.24 410.66 L 1054.44 418.89 L 1058.84 426.37 L 1062.04 431.11 L 1065.28 435.27 L 1068.56 438.91 L 1069.87 439.93 L 1071.35 440.57 L 1072.95 440.81 L 1074.60 440.63 L 1076.15 440.04 L 1077.46 439.09 L 1078.50 437.84 L 1079.20 436.34 L 1082.87 423.72 L 1085.93 411.01 L 1088.37 398.18 L 1090.20 385.24 L 1091.42 372.17 L 1092.02 358.94 L 1091.76 357.89 L 1090.99 357.11 L 1089.94 356.83 L 1088.89 357.13 L 1087.52 357.94 L 1086.70 358.62 L 1086.19 359.46 L 1085.95 360.51 L 1084.83 374.78 L 1083.25 388.96 L 1081.22 403.07 L 1078.75 417.11 L 1075.82 431.09 L 1075.16 433.05 L 1074.43 434.09 L 1073.66 434.54 L 1072.76 434.54 L 1071.61 434.01 L 1070.06 432.65 Z M 252.22 421.14 L 253.80 416.43 L 255.66 412.23 L 257.81 408.47 L 260.22 405.12 L 262.98 401.99 L 266.00 399.16 L 269.30 396.59 L 272.88 394.30 L 277.91 391.66 L 283.40 389.32 L 289.39 387.29 L 290.88 386.54 L 291.60 385.64 L 291.73 384.51 L 291.20 382.97 L 290.39 381.87 L 289.44 381.35 L 288.26 381.34 L 282.27 382.82 L 276.77 384.72 L 271.71 387.04 L 267.06 389.78 L 262.79 392.93 L 258.86 396.51 L 255.26 400.54 L 251.99 405.05 L 249.03 410.09 L 246.40 415.69 L 246.08 416.87 L 246.05 418.20 L 246.28 419.54 L 246.76 420.80 L 247.49 421.88 L 248.40 422.64 L 249.80 423.19 L 250.80 423.11 L 251.58 422.49 L 252.22 421.14 Z M 311.85 439.47 L 314.94 432.73 L 318.06 427.15 L 320.39 423.71 L 322.87 420.62 L 325.51 417.87 L 328.39 415.36 L 331.60 413.04 L 335.16 410.91 L 338.87 409.05 L 343.12 407.26 L 347.95 405.56 L 349.47 404.78 L 350.44 403.73 L 350.95 402.37 L 351.06 400.83 L 350.78 399.91 L 350.21 399.36 L 349.28 399.13 L 347.76 399.30 L 344.12 400.38 L 339.55 402.12 L 334.87 404.27 L 329.85 406.97 L 324.93 410.03 L 320.23 413.47 L 317.27 415.99 L 314.63 418.58 L 312.29 421.27 L 310.24 424.16 L 308.68 427.06 L 307.59 429.99 L 307.01 433.03 L 307.05 436.11 L 307.72 439.28 L 308.61 441.36 L 309.34 442.09 L 309.99 442.12 L 310.77 441.46 L 311.85 439.47 Z M 243.46 507.67 L 245.20 503.02 L 247.14 498.92 L 249.26 495.30 L 251.56 492.13 L 254.19 489.16 L 257.07 486.44 L 260.22 483.96 L 263.66 481.73 L 268.48 479.13 L 273.92 476.65 L 280.06 474.32 L 281.00 473.76 L 281.57 472.82 L 282.25 470.63 L 282.46 469.23 L 282.17 468.48 L 281.47 468.12 L 280.06 468.19 L 273.72 469.71 L 267.93 471.68 L 262.64 474.07 L 257.81 476.88 L 253.40 480.12 L 249.38 483.79 L 245.74 487.91 L 242.45 492.51 L 239.52 497.65 L 236.95 503.35 L 236.65 504.77 L 236.89 506.01 L 237.70 507.17 L 238.13 507.89 L 238.33 508.92 L 238.75 513.03 L 239.28 514.53 L 239.79 514.85 L 240.44 514.45 L 241.57 512.60 L 243.46 507.67 Z M 186.09 524.31 L 185.90 518.49 L 186.14 513.48 L 186.73 509.20 L 187.75 504.99 L 189.10 501.14 L 190.79 497.60 L 192.81 494.23 L 195.18 490.82 L 197.93 487.38 L 202.41 482.26 L 207.80 476.39 L 210.67 472.93 L 211.50 471.40 L 211.46 470.82 L 210.90 470.63 L 209.21 471.07 L 205.17 473.01 L 202.04 475.01 L 198.23 478.14 L 194.49 481.80 L 190.61 486.22 L 187.00 491.01 L 183.73 496.16 L 181.82 499.75 L 180.25 503.31 L 179.02 506.84 L 178.15 510.47 L 177.79 513.90 L 177.89 517.18 L 178.32 519.59 L 179.11 521.85 L 180.25 524.00 L 181.77 526.07 L 183.50 527.77 L 184.56 528.36 L 185.23 528.35 L 185.71 527.89 L 186.05 526.73 L 186.09 524.31 Z M 1444.85 566.86 L 1446.01 568.84 L 1447.30 571.66 L 1448.73 575.53 L 1450.60 581.60 L 1452.57 589.16 L 1454.42 597.12 L 1456.25 605.86 L 1459.63 623.77 L 1462.57 641.01 L 1464.93 655.68 L 1466.58 665.92 L 1467.20 669.32 L 1467.37 669.85 L 1468.71 670.28 L 1469.59 670.25 L 1470.18 669.87 L 1470.59 669.10 L 1470.75 667.72 L 1470.60 660.37 L 1470.22 651.27 L 1469.61 641.72 L 1468.67 631.20 L 1467.40 620.53 L 1465.71 609.68 L 1463.55 598.97 L 1460.92 588.86 L 1458.80 582.28 L 1456.46 576.31 L 1453.92 570.91 L 1451.69 566.96 L 1449.34 563.52 L 1446.87 560.54 L 1444.29 557.98 L 1442.24 556.54 L 1439.98 555.59 L 1437.57 555.12 L 1435.08 555.18 L 1432.66 555.76 L 1430.44 556.82 L 1428.50 558.32 L 1426.89 560.23 L 1420.20 570.59 L 1414.04 581.18 L 1408.40 591.99 L 1403.28 603.04 L 1398.68 614.34 L 1394.58 625.91 L 1390.99 637.75 L 1387.91 649.89 L 1387.99 651.02 L 1388.69 651.91 L 1389.76 652.26 L 1390.85 651.95 L 1392.15 650.90 L 1393.14 649.56 L 1393.86 647.89 L 1398.32 633.84 L 1403.37 620.06 L 1409.00 606.54 L 1415.22 593.25 L 1422.04 580.20 L 1429.46 567.36 L 1430.89 565.56 L 1432.68 564.20 L 1434.75 563.31 L 1437.02 562.95 L 1439.31 563.16 L 1441.43 563.91 L 1443.30 565.16 L 1444.85 566.86 L 1444.85 566.86 Z M 1172.17 592.76 L 1175.11 592.15 L 1178.01 592.03 L 1180.94 592.39 L 1183.92 593.25 L 1187.70 594.96 L 1191.54 597.31 L 1195.47 600.39 L 1199.13 603.80 L 1202.75 607.63 L 1206.33 611.90 L 1211.34 618.59 L 1215.99 625.52 L 1220.29 632.52 L 1223.97 638.96 L 1229.74 649.95 L 1230.47 650.80 L 1231.55 651.08 L 1233.37 651.08 L 1234.81 650.80 L 1235.49 650.23 L 1235.67 649.37 L 1235.24 647.95 L 1231.02 639.79 L 1228.07 634.53 L 1224.39 628.34 L 1220.39 622.04 L 1215.89 615.45 L 1211.09 609.01 L 1206.05 602.92 L 1202.49 599.06 L 1198.94 595.63 L 1195.41 592.60 L 1191.65 589.88 L 1188.02 587.80 L 1184.50 586.31 L 1181.74 585.56 L 1179.07 585.25 L 1176.46 585.36 L 1173.87 585.88 L 1171.45 586.82 L 1169.02 588.29 L 1166.56 590.36 L 1164.04 593.14 L 1161.52 596.81 L 1159.20 601.10 L 1157.10 606.08 L 1155.36 611.19 L 1153.81 616.69 L 1152.48 622.58 L 1150.89 631.52 L 1149.71 640.63 L 1148.86 649.70 L 1148.32 658.19 L 1147.83 673.23 L 1148.16 674.26 L 1149.00 674.94 L 1150.07 675.04 L 1151.03 674.54 L 1152.59 672.98 L 1153.38 671.86 L 1153.65 670.47 L 1153.82 659.61 L 1154.58 648.91 L 1155.93 638.36 L 1157.86 627.96 L 1160.37 617.67 L 1163.47 607.49 L 1167.17 597.39 L 1168.01 595.77 L 1169.10 594.49 L 1170.48 593.49 L 1172.17 592.76 Z M 454.01 706.08 L 455.65 722.63 L 457.04 739.79 L 458.17 757.56 L 458.93 775.34 L 459.30 793.41 L 459.26 811.79 L 458.75 830.17 L 457.72 848.56 L 456.15 866.98 L 454.59 880.77 L 452.67 894.42 L 450.38 907.94 L 447.73 921.33 L 444.65 934.66 L 441.14 947.72 L 437.21 960.51 L 432.85 973.05 L 427.97 985.43 L 422.61 997.43 L 416.75 1009.06 L 410.40 1020.34 L 404.90 1029.13 L 399.04 1037.63 L 392.82 1045.84 L 386.22 1053.76 L 379.24 1061.41 L 371.94 1068.68 L 364.20 1075.61 L 356.02 1082.22 L 347.38 1088.51 L 338.26 1094.47 L 328.99 1099.87 L 319.18 1104.90 L 308.82 1109.56 L 297.88 1113.83 L 286.32 1117.72 L 285.36 1118.25 L 284.99 1118.97 L 285.13 1120.03 L 285.70 1121.72 L 286.16 1122.68 L 286.76 1123.21 L 287.53 1123.42 L 288.57 1123.29 L 300.10 1119.56 L 311.06 1115.39 L 321.46 1110.80 L 331.35 1105.78 L 340.75 1100.35 L 349.95 1094.35 L 358.71 1087.99 L 367.03 1081.27 L 374.93 1074.19 L 382.43 1066.73 L 389.57 1058.89 L 396.35 1050.76 L 402.77 1042.32 L 408.83 1033.57 L 414.54 1024.49 L 421.15 1012.86 L 427.27 1000.86 L 432.89 988.47 L 438.03 975.68 L 442.64 962.73 L 446.80 949.54 L 450.53 936.09 L 453.81 922.37 L 456.66 908.58 L 459.11 894.69 L 461.16 880.70 L 462.83 866.61 L 464.49 847.77 L 465.55 829.05 L 466.01 810.46 L 465.92 791.85 L 465.34 773.69 L 464.28 755.97 L 462.74 738.26 L 460.83 721.35 L 458.57 705.20 L 458.20 704.49 L 457.45 704.26 L 455.70 704.20 L 454.62 704.39 L 454.09 704.97 L 454.01 706.08 Z M 1070.62 1017.80 L 1055.31 1021.02 L 1039.66 1023.85 L 1023.66 1026.27 L 1007.60 1028.20 L 991.46 1029.60 L 975.25 1030.47 L 963.06 1030.74 L 950.98 1030.64 L 939.01 1030.18 L 927.14 1029.37 L 915.26 1028.14 L 903.63 1026.50 L 892.24 1024.44 L 881.07 1021.96 L 869.98 1018.99 L 859.25 1015.55 L 848.86 1011.63 L 838.80 1007.24 L 830.91 1003.32 L 823.30 999.06 L 815.96 994.46 L 808.89 989.50 L 802.07 984.20 L 795.57 978.55 L 789.39 972.49 L 783.50 966.03 L 777.92 959.14 L 772.64 951.81 L 767.86 944.30 L 763.43 936.30 L 759.35 927.78 L 755.61 918.72 L 752.24 909.08 L 749.48 899.56 L 747.12 889.43 L 745.17 878.65 L 743.67 867.18 L 742.64 854.99 L 742.38 853.48 L 741.78 852.13 L 740.82 850.92 L 739.13 849.17 L 738.51 848.72 L 737.81 848.49 L 737.07 848.47 L 736.34 848.68 L 735.70 849.10 L 735.23 849.67 L 734.95 850.35 L 734.88 851.11 L 735.99 862.50 L 737.47 873.33 L 739.31 883.60 L 741.48 893.37 L 743.98 902.63 L 746.79 911.44 L 750.82 922.15 L 755.26 932.22 L 760.10 941.67 L 765.33 950.54 L 770.95 958.85 L 777.14 966.93 L 783.67 974.50 L 790.53 981.58 L 797.74 988.19 L 805.31 994.34 L 813.22 1000.07 L 821.42 1005.39 L 829.91 1010.29 L 838.71 1014.79 L 847.83 1018.88 L 857.08 1022.53 L 866.56 1025.81 L 876.28 1028.73 L 886.25 1031.28 L 896.49 1033.46 L 909.29 1035.64 L 922.35 1037.31 L 935.65 1038.45 L 949.23 1039.06 L 962.78 1039.17 L 976.42 1038.80 L 990.17 1037.97 L 1004.04 1036.66 L 1017.84 1034.92 L 1031.57 1032.77 L 1045.24 1030.21 L 1058.86 1027.24 L 1062.36 1026.75 L 1066.67 1026.09 L 1068.82 1025.49 L 1070.76 1024.62 L 1072.41 1023.40 L 1073.63 1021.74 L 1074.40 1019.68 L 1074.38 1018.52 L 1073.88 1017.87 L 1072.78 1017.56 L 1070.62 1017.80 Z M 593.66 1020.42 L 587.98 1022.78 L 582.85 1024.50 L 577.71 1025.73 L 572.46 1026.44 L 567.03 1026.67 L 560.81 1026.43 L 559.77 1026.57 L 559.21 1027.08 L 559.00 1028.06 L 558.93 1030.12 L 559.07 1031.32 L 559.64 1032.03 L 560.75 1032.37 L 567.25 1032.75 L 573.55 1032.48 L 579.69 1031.59 L 585.69 1030.07 L 591.59 1027.92 L 597.41 1025.12 L 598.10 1024.53 L 598.28 1023.86 L 597.98 1022.99 L 597.10 1021.49 L 596.39 1020.62 L 595.61 1020.19 L 594.73 1020.11 L 593.66 1020.42 Z M 522.33 1029.62 L 509.13 1032.27 L 499.46 1033.84 L 492.62 1034.59 L 487.98 1034.75 L 487.27 1034.98 L 487.04 1035.63 L 487.04 1037.44 L 487.26 1038.92 L 487.86 1039.90 L 488.82 1040.51 L 490.30 1040.76 L 497.16 1040.53 L 503.91 1039.74 L 510.57 1038.40 L 517.16 1036.49 L 523.71 1034.00 L 524.40 1033.51 L 524.85 1032.84 L 525.04 1032.05 L 524.94 1031.21 L 524.54 1030.46 L 523.94 1029.92 L 523.18 1029.63 L 522.33 1029.62 L 522.33 1029.62 Z M 646.91 1042.70 L 608.30 1050.21 L 605.15 1051.04 L 604.25 1051.62 L 604.25 1052.07 L 605.15 1052.66 L 608.30 1053.52 L 613.76 1054.39 L 619.04 1054.71 L 624.15 1054.52 L 629.13 1053.83 L 634.00 1052.63 L 638.80 1050.93 L 643.53 1048.69 L 648.22 1045.89 L 650.98 1043.82 L 651.63 1042.89 L 651.46 1042.47 L 650.34 1042.26 L 646.91 1042.70 Z M 573.20 1048.58 L 567.71 1049.75 L 563.20 1051.07 L 554.84 1053.92 L 550.66 1055.10 L 545.91 1055.96 L 542.65 1056.26 L 538.78 1056.29 L 534.22 1056.02 L 533.18 1056.16 L 532.62 1056.68 L 532.41 1057.65 L 532.41 1059.47 L 532.66 1060.78 L 533.36 1061.60 L 534.60 1062.03 L 540.09 1062.64 L 545.40 1062.73 L 550.55 1062.30 L 555.57 1061.38 L 560.49 1059.96 L 565.32 1058.02 L 570.10 1055.55 L 574.83 1052.52 L 577.45 1050.45 L 578.33 1049.34 L 578.39 1048.75 L 577.94 1048.38 L 576.53 1048.21 L 573.20 1048.58 Z M 441.81 1070.23 L 440.91 1070.34 L 440.14 1070.76 L 439.56 1071.42 L 439.24 1072.29 L 439.21 1073.70 L 439.53 1074.76 L 440.17 1075.58 L 441.17 1076.20 L 442.77 1076.69 L 444.88 1076.93 L 447.63 1076.84 L 451.81 1076.29 L 456.60 1075.26 L 461.42 1073.96 L 466.07 1072.50 L 474.04 1069.58 L 477.09 1068.26 L 478.47 1067.54 L 479.18 1066.87 L 479.36 1066.12 L 479.03 1065.16 L 478.16 1063.66 L 477.39 1062.81 L 476.54 1062.57 L 475.47 1062.91 L 470.09 1065.49 L 464.65 1067.52 L 459.12 1068.99 L 453.49 1069.94 L 447.73 1070.35 L 441.81 1070.23 Z M 677.38 1067.04 L 669.68 1069.98 L 666.28 1071.11 L 662.99 1072.00 L 659.62 1072.66 L 655.76 1073.14 L 651.63 1073.40 L 646.41 1073.48 L 645.09 1073.68 L 644.17 1074.20 L 643.55 1075.06 L 643.21 1076.36 L 643.31 1077.30 L 643.74 1078.08 L 644.54 1078.75 L 645.85 1079.31 L 647.73 1079.74 L 650.13 1079.97 L 653.16 1079.97 L 657.73 1079.60 L 662.74 1078.80 L 667.69 1077.65 L 672.19 1076.25 L 676.30 1074.51 L 679.12 1072.78 L 680.56 1071.37 L 681.16 1070.10 L 681.13 1068.85 L 680.51 1067.58 L 679.72 1066.92 L 678.72 1066.73 L 677.38 1067.04 Z M 601.11 1074.42 L 595.64 1077.06 L 590.65 1078.97 L 585.61 1080.33 L 580.44 1081.14 L 575.08 1081.41 L 568.95 1081.18 L 567.91 1081.30 L 567.23 1081.80 L 566.82 1082.74 L 566.79 1083.84 L 567.10 1084.75 L 567.76 1085.55 L 568.86 1086.25 L 570.55 1086.87 L 572.74 1087.33 L 575.57 1087.57 L 579.88 1087.50 L 584.70 1086.98 L 589.52 1086.05 L 594.05 1084.75 L 596.96 1083.64 L 599.38 1082.44 L 601.36 1081.16 L 603.06 1079.61 L 604.03 1078.07 L 604.42 1076.48 L 604.30 1075.03 L 603.92 1074.25 L 603.34 1073.89 L 602.47 1073.89 L 601.11 1074.42 Z M 524.15 1086.87 L 515.27 1090.16 L 511.18 1091.48 L 507.22 1092.52 L 503.20 1093.29 L 498.89 1093.77 L 494.40 1093.93 L 489.17 1093.75 L 487.96 1093.90 L 487.30 1094.53 L 487.04 1095.76 L 487.35 1097.52 L 488.16 1098.82 L 489.49 1099.76 L 491.12 1100.34 L 493.18 1100.68 L 495.75 1100.74 L 499.69 1100.38 L 504.15 1099.59 L 508.62 1098.50 L 512.97 1097.22 L 520.54 1094.54 L 523.54 1093.26 L 525.15 1092.44 L 525.90 1091.67 L 526.15 1090.63 L 526.21 1088.44 L 526.13 1087.38 L 525.79 1086.86 L 525.19 1086.66 L 524.15 1086.87 Z" fill="#c7a0aa" fill-rule="nonzero" group-id="1" id="形状" node-id="6" stroke="none" target-height="1214.3225" target-width="1591.274" target-x="9.105553" target-y="0.1270486"></path><path d="M 1238.93 58.74 L 1235.04 71.49 L 1231.72 84.33 L 1228.96 97.27 L 1226.76 110.33 L 1225.12 123.51 L 1224.04 136.82 L 1223.83 138.02 L 1223.35 139.07 L 1222.60 140.01 L 1220.29 142.33 L 1219.75 142.69 L 1219.15 142.88 L 1218.52 142.87 L 1217.90 142.68 L 1217.37 142.31 L 1216.99 141.81 L 1216.76 141.22 L 1216.72 140.58 L 1218.74 123.55 L 1221.31 103.81 L 1222.96 93.62 L 1224.93 83.69 L 1226.49 77.14 L 1228.21 71.09 L 1230.09 65.51 L 1232.34 60.07 L 1234.75 55.46 L 1237.31 51.60 L 1238.68 50.32 L 1240.32 49.53 L 1242.12 49.25 L 1243.97 49.54 L 1245.66 50.37 L 1246.98 51.62 L 1247.87 53.21 L 1248.26 55.05 L 1248.56 63.52 L 1248.78 76.83 L 1248.73 92.85 L 1248.25 109.47 L 1247.79 117.51 L 1247.18 124.59 L 1246.32 131.21 L 1245.34 136.10 L 1244.39 139.13 L 1243.46 140.93 L 1242.56 141.89 L 1241.28 142.58 L 1240.51 142.66 L 1240.01 142.38 L 1239.69 141.67 L 1239.62 140.20 L 1244.32 59.80 L 1244.23 58.77 L 1243.80 57.87 L 1243.08 57.19 L 1242.11 56.80 L 1241.07 56.80 L 1240.15 57.15 L 1239.41 57.81 L 1238.93 58.74 L 1238.93 58.74 Z" fill="#020103" fill-rule="nonzero" group-id="1" id="路径" node-id="7" stroke="none" target-height="93.62226" target-width="32.053223" target-x="1216.7225" target-y="49.253136"></path><path d="M 857.83 92.46 L 862.40 97.52 L 870.85 106.44 L 881.76 117.84 L 893.76 130.34 L 905.46 142.57 L 915.45 153.15 L 922.35 160.70 L 924.51 163.32 L 924.78 163.85 L 923.95 164.91 L 923.13 165.32 L 922.22 165.26 L 921.08 164.60 L 908.59 154.12 L 896.55 143.24 L 884.95 131.97 L 873.77 120.30 L 863.03 108.22 L 852.70 95.72 L 850.72 92.76 L 849.32 89.58 L 848.47 86.41 L 848.35 84.09 L 848.76 82.39 L 849.61 81.13 L 850.93 80.22 L 852.88 79.64 L 855.70 79.51 L 857.57 79.73 L 859.31 80.29 L 860.96 81.20 L 878.18 93.09 L 895.01 105.48 L 911.45 118.38 L 927.50 131.79 L 943.17 145.71 L 944.20 147.01 L 944.44 148.10 L 944.05 149.15 L 942.86 150.28 L 942.30 150.07 L 939.46 148.17 L 931.18 142.02 L 919.50 133.03 L 905.91 122.42 L 891.89 111.40 L 878.91 101.20 L 868.46 93.02 L 862.02 88.08 L 861.01 87.62 L 859.96 87.54 L 858.94 87.82 L 858.04 88.47 L 857.43 89.39 L 857.19 90.43 L 857.32 91.48 L 857.83 92.46 L 857.83 92.46 Z" fill="#020103" fill-rule="nonzero" group-id="1" id="路径" node-id="8" stroke="none" target-height="85.81452" target-width="96.083496" target-x="848.35406" target-y="79.50997"></path><path d="M 1174.30 163.67 L 1173.88 164.34 L 1173.11 164.54 L 1134.82 158.91 L 1134.19 158.64 L 1133.69 158.02 L 1133.44 157.18 L 1133.44 156.22 L 1133.63 154.66 L 1133.90 153.71 L 1134.40 152.98 L 1135.07 152.53 L 1135.76 152.47 L 1174.05 158.16 L 1174.45 158.29 L 1174.77 158.56 L 1174.96 158.93 L 1174.99 159.35 L 1174.30 163.67 Z" fill="#020103" fill-rule="nonzero" group-id="1" id="路径" node-id="9" stroke="none" target-height="12.075821" target-width="41.55298" target-x="1133.436" target-y="152.46545"></path><path d="M 1027.33 160.10 L 989.53 166.73 L 988.24 166.76 L 987.53 166.39 L 987.20 165.67 L 987.28 164.35 L 987.72 163.41 L 988.63 162.46 L 990.19 161.47 L 992.87 160.31 L 996.51 159.18 L 1000.41 158.26 L 1004.72 157.46 L 1013.28 156.26 L 1020.68 155.57 L 1025.39 155.34 L 1026.44 155.53 L 1027.21 156.06 L 1027.76 156.97 L 1028.33 158.47 L 1028.41 159.29 L 1028.10 159.79 L 1027.33 160.10 Z" fill="#020103" fill-rule="nonzero" group-id="1" id="路径" node-id="10" stroke="none" target-height="11.411713" target-width="41.206238" target-x="987.20013" target-y="155.34363"></path><path d="M 1086.58 165.98 L 1081.38 166.30 L 1076.28 166.18 L 1071.24 165.64 L 1066.24 164.67 L 1063.01 163.71 L 1061.80 163.05 L 1061.55 162.60 L 1061.83 162.17 L 1063.08 161.61 L 1066.37 160.91 L 1072.81 160.11 L 1079.10 159.83 L 1085.27 160.08 L 1091.34 160.83 L 1097.34 162.08 L 1103.27 163.86 L 1109.17 166.17 L 1111.95 167.58 L 1112.96 168.43 L 1113.12 168.95 L 1112.77 169.37 L 1111.50 169.78 L 1108.35 170.05 L 1104.22 169.92 L 1100.25 169.35 L 1096.42 168.35 L 1092.71 166.92 L 1090.72 166.23 L 1088.68 165.92 L 1086.58 165.98 Z" fill="#020103" fill-rule="nonzero" group-id="1" id="路径" node-id="11" stroke="none" target-height="10.213074" target-width="51.573242" target-x="1061.5514" target-y="159.83427"></path><path d="M 1023.95 182.19 L 1023.42 181.86 L 1023.32 181.25 L 1023.32 181.25 L 1023.79 180.24 L 1024.79 179.31 L 1026.53 178.47 L 1029.56 177.71 L 1033.79 177.32 L 1038.35 177.43 L 1043.59 178.06 L 1045.78 178.43 L 1050.96 179.53 L 1055.31 180.90 L 1059.20 182.64 L 1061.82 184.34 L 1063.18 185.70 L 1063.82 186.90 L 1063.93 188.00 L 1063.93 188.00 L 1063.62 188.50 L 1063.05 188.63 L 1023.95 182.19 Z" fill="#020103" fill-rule="nonzero" group-id="1" id="路径" node-id="12" stroke="none" target-height="11.306641" target-width="40.60724" target-x="1023.3217" target-y="177.32372"></path><path d="M 1161.04 193.64 L 1160.87 194.13 L 1160.52 194.51 L 1160.05 194.74 L 1159.53 194.76 L 1158.60 194.64 L 1143.28 192.35 L 1130.81 190.13 L 1122.44 188.22 L 1119.86 187.30 L 1119.43 186.88 L 1119.87 183.69 L 1120.23 183.38 L 1122.77 183.15 L 1126.07 183.21 L 1131.37 183.54 L 1144.35 184.78 L 1159.66 186.69 L 1160.66 186.82 L 1161.15 186.98 L 1161.54 187.33 L 1161.76 187.80 L 1161.79 188.32 L 1161.04 193.64 Z" fill="#020103" fill-rule="nonzero" group-id="1" id="路径" node-id="13" stroke="none" target-height="11.610291" target-width="42.35913" target-x="1119.4277" target-y="183.15182"></path><path d="M 898.43 186.75 L 890.05 202.04 L 881.80 217.92 L 873.66 234.42 L 865.92 251.11 L 858.50 268.21 L 851.41 285.74 L 844.79 303.46 L 838.68 321.42 L 833.08 339.64 L 829.26 353.43 L 825.83 367.25 L 822.78 381.13 L 820.11 395.07 L 817.85 409.09 L 816.06 423.08 L 814.75 437.03 L 813.90 450.96 L 813.57 464.93 L 813.79 478.80 L 814.56 492.57 L 815.89 506.26 L 817.39 517.17 L 819.30 527.99 L 821.61 538.71 L 824.35 549.35 L 827.50 559.91 L 831.06 570.30 L 835.10 580.58 L 839.62 590.76 L 844.63 600.85 L 850.13 610.85 L 850.73 612.33 L 850.83 613.79 L 850.44 615.29 L 849.93 616.02 L 849.31 616.30 L 848.49 616.18 L 847.32 615.48 L 846.63 614.84 L 846.06 614.04 L 840.35 603.98 L 835.15 593.85 L 830.45 583.63 L 826.23 573.33 L 822.50 562.92 L 819.18 552.33 L 816.28 541.67 L 813.81 530.94 L 811.75 520.12 L 810.12 509.21 L 808.62 495.51 L 807.68 481.74 L 807.30 467.87 L 807.50 453.90 L 808.21 439.97 L 809.39 426.01 L 811.06 412.01 L 813.21 397.98 L 815.78 384.03 L 818.74 370.13 L 822.08 356.27 L 825.83 342.44 L 831.33 324.16 L 837.37 306.11 L 843.93 288.28 L 850.97 270.63 L 858.35 253.37 L 866.08 236.49 L 874.19 219.79 L 882.46 203.65 L 890.86 188.07 L 898.43 186.75 Z" fill="#020103" fill-rule="nonzero" group-id="1" id="路径" node-id="14" stroke="none" target-height="429.54443" target-width="91.13104" target-x="807.3029" target-y="186.75328"></path><path d="M 1106.60 211.09 L 1098.44 208.61 L 1093.89 207.40 L 1089.16 206.36 L 1084.41 205.64 L 1079.91 205.36 L 1076.94 205.49 L 1074.26 205.93 L 1071.81 206.65 L 1070.03 207.15 L 1069.13 207.06 L 1068.70 206.62 L 1068.63 205.72 L 1069.18 203.96 L 1070.12 201.83 L 1070.70 200.95 L 1071.48 200.42 L 1072.50 200.21 L 1079.76 200.11 L 1086.93 200.56 L 1094.03 201.55 L 1101.08 203.10 L 1108.10 205.21 L 1109.56 205.91 L 1110.25 206.63 L 1110.44 207.42 L 1110.15 208.37 L 1109.17 209.65 L 1108.04 210.72 L 1107.36 211.12 L 1106.60 211.09 Z" fill="#020103" fill-rule="nonzero" group-id="1" id="路径" node-id="15" stroke="none" target-height="11.019211" target-width="41.807983" target-x="1068.6329" target-y="200.10573"></path><path d="M 438.36 304.82 L 431.87 307.33 L 426.24 309.99 L 421.38 312.81 L 417.93 315.23 L 414.74 317.90 L 411.82 320.82 L 409.13 324.01 L 405.98 328.58 L 402.99 333.98 L 400.20 340.30 L 399.43 341.82 L 398.87 342.32 L 398.40 342.30 L 397.87 341.75 L 397.19 340.17 L 396.00 336.42 L 395.73 334.92 L 395.84 333.50 L 396.32 332.10 L 399.32 326.57 L 402.68 321.59 L 406.41 317.12 L 410.50 313.13 L 414.99 309.59 L 419.90 306.48 L 425.25 303.80 L 431.10 301.55 L 437.49 299.75 L 438.88 299.63 L 439.60 299.96 L 439.93 300.68 L 439.80 302.07 L 439.36 303.69 L 439.02 304.42 L 438.36 304.82 Z" fill="#020103" fill-rule="nonzero" group-id="1" id="路径" node-id="16" stroke="none" target-height="42.69156" target-width="44.195618" target-x="395.73273" target-y="299.62753"></path><path d="M 1236.06 406.12 L 1238.81 408.21 L 1241.01 409.24 L 1242.81 409.52 L 1244.35 409.18 L 1245.75 408.25 L 1247.07 406.55 L 1248.31 403.80 L 1249.38 399.61 L 1252.32 382.88 L 1254.74 366.03 L 1256.67 349.07 L 1258.08 331.98 L 1258.76 324.61 L 1259.30 322.20 L 1259.66 321.79 L 1260.04 322.18 L 1260.70 324.57 L 1261.77 331.91 L 1262.17 336.67 L 1262.35 343.15 L 1262.27 350.09 L 1261.93 358.04 L 1261.34 366.18 L 1260.48 374.59 L 1259.35 382.95 L 1257.96 390.84 L 1256.24 398.41 L 1254.34 404.80 L 1252.77 408.86 L 1251.18 412.05 L 1249.57 414.50 L 1247.36 416.97 L 1245.41 418.46 L 1243.65 419.22 L 1242.00 419.39 L 1240.39 419.02 L 1238.73 418.06 L 1236.96 416.34 L 1235.06 413.63 L 1227.74 400.85 L 1223.83 393.60 L 1219.81 385.73 L 1215.97 377.67 L 1212.38 369.45 L 1209.16 361.16 L 1206.54 353.17 L 1205.10 347.80 L 1204.06 342.76 L 1203.40 338.05 L 1203.13 333.59 L 1203.34 331.92 L 1203.68 331.51 L 1204.18 331.70 L 1205.19 333.05 L 1207.15 337.04 L 1210.71 346.11 L 1215.42 359.10 L 1220.81 373.79 L 1226.37 387.99 L 1229.15 394.43 L 1231.61 399.50 L 1233.40 402.68 L 1234.86 404.80 L 1236.06 406.12 Z" fill="#020103" fill-rule="nonzero" group-id="1" id="路径" node-id="17" stroke="none" target-height="97.5921" target-width="59.222534" target-x="1203.1274" target-y="321.79294"></path><path d="M 358.65 344.61 L 353.53 346.33 L 349.05 348.10 L 345.14 349.91 L 341.38 352.02 L 338.02 354.32 L 335.02 356.82 L 332.27 359.61 L 329.71 362.78 L 327.31 366.37 L 325.20 370.15 L 323.11 374.53 L 321.05 379.59 L 319.68 382.61 L 318.80 383.75 L 318.23 383.96 L 317.73 383.61 L 317.19 382.29 L 316.67 379.03 L 316.66 375.82 L 317.17 372.60 L 318.22 369.34 L 319.68 366.21 L 321.53 363.11 L 323.78 360.04 L 327.59 355.75 L 331.87 351.76 L 336.46 348.17 L 341.04 345.12 L 345.70 342.55 L 349.82 340.75 L 352.61 339.85 L 354.89 339.38 L 356.74 339.27 L 358.49 339.55 L 359.63 340.23 L 360.34 341.30 L 360.59 342.52 L 360.39 343.41 L 359.79 344.09 L 358.65 344.61 Z" fill="#020103" fill-rule="nonzero" group-id="1" id="路径" node-id="18" stroke="none" target-height="44.687103" target-width="43.931274" target-x="316.65598" target-y="339.2679"></path><path d="M 439.11 344.30 L 431.79 346.92 L 425.61 349.64 L 421.74 351.72 L 418.25 354.01 L 415.10 356.50 L 412.23 359.28 L 409.58 362.46 L 407.16 366.06 L 405.08 369.88 L 403.13 374.35 L 401.32 379.53 L 400.39 381.91 L 399.69 382.88 L 399.15 383.11 L 398.61 382.86 L 397.96 381.87 L 397.13 379.47 L 396.64 376.31 L 396.76 373.18 L 397.49 370.01 L 398.72 366.95 L 400.39 363.90 L 402.54 360.85 L 406.27 356.59 L 410.63 352.57 L 415.33 348.92 L 420.13 345.75 L 425.02 343.01 L 429.42 340.97 L 433.68 339.47 L 436.85 338.81 L 438.85 338.80 L 440.08 339.18 L 440.80 339.86 L 441.38 341.17 L 441.46 342.17 L 441.15 342.98 L 440.43 343.69 L 439.11 344.30 Z" fill="#020103" fill-rule="nonzero" group-id="1" id="路径" node-id="19" stroke="none" target-height="44.31378" target-width="44.818512" target-x="396.64148" target-y="338.79672"></path><path d="M 1075.82 431.09 L 1078.75 417.11 L 1081.22 403.07 L 1083.25 388.96 L 1084.83 374.78 L 1085.95 360.51 L 1086.19 359.46 L 1086.70 358.62 L 1087.52 357.94 L 1088.89 357.13 L 1089.94 356.83 L 1090.99 357.11 L 1091.76 357.89 L 1092.02 358.94 L 1091.42 372.17 L 1090.20 385.24 L 1088.37 398.18 L 1085.93 411.01 L 1082.87 423.72 L 1079.20 436.34 L 1078.50 437.84 L 1077.46 439.09 L 1076.15 440.04 L 1074.60 440.63 L 1072.95 440.81 L 1071.35 440.57 L 1069.87 439.93 L 1068.56 438.91 L 1065.28 435.27 L 1062.04 431.11 L 1058.84 426.37 L 1054.44 418.89 L 1050.24 410.66 L 1046.37 402.14 L 1042.78 393.44 L 1039.45 384.70 L 1036.46 376.38 L 1031.27 361.13 L 1031.12 359.92 L 1031.48 358.98 L 1032.39 358.19 L 1034.08 357.13 L 1035.06 356.76 L 1035.77 356.83 L 1036.35 357.26 L 1036.84 358.19 L 1041.63 372.30 L 1047.41 388.80 L 1050.66 397.33 L 1054.12 405.69 L 1057.86 413.78 L 1061.69 420.98 L 1064.51 425.55 L 1067.30 429.41 L 1070.06 432.65 L 1071.61 434.01 L 1072.76 434.54 L 1073.66 434.54 L 1074.43 434.09 L 1075.16 433.05 L 1075.82 431.09 Z" fill="#020103" fill-rule="nonzero" group-id="1" id="路径" node-id="20" stroke="none" target-height="84.044586" target-width="60.905396" target-x="1031.1176" target-y="356.76483"></path><path d="M 289.39 387.29 L 283.40 389.32 L 277.91 391.66 L 272.88 394.30 L 269.30 396.59 L 266.00 399.16 L 262.98 401.99 L 260.22 405.12 L 257.81 408.47 L 255.66 412.23 L 253.80 416.43 L 252.22 421.14 L 251.58 422.49 L 250.80 423.11 L 249.80 423.19 L 248.40 422.64 L 247.49 421.88 L 246.76 420.80 L 246.28 419.54 L 246.05 418.20 L 246.08 416.87 L 246.40 415.69 L 249.03 410.09 L 251.99 405.05 L 255.26 400.54 L 258.86 396.51 L 262.79 392.93 L 267.06 389.78 L 271.71 387.04 L 276.77 384.72 L 282.27 382.82 L 288.26 381.34 L 289.44 381.35 L 290.39 381.87 L 291.20 382.97 L 291.73 384.51 L 291.60 385.64 L 290.88 386.54 L 289.39 387.29 Z" fill="#020103" fill-rule="nonzero" group-id="1" id="路径" node-id="21" stroke="none" target-height="41.8497" target-width="45.686234" target-x="246.04521" target-y="381.34296"></path><path d="M 347.95 405.56 L 343.12 407.26 L 338.87 409.05 L 335.16 410.91 L 331.60 413.04 L 328.39 415.36 L 325.51 417.87 L 322.87 420.62 L 320.39 423.71 L 318.06 427.15 L 314.94 432.73 L 311.85 439.47 L 310.77 441.46 L 309.99 442.12 L 309.34 442.09 L 308.61 441.36 L 307.72 439.28 L 307.05 436.11 L 307.01 433.03 L 307.59 429.99 L 308.68 427.06 L 310.24 424.16 L 312.29 421.27 L 314.63 418.58 L 317.27 415.99 L 320.23 413.47 L 324.93 410.03 L 329.85 406.97 L 334.87 404.27 L 339.55 402.12 L 344.12 400.38 L 347.76 399.30 L 349.28 399.13 L 350.21 399.36 L 350.78 399.91 L 351.06 400.83 L 350.95 402.37 L 350.44 403.73 L 349.47 404.78 L 347.95 405.56 Z" fill="#221425" fill-rule="nonzero" group-id="1" id="路径" node-id="22" stroke="none" target-height="42.99353" target-width="44.044983" target-x="307.01218" target-y="399.12692"></path><path d="M 1400.30 468.06 L 1403.68 471.44 L 1403.82 472.25 L 1403.49 473.44 L 1402.76 474.51 L 1401.81 475.05 L 1400.55 475.13 L 1377.94 473.25 L 1363.80 472.31 L 1346.94 471.40 L 1329.26 470.69 L 1309.61 470.20 L 1289.43 470.03 L 1268.02 470.26 L 1246.36 470.95 L 1224.26 472.19 L 1209.49 473.36 L 1194.87 474.84 L 1180.38 476.62 L 1165.94 478.77 L 1151.97 481.29 L 1138.45 484.16 L 1125.05 487.52 L 1112.43 491.28 L 1100.56 495.42 L 1091.74 498.98 L 1083.52 502.77 L 1075.87 506.79 L 1068.76 511.03 L 1061.85 515.79 L 1055.63 520.80 L 1050.07 526.07 L 1045.12 531.60 L 1041.53 536.37 L 1038.41 541.35 L 1035.74 546.56 L 1033.52 552.02 L 1031.73 557.74 L 1030.48 563.49 L 1029.72 569.56 L 1029.47 575.99 L 1029.77 582.81 L 1030.64 590.07 L 1030.67 590.70 L 1030.50 591.28 L 1030.15 591.78 L 1029.65 592.15 L 1029.05 592.33 L 1028.44 592.31 L 1027.87 592.10 L 1027.39 591.70 L 1026.27 590.26 L 1025.36 588.48 L 1024.68 586.30 L 1024.26 583.63 L 1023.84 576.50 L 1023.95 569.78 L 1024.57 563.43 L 1025.68 557.41 L 1027.25 551.70 L 1029.34 546.06 L 1031.84 540.67 L 1034.77 535.52 L 1038.14 530.58 L 1041.95 525.85 L 1047.14 520.36 L 1052.92 515.14 L 1059.32 510.17 L 1066.40 505.46 L 1073.65 501.24 L 1081.42 497.24 L 1089.73 493.47 L 1098.62 489.93 L 1110.57 485.79 L 1123.24 482.03 L 1136.64 478.66 L 1150.16 475.77 L 1164.12 473.23 L 1178.52 471.04 L 1192.97 469.21 L 1207.55 467.68 L 1222.26 466.46 L 1244.30 465.12 L 1265.92 464.32 L 1287.30 463.98 L 1307.52 464.02 L 1327.24 464.37 L 1345.09 464.94 L 1362.18 465.70 L 1376.68 466.49 L 1400.30 468.06 Z" fill="#020103" fill-rule="nonzero" group-id="1" id="路径" node-id="23" stroke="none" target-height="128.35696" target-width="379.98718" target-x="1023.83765" target-y="463.9767"></path><path d="M 280.06 474.32 L 273.92 476.65 L 268.48 479.13 L 263.66 481.73 L 260.22 483.96 L 257.07 486.44 L 254.19 489.16 L 251.56 492.13 L 249.26 495.30 L 247.14 498.92 L 245.20 503.02 L 243.46 507.67 L 241.57 512.60 L 240.44 514.45 L 239.79 514.85 L 239.28 514.53 L 238.75 513.03 L 238.33 508.92 L 238.13 507.89 L 237.70 507.17 L 236.89 506.01 L 236.65 504.77 L 236.95 503.35 L 239.52 497.65 L 242.45 492.51 L 245.74 487.91 L 249.38 483.79 L 253.40 480.12 L 257.81 476.88 L 262.64 474.07 L 267.93 471.68 L 273.72 469.71 L 280.06 468.19 L 281.47 468.12 L 282.17 468.48 L 282.46 469.23 L 282.25 470.63 L 281.57 472.82 L 281.00 473.76 L 280.06 474.32 Z" fill="#221425" fill-rule="nonzero" group-id="1" id="路径" node-id="24" stroke="none" target-height="46.72644" target-width="45.815277" target-x="236.64786" target-y="468.12244"></path><path d="M 207.80 476.39 L 202.41 482.26 L 197.93 487.38 L 195.18 490.82 L 192.81 494.23 L 190.79 497.60 L 189.10 501.14 L 187.75 504.99 L 186.73 509.20 L 186.14 513.48 L 185.90 518.49 L 186.09 524.31 L 186.05 526.73 L 185.71 527.89 L 185.23 528.35 L 184.56 528.36 L 183.50 527.77 L 181.77 526.07 L 180.25 524.00 L 179.11 521.85 L 178.32 519.58 L 177.89 517.18 L 177.79 513.90 L 178.15 510.47 L 179.02 506.84 L 180.25 503.31 L 181.82 499.75 L 183.73 496.16 L 187.00 491.01 L 190.61 486.22 L 194.49 481.80 L 198.23 478.14 L 202.04 475.01 L 205.17 473.01 L 209.21 471.07 L 210.90 470.63 L 211.46 470.82 L 211.50 471.40 L 210.67 472.93 L 207.80 476.39 Z" fill="#221425" fill-rule="nonzero" group-id="1" id="路径" node-id="25" stroke="none" target-height="57.72583" target-width="33.710434" target-x="177.78836" target-y="470.63312"></path><path d="M 1444.85 566.86 L 1443.30 565.16 L 1441.43 563.91 L 1439.31 563.16 L 1437.02 562.95 L 1434.75 563.31 L 1432.68 564.20 L 1430.89 565.56 L 1429.46 567.36 L 1422.04 580.20 L 1415.22 593.25 L 1409.00 606.54 L 1403.37 620.06 L 1398.32 633.84 L 1393.86 647.89 L 1393.14 649.56 L 1392.15 650.90 L 1390.85 651.95 L 1389.76 652.26 L 1388.69 651.91 L 1387.99 651.02 L 1387.91 649.89 L 1390.99 637.75 L 1394.58 625.91 L 1398.68 614.34 L 1403.28 603.04 L 1408.40 591.99 L 1414.04 581.18 L 1420.20 570.59 L 1426.89 560.23 L 1428.50 558.32 L 1430.44 556.82 L 1432.66 555.76 L 1435.08 555.18 L 1437.57 555.12 L 1439.98 555.59 L 1442.24 556.54 L 1444.29 557.98 L 1446.87 560.54 L 1449.34 563.52 L 1451.69 566.96 L 1453.92 570.91 L 1456.46 576.31 L 1458.80 582.28 L 1460.92 588.86 L 1463.55 598.97 L 1465.71 609.68 L 1467.40 620.53 L 1468.67 631.20 L 1469.61 641.72 L 1470.22 651.27 L 1470.60 660.37 L 1470.75 667.72 L 1470.59 669.10 L 1470.18 669.87 L 1469.59 670.25 L 1468.71 670.28 L 1467.37 669.85 L 1467.20 669.32 L 1466.58 665.92 L 1464.93 655.68 L 1462.57 641.01 L 1459.63 623.77 L 1456.25 605.86 L 1454.42 597.12 L 1452.57 589.16 L 1450.60 581.60 L 1448.73 575.53 L 1447.30 571.66 L 1446.01 568.84 L 1444.85 566.86 Z" fill="#221425" fill-rule="nonzero" group-id="1" id="路径" node-id="26" stroke="none" target-height="115.16016" target-width="82.84143" target-x="1387.9114" target-y="555.12445"></path><path d="M 1167.17 597.39 L 1163.47 607.49 L 1160.37 617.67 L 1157.86 627.96 L 1155.93 638.36 L 1154.58 648.91 L 1153.82 659.61 L 1153.65 670.47 L 1153.38 671.86 L 1152.59 672.98 L 1151.03 674.54 L 1150.07 675.04 L 1149.00 674.94 L 1148.16 674.26 L 1147.83 673.23 L 1148.32 658.19 L 1148.86 649.70 L 1149.71 640.63 L 1150.89 631.52 L 1152.48 622.58 L 1153.81 616.69 L 1155.36 611.19 L 1157.10 606.08 L 1159.20 601.10 L 1161.52 596.81 L 1164.04 593.14 L 1166.56 590.36 L 1169.02 588.29 L 1171.45 586.82 L 1173.87 585.88 L 1176.46 585.36 L 1179.07 585.25 L 1181.74 585.56 L 1184.50 586.31 L 1188.02 587.80 L 1191.65 589.88 L 1195.41 592.60 L 1198.94 595.63 L 1202.49 599.06 L 1206.05 602.92 L 1211.09 609.01 L 1215.89 615.45 L 1220.39 622.04 L 1224.39 628.34 L 1228.07 634.53 L 1231.02 639.79 L 1235.24 647.95 L 1235.67 649.37 L 1235.49 650.23 L 1234.81 650.80 L 1233.37 651.08 L 1231.55 651.08 L 1230.47 650.80 L 1229.74 649.95 L 1223.97 638.96 L 1220.29 632.52 L 1215.99 625.52 L 1211.34 618.59 L 1206.33 611.90 L 1202.75 607.63 L 1199.13 603.80 L 1195.47 600.39 L 1191.54 597.31 L 1187.70 594.96 L 1183.92 593.25 L 1180.94 592.39 L 1178.01 592.03 L 1175.11 592.15 L 1172.17 592.76 L 1170.48 593.49 L 1169.10 594.49 L 1168.01 595.77 L 1167.17 597.39 Z" fill="#020103" fill-rule="nonzero" group-id="1" id="路径" node-id="27" stroke="none" target-height="89.79309" target-width="87.83972" target-x="1147.834" target-y="585.2504"></path><path d="M 1117.80 988.51 L 1119.05 1028.18 L 1119.29 1029.54 L 1119.85 1030.40 L 1120.75 1030.91 L 1122.12 1031.06 L 1164.66 1029.12 L 1166.30 1028.79 L 1167.31 1028.08 L 1167.88 1027.00 L 1167.98 1025.37 L 1165.92 997.02 L 1171.92 998.34 L 1174.68 1031.25 L 1174.63 1032.80 L 1174.25 1033.91 L 1173.56 1034.71 L 1172.51 1035.25 L 1170.98 1035.50 L 1122.24 1037.75 L 1118.93 1037.64 L 1116.40 1037.00 L 1114.48 1035.95 L 1113.04 1034.48 L 1112.01 1032.54 L 1111.42 1030.00 L 1111.36 1026.68 L 1113.17 998.40 L 1113.08 996.64 L 1112.61 995.42 L 1111.80 994.58 L 1110.61 994.06 L 1108.85 993.89 L 1088.33 994.39 L 1068.55 992.85 L 1047.55 990.71 L 1033.47 988.96 L 1019.15 986.87 L 1004.60 984.44 L 990.12 981.66 L 975.71 978.48 L 961.36 974.90 L 947.13 970.87 L 933.24 966.39 L 919.69 961.45 L 909.64 957.36 L 899.93 952.99 L 890.55 948.34 L 881.49 943.40 L 872.60 938.05 L 864.18 932.38 L 856.19 926.40 L 848.62 920.10 L 842.81 914.73 L 837.35 909.13 L 832.23 903.29 L 827.44 897.21 L 822.98 890.87 L 818.90 884.32 L 815.20 877.48 L 811.89 870.33 L 808.97 862.87 L 806.43 855.06 L 804.41 847.26 L 802.83 839.08 L 801.70 830.50 L 801.03 821.48 L 800.86 812.00 L 801.19 802.84 L 802.05 793.19 L 803.47 783.03 L 805.49 772.31 L 808.15 761.01 L 810.19 754.84 L 814.54 742.89 L 820.53 727.23 L 827.50 709.92 L 834.82 693.01 L 838.49 685.16 L 841.82 678.58 L 845.18 672.63 L 847.85 668.67 L 849.83 666.44 L 851.23 665.50 L 852.26 665.34 L 853.33 665.73 L 854.16 666.38 L 854.79 667.33 L 855.07 668.43 L 855.00 669.48 L 854.57 670.54 L 845.85 685.56 L 838.23 699.80 L 831.64 713.29 L 826.01 726.08 L 821.28 738.19 L 817.56 749.02 L 814.46 759.37 L 811.95 769.26 L 809.99 778.70 L 808.54 787.74 L 807.60 796.38 L 807.07 805.49 L 807.00 814.21 L 807.40 822.57 L 808.22 830.58 L 809.47 838.28 L 811.13 845.68 L 813.74 854.60 L 816.89 863.13 L 820.56 871.30 L 824.76 879.13 L 829.51 886.64 L 834.73 893.82 L 840.41 900.72 L 846.56 907.35 L 853.19 913.71 L 860.33 919.81 L 867.69 925.48 L 875.44 930.91 L 883.60 936.10 L 892.19 941.05 L 901.22 945.76 L 912.61 951.12 L 924.49 956.12 L 936.88 960.77 L 949.80 965.05 L 962.77 968.86 L 976.07 972.33 L 989.70 975.46 L 1003.68 978.23 L 1022.37 981.35 L 1041.29 983.90 L 1060.47 985.87 L 1079.70 987.28 L 1098.81 988.16 L 1117.80 988.51 Z" fill="#020103" fill-rule="nonzero" group-id="1" id="路径" node-id="28" stroke="none" target-height="372.41083" target-width="373.81586" target-x="800.8603" target-y="665.3438"></path><path d="M 286.32 1117.72 L 297.88 1113.83 L 308.82 1109.56 L 319.18 1104.90 L 328.99 1099.87 L 338.26 1094.47 L 347.38 1088.51 L 356.02 1082.22 L 364.20 1075.61 L 371.94 1068.68 L 379.24 1061.41 L 386.22 1053.76 L 392.82 1045.84 L 399.04 1037.63 L 404.90 1029.13 L 410.40 1020.34 L 416.75 1009.06 L 422.61 997.43 L 427.97 985.43 L 432.85 973.05 L 437.21 960.51 L 441.14 947.72 L 444.65 934.66 L 447.73 921.33 L 450.38 907.94 L 452.67 894.42 L 454.59 880.77 L 456.15 866.98 L 457.72 848.56 L 458.75 830.17 L 459.26 811.79 L 459.30 793.41 L 458.93 775.34 L 458.17 757.56 L 457.04 739.79 L 455.65 722.63 L 454.01 706.08 L 454.09 704.97 L 454.62 704.39 L 455.70 704.20 L 457.45 704.26 L 458.20 704.50 L 458.57 705.20 L 460.83 721.35 L 462.74 738.26 L 464.28 755.97 L 465.34 773.69 L 465.92 791.85 L 466.01 810.46 L 465.55 829.05 L 464.49 847.77 L 462.83 866.61 L 461.16 880.70 L 459.11 894.69 L 456.66 908.58 L 453.81 922.37 L 450.53 936.09 L 446.80 949.54 L 442.64 962.73 L 438.03 975.68 L 432.89 988.47 L 427.27 1000.86 L 421.15 1012.86 L 414.54 1024.49 L 408.83 1033.57 L 402.77 1042.32 L 396.35 1050.76 L 389.57 1058.90 L 382.43 1066.73 L 374.93 1074.19 L 367.03 1081.27 L 358.71 1087.99 L 349.95 1094.35 L 340.75 1100.35 L 331.35 1105.78 L 321.46 1110.80 L 311.06 1115.39 L 300.10 1119.56 L 288.57 1123.29 L 287.53 1123.42 L 286.76 1123.21 L 286.16 1122.68 L 285.70 1121.72 L 285.13 1120.03 L 284.99 1118.97 L 285.36 1118.25 L 286.32 1117.72 Z" fill="#020103" fill-rule="nonzero" group-id="1" id="路径" node-id="29" stroke="none" target-height="419.22418" target-width="181.01886" target-x="284.98962" target-y="704.1972"></path><path d="M 742.64 854.99 L 743.67 867.18 L 745.17 878.65 L 747.12 889.43 L 749.48 899.56 L 752.24 909.08 L 755.61 918.72 L 759.35 927.78 L 763.43 936.30 L 767.86 944.30 L 772.64 951.81 L 777.92 959.14 L 783.50 966.03 L 789.39 972.49 L 795.57 978.55 L 802.07 984.20 L 808.89 989.50 L 815.96 994.46 L 823.30 999.06 L 830.91 1003.32 L 838.80 1007.24 L 848.86 1011.63 L 859.25 1015.55 L 869.98 1018.99 L 881.07 1021.96 L 892.24 1024.44 L 903.63 1026.50 L 915.26 1028.14 L 927.14 1029.37 L 939.01 1030.18 L 950.98 1030.64 L 963.06 1030.74 L 975.25 1030.47 L 991.46 1029.60 L 1007.60 1028.20 L 1023.66 1026.27 L 1039.66 1023.85 L 1055.31 1021.02 L 1070.62 1017.80 L 1072.78 1017.56 L 1073.88 1017.87 L 1074.38 1018.52 L 1074.40 1019.68 L 1073.63 1021.74 L 1072.41 1023.40 L 1070.76 1024.62 L 1068.82 1025.49 L 1066.67 1026.09 L 1062.36 1026.75 L 1058.86 1027.24 L 1045.24 1030.21 L 1031.57 1032.77 L 1017.83 1034.92 L 1004.04 1036.66 L 990.17 1037.97 L 976.42 1038.80 L 962.78 1039.17 L 949.23 1039.06 L 935.65 1038.45 L 922.35 1037.31 L 909.29 1035.64 L 896.49 1033.46 L 886.25 1031.28 L 876.28 1028.73 L 866.56 1025.81 L 857.08 1022.53 L 847.83 1018.88 L 838.71 1014.79 L 829.91 1010.29 L 821.42 1005.39 L 813.22 1000.07 L 805.31 994.34 L 797.74 988.19 L 790.53 981.58 L 783.67 974.50 L 777.14 966.93 L 770.95 958.85 L 765.33 950.54 L 760.10 941.67 L 755.26 932.22 L 750.82 922.15 L 746.79 911.43 L 743.98 902.63 L 741.48 893.37 L 739.31 883.60 L 737.47 873.33 L 735.99 862.50 L 734.88 851.11 L 734.95 850.35 L 735.23 849.67 L 735.70 849.10 L 736.34 848.68 L 737.07 848.47 L 737.81 848.49 L 738.51 848.72 L 739.13 849.17 L 740.82 850.92 L 741.78 852.13 L 742.38 853.48 L 742.64 854.99 Z" fill="#221425" fill-rule="nonzero" group-id="1" id="路径" node-id="30" stroke="none" target-height="190.69641" target-width="339.52216" target-x="734.8785" target-y="848.4696"></path><path d="M 30.29 940.21 L 34.73 942.02 L 29.41 948.50 L 24.69 955.09 L 20.53 961.80 L 16.93 968.65 L 13.85 975.65 L 11.29 982.82 L 9.24 990.17 L 7.70 997.72 L 6.68 1005.50 L 6.17 1013.51 L 6.20 1021.80 L 6.46 1023.55 L 6.91 1024.33 L 7.50 1024.57 L 8.37 1024.32 L 9.77 1023.24 L 11.13 1021.64 L 12.40 1019.60 L 13.57 1017.06 L 14.98 1013.01 L 16.21 1008.31 L 18.15 998.44 L 19.87 988.93 L 20.83 984.62 L 21.84 981.25 L 22.85 979.02 L 23.60 978.11 L 24.17 977.91 L 24.72 978.17 L 25.37 979.17 L 26.16 981.51 L 27.80 989.06 L 28.88 996.32 L 29.61 1003.54 L 30.17 1010.63 L 30.73 1017.68 L 31.47 1024.73 L 32.56 1031.77 L 34.20 1038.95 L 35.64 1043.67 L 37.49 1048.55 L 39.80 1053.58 L 40.77 1054.92 L 42.05 1055.87 L 43.56 1056.41 L 45.20 1056.47 L 46.78 1056.02 L 48.10 1055.15 L 49.09 1053.92 L 49.69 1052.40 L 51.77 1042.35 L 53.38 1032.28 L 54.53 1022.16 L 55.22 1011.99 L 55.44 1001.76 L 55.19 991.45 L 55.32 989.55 L 55.80 988.53 L 56.54 988.05 L 57.66 988.03 L 59.45 988.70 L 60.87 989.70 L 62.09 990.99 L 63.12 992.61 L 64.37 995.25 L 65.41 997.98 L 66.44 1000.63 L 67.46 1002.65 L 68.32 1003.71 L 69.28 1004.27 L 70.40 1004.41 L 71.89 1004.01 L 72.87 1003.29 L 73.45 1002.24 L 73.65 1000.71 L 73.22 993.63 L 72.27 986.88 L 70.80 980.46 L 68.83 974.32 L 66.35 968.44 L 63.37 962.80 L 59.86 957.38 L 55.80 952.16 L 51.17 947.12 L 45.93 942.27 L 50.62 940.21 L 55.75 944.57 L 60.33 949.15 L 64.39 953.95 L 67.96 958.99 L 71.05 964.27 L 73.68 969.83 L 75.86 975.67 L 77.58 981.84 L 78.83 988.35 L 79.60 995.23 L 79.86 1002.54 L 79.59 1010.29 L 79.36 1011.45 L 78.84 1012.50 L 78.07 1013.37 L 77.08 1014.03 L 75.95 1014.41 L 74.79 1014.48 L 73.65 1014.26 L 72.59 1013.73 L 65.70 1009.22 L 64.76 1008.91 L 63.83 1009.22 L 63.51 1009.82 L 62.81 1012.38 L 61.30 1019.80 L 59.51 1029.66 L 57.68 1040.13 L 56.04 1049.38 L 54.82 1055.59 L 54.13 1057.52 L 53.08 1059.24 L 51.69 1060.71 L 50.01 1061.88 L 48.11 1062.67 L 46.13 1063.04 L 44.11 1063.00 L 42.11 1062.53 L 39.44 1061.27 L 37.11 1059.59 L 35.08 1057.44 L 33.36 1054.99 L 31.83 1052.23 L 30.49 1049.12 L 28.86 1044.27 L 27.49 1039.13 L 25.19 1029.03 L 24.00 1024.29 L 22.72 1020.36 L 21.94 1018.82 L 21.33 1018.28 L 20.79 1018.27 L 20.16 1018.79 L 19.34 1020.30 L 14.90 1031.00 L 14.08 1032.46 L 13.04 1033.64 L 11.74 1034.57 L 10.28 1035.20 L 8.73 1035.48 L 7.05 1035.42 L 5.44 1034.96 L 4.05 1034.22 L 2.85 1033.17 L 1.90 1031.89 L 1.27 1030.45 L 0.94 1028.81 L 0.46 1019.39 L 0.56 1010.45 L 1.21 1001.94 L 2.40 993.83 L 4.10 986.08 L 6.31 978.69 L 9.02 971.60 L 12.23 964.81 L 15.95 958.30 L 20.18 952.03 L 24.96 946.01 L 30.29 940.21 Z" fill="#020103" fill-rule="nonzero" group-id="1" id="路径" node-id="31" stroke="none" target-height="122.831726" target-width="79.40262" target-x="0.45818996" target-y="940.20953"></path><path d="M 45.93 942.27 L 51.17 947.12 L 55.80 952.16 L 59.86 957.38 L 63.37 962.80 L 66.35 968.44 L 68.83 974.32 L 70.80 980.46 L 72.27 986.88 L 73.22 993.63 L 73.65 1000.71 L 73.45 1002.24 L 72.87 1003.29 L 71.89 1004.01 L 70.40 1004.41 L 69.28 1004.27 L 68.32 1003.71 L 67.46 1002.65 L 66.44 1000.63 L 65.41 997.98 L 64.37 995.25 L 63.12 992.61 L 62.09 990.99 L 60.87 989.70 L 59.45 988.70 L 57.66 988.03 L 56.54 988.05 L 55.80 988.53 L 55.32 989.55 L 55.19 991.45 L 55.44 1001.76 L 55.22 1011.99 L 54.53 1022.16 L 53.38 1032.28 L 51.77 1042.35 L 49.69 1052.40 L 49.09 1053.92 L 48.10 1055.15 L 46.78 1056.02 L 45.20 1056.47 L 43.56 1056.41 L 42.05 1055.87 L 40.77 1054.92 L 39.80 1053.58 L 37.49 1048.55 L 35.64 1043.67 L 34.20 1038.95 L 32.56 1031.77 L 31.47 1024.73 L 30.73 1017.68 L 30.17 1010.63 L 29.61 1003.54 L 28.88 996.32 L 27.80 989.06 L 26.16 981.51 L 25.37 979.17 L 24.72 978.17 L 24.17 977.91 L 23.60 978.11 L 22.85 979.02 L 21.84 981.25 L 20.83 984.62 L 19.87 988.93 L 18.15 998.44 L 16.21 1008.31 L 14.98 1013.01 L 13.57 1017.06 L 12.40 1019.60 L 11.13 1021.64 L 9.77 1023.24 L 8.37 1024.32 L 7.50 1024.57 L 6.91 1024.33 L 6.46 1023.55 L 6.20 1021.80 L 6.17 1013.51 L 6.68 1005.50 L 7.70 997.72 L 9.24 990.17 L 11.29 982.82 L 13.85 975.65 L 16.93 968.65 L 20.53 961.80 L 24.69 955.09 L 29.41 948.50 L 34.73 942.02 L 45.93 942.27 Z" fill="#ffffff" fill-rule="nonzero" group-id="1" id="路径" node-id="32" stroke="none" target-height="114.44409" target-width="67.47879" target-x="6.1701956" target-y="942.02405"></path><path d="M 1377.27 960.23 L 1383.59 1031.37 L 1383.56 1032.90 L 1383.17 1033.99 L 1382.50 1034.76 L 1381.47 1035.27 L 1379.97 1035.50 L 1324.22 1037.82 L 1322.77 1037.65 L 1321.83 1037.10 L 1321.25 1036.17 L 1321.03 1034.69 L 1320.77 978.25 L 1326.78 978.00 L 1327.03 1027.37 L 1327.26 1029.07 L 1327.82 1030.24 L 1328.67 1031.04 L 1329.88 1031.51 L 1331.60 1031.62 L 1373.52 1029.37 L 1375.04 1029.05 L 1375.98 1028.40 L 1376.50 1027.39 L 1376.59 1025.87 L 1370.83 962.61 L 1377.27 960.23 Z" fill="#020103" fill-rule="nonzero" group-id="1" id="路径" node-id="33" stroke="none" target-height="77.58551" target-width="62.819336" target-x="1320.7748" target-y="960.2316"></path><path d="M 1370.83 962.61 L 1376.59 1025.87 L 1376.50 1027.39 L 1375.98 1028.40 L 1375.04 1029.05 L 1373.52 1029.37 L 1331.60 1031.62 L 1329.88 1031.51 L 1328.67 1031.04 L 1327.82 1030.24 L 1327.26 1029.07 L 1327.03 1027.37 L 1326.78 978.00 L 1333.67 974.16 L 1340.72 970.84 L 1347.94 968.03 L 1355.36 965.72 L 1362.98 963.91 L 1370.83 962.61 Z" fill="#ffffff" fill-rule="nonzero" group-id="1" id="路径" node-id="34" stroke="none" target-height="69.01355" target-width="49.80493" target-x="1326.7815" target-y="962.60925"></path><path d="M 1117.80 988.51 L 1165.92 997.02 L 1167.98 1025.37 L 1167.88 1027.00 L 1167.31 1028.08 L 1166.30 1028.79 L 1164.66 1029.12 L 1122.12 1031.06 L 1120.75 1030.91 L 1119.85 1030.40 L 1119.29 1029.54 L 1119.05 1028.18 L 1117.80 988.51 Z" fill="#ffffff" fill-rule="nonzero" group-id="1" id="路径" node-id="35" stroke="none" target-height="42.546875" target-width="50.180298" target-x="1117.8009" target-y="988.5128"></path><path d="M 560.81 1026.43 L 567.03 1026.67 L 572.46 1026.44 L 577.71 1025.73 L 582.85 1024.50 L 587.98 1022.78 L 593.66 1020.42 L 594.73 1020.11 L 595.61 1020.19 L 596.39 1020.62 L 597.10 1021.49 L 597.98 1022.99 L 598.28 1023.86 L 598.10 1024.53 L 597.41 1025.12 L 591.59 1027.92 L 585.69 1030.07 L 579.69 1031.59 L 573.55 1032.48 L 567.25 1032.75 L 560.75 1032.37 L 559.64 1032.03 L 559.07 1031.32 L 558.93 1030.12 L 559.00 1028.06 L 559.21 1027.08 L 559.77 1026.57 L 560.81 1026.43 Z" fill="#020103" fill-rule="nonzero" group-id="1" id="路径" node-id="36" stroke="none" target-height="12.636108" target-width="39.343628" target-x="558.9344" target-y="1020.11"></path><path d="M 522.33 1029.62 L 523.18 1029.63 L 523.94 1029.92 L 524.54 1030.46 L 524.94 1031.21 L 525.04 1032.05 L 524.85 1032.84 L 524.40 1033.51 L 523.71 1034.00 L 517.16 1036.49 L 510.57 1038.40 L 503.91 1039.74 L 497.16 1040.53 L 490.30 1040.76 L 488.82 1040.51 L 487.86 1039.90 L 487.26 1038.92 L 487.04 1037.44 L 487.04 1035.63 L 487.27 1034.98 L 487.98 1034.75 L 492.62 1034.59 L 499.46 1033.84 L 509.13 1032.27 L 522.33 1029.62 Z" fill="#020103" fill-rule="nonzero" group-id="1" id="路径" node-id="37" stroke="none" target-height="11.137329" target-width="38.00168" target-x="487.04257" target-y="1029.6206"></path><path d="M 608.30 1050.21 L 646.91 1042.70 L 650.34 1042.26 L 651.46 1042.47 L 651.63 1042.89 L 650.98 1043.82 L 648.22 1045.89 L 643.53 1048.69 L 638.80 1050.93 L 634.00 1052.63 L 629.13 1053.83 L 624.15 1054.52 L 619.04 1054.71 L 613.76 1054.39 L 608.30 1053.52 L 605.15 1052.66 L 604.25 1052.07 L 604.25 1051.62 L 605.15 1051.04 L 608.30 1050.21 Z" fill="#020103" fill-rule="nonzero" group-id="1" id="路径" node-id="38" stroke="none" target-height="12.449219" target-width="47.383606" target-x="604.2462" target-y="1042.2632"></path><path d="M 534.22 1056.02 L 538.78 1056.29 L 542.65 1056.26 L 545.91 1055.96 L 550.66 1055.10 L 554.84 1053.92 L 563.20 1051.07 L 567.71 1049.75 L 573.20 1048.58 L 576.53 1048.21 L 577.94 1048.38 L 578.39 1048.75 L 578.33 1049.34 L 577.45 1050.45 L 574.83 1052.52 L 570.10 1055.55 L 565.32 1058.02 L 560.49 1059.96 L 555.57 1061.38 L 550.55 1062.30 L 545.40 1062.73 L 540.09 1062.64 L 534.60 1062.03 L 533.36 1061.60 L 532.66 1060.78 L 532.41 1059.47 L 532.41 1057.65 L 532.62 1056.68 L 533.18 1056.16 L 534.22 1056.02 Z" fill="#020103" fill-rule="nonzero" group-id="1" id="路径" node-id="39" stroke="none" target-height="14.513184" target-width="45.988464" target-x="532.4051" target-y="1048.2119"></path><path d="M 441.81 1070.23 L 447.73 1070.35 L 453.49 1069.94 L 459.12 1068.99 L 464.65 1067.52 L 470.09 1065.49 L 475.47 1062.91 L 476.54 1062.57 L 477.39 1062.81 L 478.16 1063.66 L 479.03 1065.16 L 479.36 1066.12 L 479.18 1066.87 L 478.47 1067.54 L 477.09 1068.26 L 474.04 1069.58 L 466.07 1072.50 L 461.42 1073.96 L 456.60 1075.26 L 451.81 1076.29 L 447.63 1076.84 L 444.88 1076.93 L 442.77 1076.69 L 441.17 1076.20 L 440.17 1075.58 L 439.53 1074.76 L 439.21 1073.70 L 439.24 1072.29 L 439.56 1071.42 L 440.14 1070.76 L 440.91 1070.34 L 441.81 1070.23 L 441.81 1070.23 Z" fill="#020103" fill-rule="nonzero" group-id="1" id="路径" node-id="40" stroke="none" target-height="14.354248" target-width="40.149323" target-x="439.21323" target-y="1062.5729"></path><path d="M 646.41 1073.48 L 651.63 1073.40 L 655.76 1073.14 L 659.62 1072.66 L 662.99 1072.00 L 666.28 1071.11 L 669.68 1069.98 L 677.38 1067.04 L 678.72 1066.73 L 679.72 1066.92 L 680.51 1067.58 L 681.13 1068.85 L 681.16 1070.10 L 680.56 1071.37 L 679.12 1072.78 L 676.30 1074.51 L 672.19 1076.25 L 667.69 1077.65 L 662.74 1078.80 L 657.73 1079.60 L 653.16 1079.97 L 650.13 1079.98 L 647.73 1079.74 L 645.85 1079.31 L 644.54 1078.75 L 643.74 1078.08 L 643.31 1077.30 L 643.21 1076.36 L 643.55 1075.06 L 644.17 1074.20 L 645.09 1073.68 L 646.41 1073.48 Z" fill="#020103" fill-rule="nonzero" group-id="1" id="路径" node-id="41" stroke="none" target-height="13.249268" target-width="37.94763" target-x="643.21484" target-y="1066.726"></path><path d="M 568.95 1081.18 L 575.08 1081.41 L 580.44 1081.14 L 585.61 1080.33 L 590.65 1078.97 L 595.64 1077.06 L 601.11 1074.42 L 602.47 1073.89 L 603.34 1073.89 L 603.92 1074.25 L 604.30 1075.03 L 604.42 1076.48 L 604.03 1078.07 L 603.06 1079.61 L 601.36 1081.16 L 599.38 1082.44 L 596.96 1083.64 L 594.05 1084.75 L 589.52 1086.05 L 584.71 1086.98 L 579.88 1087.50 L 575.57 1087.57 L 572.74 1087.33 L 570.55 1086.87 L 568.86 1086.25 L 567.76 1085.55 L 567.10 1084.75 L 566.79 1083.84 L 566.82 1082.74 L 567.23 1081.80 L 567.91 1081.30 L 568.95 1081.18 Z" fill="#020103" fill-rule="nonzero" group-id="1" id="路径" node-id="42" stroke="none" target-height="13.678711" target-width="37.635254" target-x="566.7868" target-y="1073.8923"></path><path d="M 489.17 1093.75 L 494.40 1093.93 L 498.89 1093.77 L 503.20 1093.29 L 507.22 1092.52 L 511.18 1091.48 L 515.27 1090.16 L 524.15 1086.87 L 525.19 1086.66 L 525.79 1086.86 L 526.13 1087.38 L 526.21 1088.44 L 526.15 1090.63 L 525.90 1091.67 L 525.15 1092.44 L 523.54 1093.26 L 520.54 1094.54 L 512.97 1097.22 L 508.62 1098.50 L 504.15 1099.59 L 499.69 1100.38 L 495.75 1100.74 L 493.18 1100.68 L 491.12 1100.34 L 489.49 1099.76 L 488.16 1098.82 L 487.35 1097.52 L 487.04 1095.76 L 487.30 1094.53 L 487.96 1093.90 L 489.17 1093.75 Z" fill="#020103" fill-rule="nonzero" group-id="1" id="路径" node-id="43" stroke="none" target-height="14.071411" target-width="39.168274" target-x="487.04248" target-y="1086.6648"></path><path d="M 928.15 1114.34 L 913.86 1116.24 L 899.58 1117.58 L 885.30 1118.37 L 871.02 1118.59 L 856.73 1118.25 L 842.40 1117.36 L 828.04 1115.90 L 793.19 1105.08 L 792.00 1104.49 L 791.46 1103.79 L 791.39 1102.92 L 791.88 1101.70 L 792.88 1100.01 L 793.51 1099.29 L 794.26 1099.01 L 795.20 1099.13 L 803.70 1101.87 L 812.38 1104.25 L 821.26 1106.27 L 830.34 1107.92 L 842.51 1109.58 L 854.85 1110.71 L 867.38 1111.30 L 879.93 1111.39 L 892.47 1111.06 L 905.00 1110.30 L 917.50 1109.16 L 929.79 1107.70 L 941.86 1105.94 L 959.75 1102.80 L 976.65 1099.26 L 978.07 1099.16 L 978.99 1099.53 L 979.60 1100.31 L 979.90 1101.70 L 979.63 1102.51 L 978.67 1103.44 L 976.59 1104.57 L 973.04 1105.90 L 968.00 1107.33 L 962.56 1108.60 L 956.49 1109.83 L 944.43 1111.92 L 934.20 1113.48 L 928.15 1114.34 Z" fill="#221425" fill-rule="nonzero" group-id="1" id="路径" node-id="44" stroke="none" target-height="19.577637" target-width="188.51434" target-x="791.3855" target-y="1099.0112"></path><path d="M 544.92 1123.22 L 526.15 1125.29 L 509.19 1127.49 L 492.23 1129.17 L 475.27 1130.35 L 458.30 1131.02 L 441.32 1131.18 L 424.31 1130.84 L 407.27 1129.98 L 394.75 1125.29 L 398.82 1124.29 L 401.14 1123.94 L 403.45 1123.91 L 420.05 1124.81 L 436.62 1125.21 L 453.15 1125.11 L 469.65 1124.52 L 486.13 1123.44 L 502.60 1121.86 L 519.07 1119.79 L 535.53 1117.22 L 538.02 1117.04 L 540.02 1117.36 L 541.65 1118.10 L 542.99 1119.27 L 544.08 1120.93 L 544.92 1123.22 Z" fill="#020103" fill-rule="nonzero" group-id="1" id="路径" node-id="45" stroke="none" target-height="14.140625" target-width="150.16571" target-x="394.75323" target-y="1117.041"></path><path d="M 526.15 1125.29 L 524.72 1139.05 L 522.78 1152.71 L 520.31 1166.27 L 517.31 1179.75 L 513.78 1193.15 L 509.73 1206.49 L 505.12 1219.77 L 502.69 1215.57 L 498.78 1208.35 L 493.94 1199.82 L 491.31 1195.56 L 488.74 1191.75 L 486.06 1188.29 L 483.73 1185.87 L 482.04 1184.59 L 480.65 1184.00 L 479.47 1183.92 L 478.04 1184.35 L 476.89 1185.06 L 475.98 1186.05 L 475.28 1187.36 L 472.28 1195.12 L 471.20 1197.32 L 470.37 1198.25 L 469.70 1198.48 L 469.04 1198.21 L 468.27 1197.21 L 467.33 1194.93 L 465.23 1187.93 L 463.88 1184.04 L 462.23 1180.27 L 460.89 1177.90 L 459.38 1175.90 L 457.69 1174.23 L 455.75 1172.97 L 453.53 1172.26 L 450.94 1172.09 L 449.22 1172.44 L 447.92 1173.17 L 446.94 1174.30 L 446.25 1175.91 L 434.11 1218.89 L 407.27 1129.98 L 424.31 1130.84 L 441.32 1131.18 L 458.30 1131.02 L 475.27 1130.35 L 492.23 1129.17 L 509.19 1127.49 L 526.15 1125.29 Z" fill="#c7a0aa" fill-rule="nonzero" group-id="1" id="路径" node-id="46" stroke="none" target-height="94.47925" target-width="118.881134" target-x="407.26706" target-y="1125.2887"></path><path d="M 505.12 1219.77 L 504.12 1226.65 L 503.71 1228.02 L 503.05 1228.75 L 502.10 1229.02 L 500.68 1228.78 L 499.08 1227.96 L 497.67 1226.69 L 496.43 1224.90 L 484.04 1193.18 L 483.56 1192.36 L 482.87 1191.75 L 482.03 1191.37 L 481.08 1191.28 L 480.15 1191.48 L 479.35 1191.94 L 478.74 1192.62 L 478.35 1193.49 L 471.84 1217.83 L 471.40 1218.79 L 470.84 1219.25 L 470.11 1219.35 L 469.09 1219.02 L 468.45 1218.30 L 467.33 1215.96 L 464.90 1209.21 L 462.15 1200.41 L 459.40 1191.19 L 456.99 1183.21 L 455.26 1178.10 L 454.53 1177.19 L 453.42 1176.83 L 452.29 1177.12 L 451.50 1177.97 L 448.52 1184.75 L 446.10 1191.56 L 444.21 1198.43 L 442.86 1205.37 L 442.02 1212.39 L 441.71 1219.52 L 441.93 1226.78 L 439.11 1228.53 L 437.16 1229.24 L 435.81 1229.27 L 434.83 1228.81 L 434.11 1227.85 L 433.63 1226.15 L 433.55 1223.32 L 434.11 1218.89 L 446.25 1175.91 L 446.94 1174.30 L 447.92 1173.17 L 449.22 1172.44 L 450.94 1172.09 L 453.53 1172.26 L 455.75 1172.97 L 457.69 1174.23 L 459.38 1175.90 L 460.89 1177.90 L 462.23 1180.27 L 463.88 1184.04 L 465.23 1187.93 L 467.33 1194.93 L 468.27 1197.21 L 469.04 1198.21 L 469.70 1198.48 L 470.37 1198.25 L 471.20 1197.32 L 472.28 1195.12 L 475.28 1187.36 L 475.98 1186.05 L 476.89 1185.06 L 478.04 1184.35 L 479.47 1183.92 L 480.65 1184.00 L 482.04 1184.59 L 483.73 1185.87 L 486.06 1188.29 L 488.74 1191.75 L 491.31 1195.56 L 493.94 1199.82 L 498.78 1208.35 L 502.69 1215.57 L 505.12 1219.77 Z" fill="#020103" fill-rule="nonzero" group-id="1" id="路径" node-id="47" stroke="none" target-height="57.177124" target-width="71.574554" target-x="433.55045" target-y="1172.0903"></path><path d="M 806.33 1214.39 L 806.71 1219.85 L 806.55 1223.53 L 806.06 1225.91 L 805.36 1227.35 L 804.51 1228.15 L 803.49 1228.48 L 802.19 1228.34 L 800.44 1227.58 L 798.07 1225.90 L 797.91 1217.21 L 797.21 1208.78 L 796.01 1200.60 L 794.29 1192.63 L 792.07 1184.85 L 791.18 1182.71 L 790.41 1181.74 L 789.72 1181.44 L 789.00 1181.64 L 788.10 1182.49 L 786.94 1184.48 L 771.67 1216.64 L 770.87 1217.83 L 769.78 1218.71 L 768.49 1219.22 L 767.05 1219.33 L 765.65 1219.00 L 764.45 1218.29 L 763.51 1217.26 L 762.91 1215.95 L 754.46 1187.36 L 753.99 1186.44 L 753.27 1185.75 L 752.37 1185.32 L 751.34 1185.21 L 750.34 1185.45 L 749.50 1185.98 L 748.87 1186.76 L 748.52 1187.73 L 741.95 1226.96 L 739.22 1228.00 L 737.29 1228.32 L 735.93 1228.14 L 734.96 1227.57 L 734.26 1226.60 L 733.85 1225.08 L 733.82 1222.77 L 734.37 1219.34 L 735.75 1214.45 L 744.64 1177.47 L 745.32 1175.83 L 746.44 1174.53 L 747.90 1173.62 L 749.63 1173.21 L 751.40 1173.36 L 752.98 1174.02 L 754.29 1175.14 L 755.21 1176.66 L 765.85 1202.62 L 766.24 1203.27 L 766.78 1203.77 L 767.44 1204.10 L 768.18 1204.25 L 768.93 1204.18 L 769.62 1203.91 L 770.21 1203.48 L 770.67 1202.87 L 784.68 1177.28 L 785.54 1176.04 L 786.56 1175.05 L 787.78 1174.27 L 789.12 1173.74 L 790.53 1173.50 L 792.04 1173.55 L 793.50 1173.90 L 794.79 1174.51 L 795.95 1175.37 L 796.92 1176.44 L 797.64 1177.68 L 798.14 1179.10 L 806.33 1214.39 Z" fill="#020103" fill-rule="nonzero" group-id="1" id="路径" node-id="48" stroke="none" target-height="55.268433" target-width="72.88727" target-x="733.8188" target-y="1173.2076"></path><path d="M 1031.14 1211.07 L 1030.89 1226.21 L 1030.68 1227.75 L 1030.19 1228.69 L 1029.45 1229.21 L 1028.39 1229.38 L 1026.83 1229.09 L 1025.51 1228.38 L 1024.35 1227.12 L 1023.32 1225.15 L 1023.93 1218.47 L 1023.99 1211.77 L 1023.48 1205.03 L 1022.41 1198.23 L 1020.76 1191.34 L 1018.50 1184.35 L 1017.51 1182.25 L 1016.67 1181.30 L 1015.94 1181.02 L 1015.19 1181.24 L 1014.28 1182.14 L 1013.12 1184.17 L 997.61 1218.64 L 996.87 1219.75 L 995.87 1220.56 L 994.68 1221.03 L 993.35 1221.14 L 992.06 1220.83 L 990.95 1220.17 L 990.09 1219.22 L 989.53 1218.02 L 981.09 1186.17 L 980.69 1185.30 L 980.06 1184.65 L 979.24 1184.23 L 978.30 1184.11 L 977.37 1184.32 L 976.59 1184.81 L 976.02 1185.52 L 975.71 1186.42 L 969.07 1225.15 L 967.98 1227.25 L 966.71 1228.51 L 965.26 1229.15 L 963.59 1229.33 L 962.51 1229.07 L 961.82 1228.46 L 961.41 1227.43 L 961.38 1225.77 L 962.57 1214.45 L 971.58 1177.35 L 972.24 1175.72 L 973.34 1174.42 L 974.78 1173.53 L 976.49 1173.12 L 978.24 1173.28 L 979.80 1173.96 L 981.07 1175.08 L 981.96 1176.60 L 993.41 1205.69 L 993.88 1206.25 L 994.58 1206.48 L 995.29 1206.29 L 995.79 1205.75 L 1010.37 1177.35 L 1011.22 1176.07 L 1012.25 1175.04 L 1013.47 1174.23 L 1014.84 1173.68 L 1016.27 1173.42 L 1017.80 1173.45 L 1019.29 1173.81 L 1020.62 1174.42 L 1021.80 1175.30 L 1022.78 1176.39 L 1023.51 1177.65 L 1024.01 1179.10 L 1031.14 1211.07 Z" fill="#020103" fill-rule="nonzero" group-id="1" id="路径" node-id="49" stroke="none" target-height="56.255615" target-width="69.764465" target-x="961.37836" target-y="1173.125"></path><path d="M 496.43 1224.90 L 441.93 1226.78 L 441.71 1219.52 L 442.02 1212.39 L 442.86 1205.37 L 444.21 1198.43 L 446.10 1191.56 L 448.52 1184.75 L 451.50 1177.97 L 452.29 1177.12 L 453.42 1176.83 L 454.53 1177.19 L 455.26 1178.10 L 456.99 1183.21 L 459.40 1191.19 L 462.15 1200.41 L 464.90 1209.21 L 467.33 1215.96 L 468.45 1218.30 L 469.09 1219.02 L 470.11 1219.35 L 470.84 1219.25 L 471.40 1218.79 L 471.84 1217.83 L 478.35 1193.49 L 478.74 1192.62 L 479.35 1191.94 L 480.15 1191.48 L 481.08 1191.28 L 482.03 1191.37 L 482.87 1191.75 L 483.56 1192.36 L 484.04 1193.18 L 496.43 1224.90 Z" fill="#c7a0aa" fill-rule="nonzero" group-id="1" id="路径" node-id="50" stroke="none" target-height="49.94751" target-width="54.71576" target-x="441.71216" target-y="1176.8281"></path><path d="M 279.25 1214.20 L 278.56 1226.28 L 278.28 1227.79 L 277.75 1228.71 L 277.00 1229.22 L 275.95 1229.38 L 274.43 1229.09 L 273.12 1228.38 L 271.95 1227.12 L 270.93 1225.15 L 271.05 1220.34 L 270.72 1215.71 L 269.94 1211.21 L 268.72 1206.84 L 267.05 1202.56 L 266.24 1201.23 L 265.40 1200.53 L 264.48 1200.29 L 263.40 1200.48 L 262.04 1201.25 L 258.33 1204.38 L 255.07 1207.80 L 252.23 1211.54 L 249.80 1215.62 L 247.77 1220.06 L 246.15 1224.90 L 242.40 1230.40 L 240.97 1232.08 L 240.02 1232.59 L 239.30 1232.43 L 238.64 1231.59 L 238.02 1229.47 L 237.68 1228.19 L 237.18 1227.31 L 236.52 1226.71 L 235.50 1220.11 L 234.05 1213.64 L 232.15 1207.29 L 229.81 1201.06 L 227.02 1194.92 L 223.75 1188.86 L 223.20 1188.19 L 222.49 1187.75 L 221.68 1187.54 L 220.81 1187.60 L 220.01 1187.94 L 219.38 1188.49 L 218.94 1189.20 L 218.75 1190.05 L 216.68 1226.71 L 215.15 1228.36 L 213.65 1229.34 L 212.14 1229.77 L 210.55 1229.72 L 208.99 1229.23 L 207.95 1228.43 L 207.30 1227.30 L 207.05 1225.71 L 206.80 1206.38 L 207.89 1204.21 L 208.96 1201.36 L 210.96 1194.99 L 212.10 1191.68 L 213.40 1188.51 L 214.99 1185.57 L 216.86 1183.14 L 218.34 1181.80 L 220.02 1180.79 L 221.94 1180.10 L 223.70 1179.89 L 225.14 1180.11 L 226.35 1180.72 L 227.38 1181.74 L 228.26 1183.29 L 240.77 1212.63 L 241.37 1213.40 L 242.28 1213.77 L 243.26 1213.65 L 244.09 1213.07 L 260.61 1193.11 L 261.78 1192.01 L 263.17 1191.26 L 264.69 1190.89 L 266.30 1190.92 L 267.85 1191.36 L 269.21 1192.16 L 270.31 1193.28 L 271.12 1194.68 L 279.25 1214.20 Z" fill="#221425" fill-rule="nonzero" group-id="1" id="路径" node-id="51" stroke="none" target-height="52.69861" target-width="72.45494" target-x="206.79588" target-y="1179.8868"></path><path d="M 798.07 1225.90 L 741.95 1226.96 L 748.52 1187.73 L 748.87 1186.76 L 749.50 1185.98 L 750.34 1185.45 L 751.34 1185.21 L 752.37 1185.32 L 753.27 1185.75 L 753.99 1186.44 L 754.46 1187.36 L 762.91 1215.95 L 763.51 1217.26 L 764.45 1218.29 L 765.65 1219.00 L 767.05 1219.33 L 768.49 1219.22 L 769.78 1218.71 L 770.87 1217.83 L 771.67 1216.64 L 786.94 1184.48 L 788.10 1182.49 L 789.00 1181.64 L 789.72 1181.44 L 790.41 1181.74 L 791.18 1182.71 L 792.07 1184.85 L 794.29 1192.63 L 796.01 1200.60 L 797.21 1208.78 L 797.91 1217.21 L 798.07 1225.90 Z" fill="#c7a0aa" fill-rule="nonzero" group-id="1" id="路径" node-id="52" stroke="none" target-height="45.519043" target-width="56.12439" target-x="741.9488" target-y="1181.4443"></path><path d="M 1023.32 1225.15 L 969.07 1225.15 L 975.71 1186.42 L 976.02 1185.52 L 976.59 1184.81 L 977.37 1184.32 L 978.30 1184.11 L 979.24 1184.23 L 980.06 1184.65 L 980.69 1185.30 L 981.09 1186.17 L 989.53 1218.02 L 990.09 1219.22 L 990.95 1220.17 L 992.06 1220.83 L 993.35 1221.14 L 994.68 1221.03 L 995.87 1220.56 L 996.87 1219.75 L 997.61 1218.64 L 1013.12 1184.17 L 1014.28 1182.14 L 1015.19 1181.24 L 1015.94 1181.02 L 1016.67 1181.30 L 1017.51 1182.25 L 1018.50 1184.35 L 1020.76 1191.34 L 1022.41 1198.23 L 1023.48 1205.03 L 1023.99 1211.77 L 1023.93 1218.47 L 1023.32 1225.15 Z" fill="#c7a0aa" fill-rule="nonzero" group-id="1" id="路径" node-id="53" stroke="none" target-height="44.12671" target-width="54.912415" target-x="969.07434" target-y="1181.0221"></path><path d="M 236.52 1226.71 L 216.68 1226.71 L 218.75 1190.05 L 218.94 1189.20 L 219.38 1188.49 L 220.01 1187.94 L 220.81 1187.60 L 221.68 1187.54 L 222.49 1187.75 L 223.20 1188.19 L 223.75 1188.86 L 227.02 1194.92 L 229.81 1201.06 L 232.15 1207.29 L 234.05 1213.64 L 235.50 1220.11 L 236.52 1226.71 Z" fill="#c7a0aa" fill-rule="nonzero" group-id="1" id="路径" node-id="54" stroke="none" target-height="39.172485" target-width="19.834396" target-x="216.68178" target-y="1187.5406"></path><path d="M 270.93 1225.15 L 265.95 1226.14 L 261.01 1226.61 L 256.08 1226.56 L 251.14 1225.99 L 246.15 1224.90 L 247.77 1220.06 L 249.80 1215.62 L 252.23 1211.54 L 255.07 1207.80 L 258.33 1204.38 L 262.04 1201.25 L 263.40 1200.48 L 264.48 1200.29 L 265.40 1200.53 L 266.24 1201.23 L 267.05 1202.56 L 268.72 1206.84 L 269.94 1211.21 L 270.72 1215.71 L 271.05 1220.34 L 270.93 1225.15 Z" fill="#c7a0aa" fill-rule="nonzero" group-id="1" id="路径" node-id="55" stroke="none" target-height="26.32312" target-width="24.901215" target-x="246.1518" target-y="1200.2876"></path></g></svg>